<?xml version="1.0" encoding="UTF-8" standalone="no"?>
<!-- Created with Inkscape (http://www.inkscape.org/) -->

<svg
   width="298.31729mm"
   height="80.711884mm"
   viewBox="0 0 298.31729 80.711884"
   version="1.1"
   id="svg5"
   inkscape:export-filename="RamazziniLogoNoBg.png"
   inkscape:export-xdpi="300"
   inkscape:export-ydpi="300"
   inkscape:version="1.2.2 (732a01da63, 2022-12-09)"
   sodipodi:docname="rAMAZZO.svg"
   xmlns:inkscape="http://www.inkscape.org/namespaces/inkscape"
   xmlns:sodipodi="http://sodipodi.sourceforge.net/DTD/sodipodi-0.dtd"
   xmlns="http://www.w3.org/2000/svg"
   xmlns:svg="http://www.w3.org/2000/svg">
  <sodipodi:namedview
     id="namedview7"
     pagecolor="#ffffff"
     bordercolor="#000000"
     borderopacity="0.25"
     inkscape:showpageshadow="2"
     inkscape:pageopacity="0.0"
     inkscape:pagecheckerboard="0"
     inkscape:deskcolor="#d1d1d1"
     inkscape:document-units="mm"
     showgrid="false"
     inkscape:zoom="0.37282197"
     inkscape:cx="-335.28067"
     inkscape:cy="480.12192"
     inkscape:window-width="1920"
     inkscape:window-height="1017"
     inkscape:window-x="1592"
     inkscape:window-y="-8"
     inkscape:window-maximized="1"
     inkscape:current-layer="g771" />
  <defs
     id="defs2" />
  <g
     inkscape:label="Capa 1"
     inkscape:groupmode="layer"
     id="layer1"
     transform="translate(-29.679408,-106.68235)">
    <g
       transform="matrix(0.26458333,0,0,0.26458333,-183.52813,-83.068806)"
       id="g771">
      <g
         aria-label="RAMAZZINI"
         transform="scale(1.0253138,0.97531119)"
         id="text761"
         style="font-size:226.594px;font-family:Kanit, Kanit_MSFontService, sans-serif;display:inline;fill:#3f4b54;stroke-width:1.02531"
         inkscape:label="RAMAZZINI">
        <path
           d="M 785.92893,881.25055 V 735.32402 h 67.07182 q 24.47215,0 35.57525,12.68926 11.3297,12.46267 11.3297,33.9891 0,15.40839 -7.70419,26.2849 -7.7042,10.87651 -22.20621,15.1818 4.07869,2.94572 6.34463,6.34463 2.26594,3.39891 4.53188,9.06376 l 18.35411,42.37308 h -25.37853 l -17.90092,-40.78692 q -2.49253,-5.89144 -6.11804,-8.38398 -3.39891,-2.49253 -11.78289,-2.49253 h -27.41787 v 51.66343 z m 24.69874,-71.6037 h 35.80185 q 13.36905,0 21.07324,-6.57123 7.7042,-6.57122 7.7042,-21.07324 0,-27.41787 -26.5115,-27.41787 h -38.06779 z"
           id="path1319" />
        <path
           d="m 909.64937,881.25055 55.74212,-145.92653 h 27.64447 l 55.28894,145.92653 h -25.3785 l -14.5021,-37.6146 h -58.6878 l -14.50201,37.6146 z m 43.95923,-56.6485 h 50.7571 l -25.37857,-66.84523 z"
           id="path1321" />
        <path
           d="M 1072.5706,881.25055 V 735.32402 h 25.3785 l 46.2252,94.48969 45.9986,-94.48969 h 25.3785 v 145.92653 h -24.4721 v -105.8194 l -39.4274,80.66747 h -14.9552 l -39.6539,-80.66747 v 105.8194 z"
           id="path1323" />
        <path
           d="m 1239.797,881.25055 55.7421,-145.92653 h 27.6445 l 55.2889,145.92653 h -25.3785 l -14.502,-37.6146 h -58.6879 l -14.502,37.6146 z m 43.9592,-56.6485 h 50.7571 l -25.3786,-66.84523 z"
           id="path1325" />
        <path
           d="M 1394.7875,881.25055 V 868.1081 l 78.4016,-112.61722 h -74.5495 v -20.16686 h 106.2726 v 15.18179 l -77.7217,111.71084 h 78.8547 v 19.0339 z"
           id="path1327" />
        <path
           d="M 1521.6805,881.25055 V 868.1081 l 78.4015,-112.61722 h -74.5494 v -20.16686 h 106.2726 v 15.18179 l -77.7218,111.71084 h 78.8547 v 19.0339 z"
           id="path1329" />
        <path
           d="M 1656.5041,881.25055 V 735.32402 h 24.6988 v 145.92653 z"
           id="path1331" />
        <path
           d="M 1709.7539,881.25055 V 735.32402 h 21.753 l 76.1356,107.40555 V 735.32402 h 24.4721 v 145.92653 h -21.753 l -75.909,-107.17896 v 107.17896 z"
           id="path1333" />
        <path
           d="M 1860.8921,881.25055 V 735.32402 h 24.6987 v 145.92653 z"
           id="path1335" />
      </g>
      <g
         aria-label="SALUD"
         id="text763"
         style="font-size:107px;font-family:Kanit, Kanit_MSFontService, sans-serif;display:inline;fill:#015e66"
         inkscape:label="SALUD">
        <path
           d="m 831.00132,1022.2225 q -13.375,0 -21.507,-3.424 v -10.272 q 4.601,1.712 9.844,2.782 5.35,1.07 10.593,1.07 8.239,0 12.305,-1.926 4.173,-1.926 4.173,-7.704 0,-3.53097 -1.712,-5.67097 -1.712,-2.14 -5.671,-3.638 -3.959,-1.605 -10.914,-3.317 -11.128,-2.889 -15.622,-7.276 -4.494,-4.494 -4.494,-12.305 0,-9.095 6.634,-14.231 6.634,-5.136 19.795,-5.136 5.992,0 11.235,0.856 5.35,0.856 8.346,1.926 v 10.272 q -8.132,-3.103 -17.976,-3.103 -7.704,0 -11.984,2.033 -4.28,2.033 -4.28,7.383 0,3.103 1.498,5.029 1.498,1.926 5.136,3.317 3.745,1.391 10.272,3.103 8.453,2.14 13.054,5.136 4.708,2.889 6.527,6.848 1.926,3.852 1.926,8.77397 0,9.095 -6.741,14.338 -6.741,5.136 -20.437,5.136 z"
           id="path1356" />
        <path
           id="path1566"
           inkscape:label="A"
           d="m 887.92503,952.24479 -26.32227,68.90821 h 10.55078 l 17.60742,-46.24219 4.58399,-12.07422 11.98437,31.5664 h -14.44921 l -1.87305,8.98831 h 18.24805 l 6.84765,17.7617 h 11.98438 l -26.10743,-68.90821 z" />
        <path
           d="m 938.53641,1021.1525 v -68.90797 h 11.663 v 59.91997 h 35.31 v 8.988 z"
           id="path1360" />
        <path
           d="m 1024.1364,1022.2225 q -14.231,0 -22.149,-6.848 -7.81103,-6.848 -7.81103,-19.79497 v -43.335 h 11.66303 v 42.907 q 0,8.66697 4.708,12.94697 4.815,4.28 13.589,4.28 8.667,0 13.375,-4.28 4.815,-4.28 4.815,-12.94697 v -42.907 h 11.556 v 43.335 q 0,12.94697 -7.811,19.79497 -7.811,6.848 -21.935,6.848 z"
           id="path1362" />
        <path
           d="m 1066.8293,1021.1525 v -68.90797 h 27.927 q 15.301,0 22.684,8.132 7.383,8.025 7.383,26.75 0,17.65497 -7.276,25.89397 -7.276,8.132 -22.791,8.132 z m 11.663,-8.988 h 14.445 q 6.741,0 11.235,-1.926 4.494,-2.033 6.741,-7.49 2.247,-5.45697 2.247,-15.62197 0,-10.165 -2.033,-15.729 -2.033,-5.564 -6.527,-7.811 -4.387,-2.247 -11.663,-2.247 h -14.445 z"
           id="path1364" />
      </g>
      <g
         aria-label="Y"
         id="text765"
         style="font-size:107px;font-family:Kanit, Kanit_MSFontService, sans-serif;display:inline;fill:#015e66"
         inkscape:label="Y">
        <path
           d="m 1188.0463,1021.1525 v -25.57297 l -24.717,-43.335 h 12.091 l 18.404,33.491 18.404,-33.491 h 12.091 l -24.717,43.335 v 25.57297 z"
           id="path1377" />
      </g>
      <g
         aria-label="TRABAJ"
         id="text767"
         style="font-size:107px;font-family:Kanit, Kanit_MSFontService, sans-serif;display:inline;fill:#015e66"
         inkscape:label="TRABAJO">
        <path
           d="m 1277.8383,1021.1525 v -59.81297 h -22.042 v -9.095 h 55.64 v 9.095 h -21.935 v 59.81297 z"
           id="path1382" />
        <path
           d="m 1320.7454,1021.1525 v -68.90797 h 31.672 q 11.556,0 16.799,5.992 5.35,5.885 5.35,16.05 0,7.276 -3.638,12.412 -3.638,5.136 -10.486,7.169 1.926,1.391 2.996,2.996 1.07,1.605 2.14,4.27997 l 8.667,20.009 h -11.984 l -8.453,-19.26 q -1.177,-2.78197 -2.889,-3.95897 -1.605,-1.177 -5.564,-1.177 h -12.947 v 24.39597 z m 11.663,-33.81197 h 16.906 q 6.313,0 9.951,-3.103 3.638,-3.103 3.638,-9.951 0,-12.947 -12.519,-12.947 h -17.976 z"
           id="path1384" />
        <path
           id="path1563"
           inkscape:label="A"
           d="m 1405.4895,952.24479 -26.3223,68.90821 h 10.5254 l 22.2188,-58.34962 -0.025,0.0918 0.023,-0.0586 11.9844,31.5664 h -14.4649 l -1.873,8.98832 h 18.2637 l 6.8476,17.7617 h 11.9844 l -26.1074,-68.90822 z" />
        <path
           id="path1627"
           inkscape:label="B"
           d="m 1456.1008,952.24479 v 68.90821 h 34.8809 c 6.9906,0 12.2692,-1.6406 15.8359,-4.9219 3.638,-3.2813 5.457,-8.2751 5.457,-14.9805 0,-4.63659 -0.9987,-8.13228 -2.996,-10.48628 -1.926,-2.42533 -4.5654,-4.10196 -7.918,-5.0293 2.4966,-1.28399 4.4942,-3.17325 5.9922,-5.66992 1.498,-2.56799 2.248,-5.70668 2.248,-9.41601 0,-5.84933 -1.6405,-10.37985 -4.9219,-13.58985 -3.2813,-3.20999 -8.3473,-4.81445 -15.1953,-4.81445 z m 11.6621,8.77344 h 18.8321 c 4.708,0 7.9188,0.89245 9.6308,2.67578 1.712,1.712 2.5684,4.3513 2.5684,7.91797 0,3.06733 -0.8564,5.52815 -2.5684,7.38281 -1.6406,1.78333 -4.4224,2.67383 -8.3457,2.67383 h -9.4414 v 8.56055 h 8.9063 c 4.9933,0 8.4168,0.89245 10.2714,2.67578 1.926,1.71199 2.8887,4.35132 2.8887,7.91795 0,4.3513 -0.9627,7.4179 -2.8887,9.2012 -1.926,1.712 -4.9583,2.5683 -9.0957,2.5683 h -20.7578 v -21.97066 h -0.01 v -9.38867 h 0.01 z" />
        <path
           id="path1560"
           style="font-size:107px;font-family:Kanit, Kanit_MSFontService, sans-serif;display:inline;fill:#015e66"
           inkscape:label="A"
           d="m 1544.1614,952.24479 -26.3223,68.90821 h 10.5664 l 12.6406,-33.19532 9.5352,-25.12109 11.9844,31.5664 h -14.4688 l -1.873,8.98831 h 18.2675 l 6.8477,17.7617 h 11.9844 l -26.1074,-68.90821 z"
           transform="translate(-4.8031495e-6)" />
        <path
           d="m 1605.4726,1022.2225 q -8.774,0 -14.98,-2.461 v -9.844 q 2.568,1.07 5.992,1.819 3.531,0.642 6.955,0.642 7.169,0 9.951,-2.889 2.889,-2.996 2.889,-9.52297 v -47.722 h 11.663 v 49.64797 q 0,9.844 -5.671,15.087 -5.564,5.243 -16.799,5.243 z"
           id="path1392" />
        <path
           d="m 1678.7983,1022.2225 q -16.371,0 -24.503,-8.56 -8.132,-8.667 -8.132,-26.74997 0,-18.832 8.132,-27.285 8.132,-8.453 24.503,-8.453 16.478,0 24.503,8.453 8.132,8.453 8.132,27.285 0,18.08297 -8.132,26.74997 -8.025,8.56 -24.503,8.56 z m 0,-9.844 q 10.807,0 15.836,-5.885 5.136,-5.992 5.136,-19.58097 0,-14.338 -5.136,-20.009 -5.029,-5.778 -15.836,-5.778 -10.7,0 -15.836,5.778 -5.029,5.671 -5.029,20.009 0,13.58897 5.029,19.58097 5.136,5.885 15.836,5.885 z"
           id="path1407"
           style="font-size:107px;font-family:Kanit, Kanit_MSFontService, sans-serif;fill:#015e66"
           transform="translate(-4.8031495e-6)" />
      </g>
    </g>
  </g>
</svg>
