<?xml version="1.0" encoding="UTF-8" standalone="no"?>
<!-- Created with Inkscape (http://www.inkscape.org/) -->

<svg
   width="441.10965mm"
   height="118.79781mm"
   viewBox="0 0 441.10965 118.79781"
   version="1.1"
   id="svg5"
   inkscape:export-filename="RamazziniBrand.png"
   inkscape:export-xdpi="300"
   inkscape:export-ydpi="300"
   inkscape:version="1.2.2 (732a01da63, 2022-12-09)"
   sodipodi:docname="rAMAZZO.svg"
   xmlns:inkscape="http://www.inkscape.org/namespaces/inkscape"
   xmlns:sodipodi="http://sodipodi.sourceforge.net/DTD/sodipodi-0.dtd"
   xmlns="http://www.w3.org/2000/svg"
   xmlns:svg="http://www.w3.org/2000/svg">
  <sodipodi:namedview
     id="namedview7"
     pagecolor="#ffffff"
     bordercolor="#000000"
     borderopacity="0.25"
     inkscape:showpageshadow="2"
     inkscape:pageopacity="0.0"
     inkscape:pagecheckerboard="0"
     inkscape:deskcolor="#d1d1d1"
     inkscape:document-units="mm"
     showgrid="false"
     inkscape:zoom="0.37282197"
     inkscape:cx="-335.28067"
     inkscape:cy="480.12192"
     inkscape:window-width="1920"
     inkscape:window-height="1017"
     inkscape:window-x="1592"
     inkscape:window-y="-8"
     inkscape:window-maximized="1"
     inkscape:current-layer="g771" />
  <defs
     id="defs2">
    <clipPath
       clipPathUnits="userSpaceOnUse"
       id="clipPath495-0">
      <path
         id="path497-4"
         style="fill:#ff0000;fill-opacity:1;fill-rule:nonzero;stroke:none"
         d="m 419.99936,130.00042 v 427.00001 h 114.75 c -0.0526,-0.0688 -0.11041,-0.13364 -0.16211,-0.20313 -3.73874,-5.02589 -3.62794,-8.38034 -4.0625,-13.54101 -0.0174,-8.45873 0.57244,-16.90052 1.42188,-25.31446 0.89429,-7.95064 1.6847,-16.15569 4.28906,-23.77343 0.36866,-1.07834 0.86306,-2.10947 1.29492,-3.16407 13.83601,-33.78686 12.59115,46.77531 32.98828,16.49414 0.0805,-0.11943 0.19608,-0.49619 0.24219,-0.35937 0.0805,0.23837 -0.0652,0.49891 -0.11133,0.74609 -0.15242,0.81887 -0.33848,1.63309 -0.48437,2.45313 -0.20156,1.13185 -0.39078,2.26497 -0.5586,3.40234 -0.49428,3.35176 -0.62941,4.87379 -1.00585,8.28711 -0.32247,3.49425 -0.63852,6.9927 -0.86524,10.4961 0.69279,0.0679 1.38557,0.13898 2.07813,0.20898 10.56358,0.76641 21.12708,1.5076 31.68163,2.39258 6.98698,0.61122 13.95107,1.4526 20.86718,2.61719 4.5422,0.76165 8.99552,1.96002 13.51368,2.84375 3.22813,0.63137 4.72967,0.80801 8.04492,1.29296 8.87217,1.25292 17.45417,-0.4277 25.94922,-2.89648 6.15117,-1.88345 11.98317,-4.58784 17.375,-8.08008 4.66911,-3.75942 9.06386,-7.83321 13.72265,-11.60937 10.95031,-8.51421 23.66743,-14.26282 36.24024,-19.91797 13.93038,-6.37855 28.57155,-11.33036 41.98243,-18.82032 2.54362,-1.4206 4.97169,-3.04034 7.45703,-4.56054 9.85519,-6.66542 17.98632,-15.41663 23.57813,-25.95508 4.1622,-7.84402 4.58679,-10.51674 7.3418,-19.08008 0.85942,-3.77805 1.86325,-7.5263 2.58007,-11.33398 1.45021,-7.70339 2.44609,-16.86418 3.14258,-24.64649 1.06912,-11.94565 1.547,-23.92251 2.01563,-35.90235 0.30463,-9.29533 0.5773,-18.60655 0.25,-27.90625 -0.21925,-6.22945 -0.79839,-12.43087 -1.47852,-18.62305 -0.77034,-5.88729 -2.15087,-11.70185 -4.92969,-16.97266 -0.92322,-1.73317 -2.25249,-2.98233 -3.81445,-4.10156 -2.1024,-1.22475 -4.10688,-2.60251 -6.14453,-3.92969 -23.90088,-15.56725 -16.81574,-37.85026 2.00391,-37.33398 5.26952,0.14453 11.45779,2.07612 18.14453,6.44336 2.91926,1.90662 5.87988,3.75438 8.72265,5.77344 2.23083,1.78658 3.00138,2.31046 5.09766,4.39453 1.37576,1.36773 2.65314,2.82195 3.8418,4.3457 V 130.00042 Z m 427.00001,328.43946 c -1.34875,3.28173 -2.99664,6.68584 -5.6875,11.44531 -6.61954,11.70817 -15.40534,22.01055 -25.78516,30.54297 -3.12563,2.56936 -6.54394,4.7592 -9.81641,7.13867 -3.27934,1.96052 -6.49342,4.03362 -9.83789,5.88086 -13.95793,7.70951 -29.05423,13.0488 -43.56251,19.57422 -9.70506,4.34555 -19.6109,8.63021 -28.20312,14.99024 -3.60232,2.87668 -6.98547,6.02365 -10.51368,8.98828 h 133.40627 z m -279.58009,83.51367 c -1.5e-4,0.37248 -0.0173,0.74464 -0.0137,1.11719 0.46007,1.1684 0.34205,0.27281 0.0137,-1.11719 z" />
    </clipPath>
    <clipPath
       clipPathUnits="userSpaceOnUse"
       id="clipPath543-5">
      <path
         id="path545-8"
         style="fill:#ff0000;fill-opacity:1;fill-rule:nonzero;stroke:none"
         d="m 443.99936,152.00042 v 154.3457 c 0.7908,-1.43252 1.63095,-2.93593 2.37305,-4.12305 0.51409,-12.62266 1.56702,-25.221 3.99023,-37.64062 2.95214,-14.71577 6.43815,-29.52453 13.71289,-42.79493 1.16952,-1.98973 2.2626,-4.0255 3.50782,-5.96875 5.78467,-9.02739 13.2963,-16.7891 21.83593,-23.23632 1.57129,-1.11133 3.11603,-2.25973 4.71289,-3.33398 6.2245,-4.18745 12.91022,-7.66114 19.35938,-11.47656 8.86125,-4.87894 17.80661,-9.60577 26.88477,-14.07031 8.18802,-4.028 16.34872,-8.16623 24.76367,-11.70118 z m 280.71289,0 c 6.89785,2.52874 13.69722,5.33416 20.41406,8.29297 6.38509,3.14919 5.85484,2.83056 11.82422,5.98438 3.10215,1.63898 6.1485,3.40593 9.25977,5.02539 0.53571,0.27883 1.08845,0.52173 1.63282,0.7832 v 0.002 c 32.91099,15.80685 15.77883,50.06001 -16.49416,32.98828 -7.47661,-3.95501 -14.92173,-7.96115 -22.51562,-11.69335 -9.69917,-4.15895 -19.54083,-8.07876 -29.68945,-11.01368 -6.4899,-1.87683 -8.04526,-2.09357 -14.6211,-3.50781 -12.43652,-2.48293 -25.05951,-3.77733 -37.69922,-4.625 -6.61076,-0.39708 -13.26514,-0.5551 -19.88086,-0.13086 -3.79804,0.24355 -5.33807,0.53286 -9.13086,1.06446 -10.67076,1.51969 -20.97864,4.68759 -31.18553,8.04882 -10.37075,3.63636 -20.1312,8.7357 -29.97071,13.57618 -8.56746,4.21438 -17.00916,8.67621 -25.37109,13.28319 -5.79198,3.4617 -11.84786,6.53962 -17.43555,10.33789 -1.01562,0.69037 -1.98728,1.4457 -2.98047,2.16797 -5.10661,3.9346 -9.5491,8.65825 -12.91992,14.16797 -0.68643,1.12199 -1.27687,2.29768 -1.91601,3.44726 -5.06491,9.84528 -7.37107,20.80563 -9.50001,31.58789 -2.08246,10.82135 -2.95652,21.79796 -3.35351,32.79297 -0.19117,14.84896 0.0135,29.69999 0.13476,44.54883 6.1e-4,5.29122 0.22078,10.57708 -0.0566,15.86524 -0.078,1.48713 -0.40638,5.95927 -0.96875,7.25976 -1.3115,3.03292 -3.15084,5.81036 -4.72656,8.71485 -2.24173,0.12631 -4.4866,0.35468 -6.73242,0.60742 -0.0278,4.15264 0.11596,6.39924 0.32617,11.20899 0.63051,10.22078 2.41664,20.3372 4.7793,30.28907 2.13973,8.00163 4.97328,15.79311 7.96289,23.50976 2.84481,7.11873 6.45467,13.8964 10.06445,20.64844 4.16226,7.51207 8.61004,14.85989 13.01172,22.23242 3.68377,6.15038 7.4393,12.25669 11.31641,18.28711 3.0204,4.76995 6.19418,9.43823 9.24609,14.1875 0.9429,1.33153 1.86639,2.6884 2.96094,3.90234 0.60684,0.67314 0.66709,0.83501 0.46484,0.42969 0.31836,0.20829 0.71986,0.64034 1.08594,0.77149 0.11112,0.0397 -0.19483,-0.14159 -0.25977,-0.24024 -0.019,-0.0302 0.0714,-0.007 0.10352,0.004 0.22137,0.0847 0.43502,0.18871 0.65234,0.2832 1.53532,0.70428 0.83714,0.3937 2.08789,0.9375 1.4271,0.62047 2.73457,1.28704 3.98829,1.97266 H 820.99941 V 152.00056 Z m -280.71289,292.7461 v 85.25391 h 44.76367 c -0.49846,-0.77224 -1.0113,-1.53519 -1.50195,-2.3125 -4.09256,-6.37254 -8.06417,-12.81947 -11.95312,-19.31836 -4.70106,-7.87422 -9.45004,-15.72304 -13.875,-23.75781 -4.31145,-8.0742 -8.57776,-16.1995 -11.9336,-24.72852 -1.93263,-5.0071 -3.79325,-10.04707 -5.5,-15.13672 z" />
    </clipPath>
  </defs>
  <g
     inkscape:label="Capa 1"
     inkscape:groupmode="layer"
     id="layer1"
     transform="translate(113.11293,-87.427595)">
    <g
       transform="matrix(0.26458333,0,0,0.26458333,-224.23792,53.031647)"
       id="g83"
       style="display:inline"
       inkscape:label="Logo">
      <path
         d="M 440,365.5 C 440,247.587 535.587,152 653.5,152 771.413,152 867,247.587 867,365.5 867,483.413 771.413,579 653.5,579 535.587,579 440,483.413 440,365.5 Z m 29.51,0 c 0,101.615 82.375,183.99 183.99,183.99 101.615,0 183.99,-82.375 183.99,-183.99 0,-101.615 -82.375,-183.99 -183.99,-183.99 -101.615,0 -183.99,82.375 -183.99,183.99 z"
         fill="#4f8a48"
         fill-rule="evenodd"
         id="path77" />
      <path
         d="M 420,343.5 C 420,225.587 515.587,130 633.5,130 751.413,130 847,225.587 847,343.5 847,461.413 751.413,557 633.5,557 515.587,557 420,461.413 420,343.5 Z m 4.398,0 c 0,115.484 93.618,209.102 209.102,209.102 115.484,0 209.102,-93.618 209.102,-209.102 0,-115.484 -93.618,-209.102 -209.102,-209.102 -115.484,0 -209.102,93.618 -209.102,209.102 z"
         fill="#4f8a48"
         fill-rule="evenodd"
         id="path79"
         clip-path="url(#clipPath495-0)" />
      <path
         d="M 444,341 C 444,236.618 528.394,152 632.5,152 736.606,152 821,236.618 821,341 821,445.382 736.606,530 632.5,530 528.394,530 444,445.382 444,341 Z m 3.883,0 c 0,102.237 82.656,185.117 184.617,185.117 101.961,0 184.617,-82.88 184.617,-185.117 0,-102.237 -82.656,-185.117 -184.617,-185.117 -101.961,0 -184.617,82.88 -184.617,185.117 z"
         fill="#4f8a48"
         fill-rule="evenodd"
         id="path81"
         clip-path="url(#clipPath543-5)" />
    </g>
    <g
       transform="matrix(0.26458333,0,0,0.26458333,-183.52813,-83.068806)"
       id="g771">
      <g
         aria-label="RAMAZZINI"
         transform="scale(1.0253138,0.97531119)"
         id="text761"
         style="font-size:226.594px;font-family:Kanit, Kanit_MSFontService, sans-serif;display:inline;fill:#3f4b54;stroke-width:1.02531"
         inkscape:label="RAMAZZINI">
        <path
           d="M 785.92893,881.25055 V 735.32402 h 67.07182 q 24.47215,0 35.57525,12.68926 11.3297,12.46267 11.3297,33.9891 0,15.40839 -7.70419,26.2849 -7.7042,10.87651 -22.20621,15.1818 4.07869,2.94572 6.34463,6.34463 2.26594,3.39891 4.53188,9.06376 l 18.35411,42.37308 h -25.37853 l -17.90092,-40.78692 q -2.49253,-5.89144 -6.11804,-8.38398 -3.39891,-2.49253 -11.78289,-2.49253 h -27.41787 v 51.66343 z m 24.69874,-71.6037 h 35.80185 q 13.36905,0 21.07324,-6.57123 7.7042,-6.57122 7.7042,-21.07324 0,-27.41787 -26.5115,-27.41787 h -38.06779 z"
           id="path1319" />
        <path
           d="m 909.64937,881.25055 55.74212,-145.92653 h 27.64447 l 55.28894,145.92653 h -25.3785 l -14.5021,-37.6146 h -58.6878 l -14.50201,37.6146 z m 43.95923,-56.6485 h 50.7571 l -25.37857,-66.84523 z"
           id="path1321" />
        <path
           d="M 1072.5706,881.25055 V 735.32402 h 25.3785 l 46.2252,94.48969 45.9986,-94.48969 h 25.3785 v 145.92653 h -24.4721 v -105.8194 l -39.4274,80.66747 h -14.9552 l -39.6539,-80.66747 v 105.8194 z"
           id="path1323" />
        <path
           d="m 1239.797,881.25055 55.7421,-145.92653 h 27.6445 l 55.2889,145.92653 h -25.3785 l -14.502,-37.6146 h -58.6879 l -14.502,37.6146 z m 43.9592,-56.6485 h 50.7571 l -25.3786,-66.84523 z"
           id="path1325" />
        <path
           d="M 1394.7875,881.25055 V 868.1081 l 78.4016,-112.61722 h -74.5495 v -20.16686 h 106.2726 v 15.18179 l -77.7217,111.71084 h 78.8547 v 19.0339 z"
           id="path1327" />
        <path
           d="M 1521.6805,881.25055 V 868.1081 l 78.4015,-112.61722 h -74.5494 v -20.16686 h 106.2726 v 15.18179 l -77.7218,111.71084 h 78.8547 v 19.0339 z"
           id="path1329" />
        <path
           d="M 1656.5041,881.25055 V 735.32402 h 24.6988 v 145.92653 z"
           id="path1331" />
        <path
           d="M 1709.7539,881.25055 V 735.32402 h 21.753 l 76.1356,107.40555 V 735.32402 h 24.4721 v 145.92653 h -21.753 l -75.909,-107.17896 v 107.17896 z"
           id="path1333" />
        <path
           d="M 1860.8921,881.25055 V 735.32402 h 24.6987 v 145.92653 z"
           id="path1335" />
      </g>
      <g
         aria-label="SALUD"
         id="text763"
         style="font-size:107px;font-family:Kanit, Kanit_MSFontService, sans-serif;display:inline;fill:#015e66"
         inkscape:label="SALUD">
        <path
           d="m 831.00132,1022.2225 q -13.375,0 -21.507,-3.424 v -10.272 q 4.601,1.712 9.844,2.782 5.35,1.07 10.593,1.07 8.239,0 12.305,-1.926 4.173,-1.926 4.173,-7.704 0,-3.53097 -1.712,-5.67097 -1.712,-2.14 -5.671,-3.638 -3.959,-1.605 -10.914,-3.317 -11.128,-2.889 -15.622,-7.276 -4.494,-4.494 -4.494,-12.305 0,-9.095 6.634,-14.231 6.634,-5.136 19.795,-5.136 5.992,0 11.235,0.856 5.35,0.856 8.346,1.926 v 10.272 q -8.132,-3.103 -17.976,-3.103 -7.704,0 -11.984,2.033 -4.28,2.033 -4.28,7.383 0,3.103 1.498,5.029 1.498,1.926 5.136,3.317 3.745,1.391 10.272,3.103 8.453,2.14 13.054,5.136 4.708,2.889 6.527,6.848 1.926,3.852 1.926,8.77397 0,9.095 -6.741,14.338 -6.741,5.136 -20.437,5.136 z"
           id="path1356" />
        <path
           id="path1566"
           inkscape:label="A"
           d="m 887.92503,952.24479 -26.32227,68.90821 h 10.55078 l 17.60742,-46.24219 4.58399,-12.07422 11.98437,31.5664 h -14.44921 l -1.87305,8.98831 h 18.24805 l 6.84765,17.7617 h 11.98438 l -26.10743,-68.90821 z" />
        <path
           d="m 938.53641,1021.1525 v -68.90797 h 11.663 v 59.91997 h 35.31 v 8.988 z"
           id="path1360" />
        <path
           d="m 1024.1364,1022.2225 q -14.231,0 -22.149,-6.848 -7.81103,-6.848 -7.81103,-19.79497 v -43.335 h 11.66303 v 42.907 q 0,8.66697 4.708,12.94697 4.815,4.28 13.589,4.28 8.667,0 13.375,-4.28 4.815,-4.28 4.815,-12.94697 v -42.907 h 11.556 v 43.335 q 0,12.94697 -7.811,19.79497 -7.811,6.848 -21.935,6.848 z"
           id="path1362" />
        <path
           d="m 1066.8293,1021.1525 v -68.90797 h 27.927 q 15.301,0 22.684,8.132 7.383,8.025 7.383,26.75 0,17.65497 -7.276,25.89397 -7.276,8.132 -22.791,8.132 z m 11.663,-8.988 h 14.445 q 6.741,0 11.235,-1.926 4.494,-2.033 6.741,-7.49 2.247,-5.45697 2.247,-15.62197 0,-10.165 -2.033,-15.729 -2.033,-5.564 -6.527,-7.811 -4.387,-2.247 -11.663,-2.247 h -14.445 z"
           id="path1364" />
      </g>
      <g
         aria-label="Y"
         id="text765"
         style="font-size:107px;font-family:Kanit, Kanit_MSFontService, sans-serif;display:inline;fill:#015e66"
         inkscape:label="Y">
        <path
           d="m 1188.0463,1021.1525 v -25.57297 l -24.717,-43.335 h 12.091 l 18.404,33.491 18.404,-33.491 h 12.091 l -24.717,43.335 v 25.57297 z"
           id="path1377" />
      </g>
      <g
         aria-label="TRABAJ"
         id="text767"
         style="font-size:107px;font-family:Kanit, Kanit_MSFontService, sans-serif;display:inline;fill:#015e66"
         inkscape:label="TRABAJO">
        <path
           d="m 1277.8383,1021.1525 v -59.81297 h -22.042 v -9.095 h 55.64 v 9.095 h -21.935 v 59.81297 z"
           id="path1382" />
        <path
           d="m 1320.7454,1021.1525 v -68.90797 h 31.672 q 11.556,0 16.799,5.992 5.35,5.885 5.35,16.05 0,7.276 -3.638,12.412 -3.638,5.136 -10.486,7.169 1.926,1.391 2.996,2.996 1.07,1.605 2.14,4.27997 l 8.667,20.009 h -11.984 l -8.453,-19.26 q -1.177,-2.78197 -2.889,-3.95897 -1.605,-1.177 -5.564,-1.177 h -12.947 v 24.39597 z m 11.663,-33.81197 h 16.906 q 6.313,0 9.951,-3.103 3.638,-3.103 3.638,-9.951 0,-12.947 -12.519,-12.947 h -17.976 z"
           id="path1384" />
        <path
           id="path1563"
           inkscape:label="A"
           d="m 1405.4895,952.24479 -26.3223,68.90821 h 10.5254 l 22.2188,-58.34962 -0.025,0.0918 0.023,-0.0586 11.9844,31.5664 h -14.4649 l -1.873,8.98832 h 18.2637 l 6.8476,17.7617 h 11.9844 l -26.1074,-68.90822 z" />
        <path
           id="path1627"
           inkscape:label="B"
           d="m 1456.1008,952.24479 v 68.90821 h 34.8809 c 6.9906,0 12.2692,-1.6406 15.8359,-4.9219 3.638,-3.2813 5.457,-8.2751 5.457,-14.9805 0,-4.63659 -0.9987,-8.13228 -2.996,-10.48628 -1.926,-2.42533 -4.5654,-4.10196 -7.918,-5.0293 2.4966,-1.28399 4.4942,-3.17325 5.9922,-5.66992 1.498,-2.56799 2.248,-5.70668 2.248,-9.41601 0,-5.84933 -1.6405,-10.37985 -4.9219,-13.58985 -3.2813,-3.20999 -8.3473,-4.81445 -15.1953,-4.81445 z m 11.6621,8.77344 h 18.8321 c 4.708,0 7.9188,0.89245 9.6308,2.67578 1.712,1.712 2.5684,4.3513 2.5684,7.91797 0,3.06733 -0.8564,5.52815 -2.5684,7.38281 -1.6406,1.78333 -4.4224,2.67383 -8.3457,2.67383 h -9.4414 v 8.56055 h 8.9063 c 4.9933,0 8.4168,0.89245 10.2714,2.67578 1.926,1.71199 2.8887,4.35132 2.8887,7.91795 0,4.3513 -0.9627,7.4179 -2.8887,9.2012 -1.926,1.712 -4.9583,2.5683 -9.0957,2.5683 h -20.7578 v -21.97066 h -0.01 v -9.38867 h 0.01 z" />
        <path
           id="path1560"
           style="font-size:107px;font-family:Kanit, Kanit_MSFontService, sans-serif;display:inline;fill:#015e66"
           inkscape:label="A"
           d="m 1544.1614,952.24479 -26.3223,68.90821 h 10.5664 l 12.6406,-33.19532 9.5352,-25.12109 11.9844,31.5664 h -14.4688 l -1.873,8.98831 h 18.2675 l 6.8477,17.7617 h 11.9844 l -26.1074,-68.90821 z"
           transform="translate(-4.8031495e-6)" />
        <path
           d="m 1605.4726,1022.2225 q -8.774,0 -14.98,-2.461 v -9.844 q 2.568,1.07 5.992,1.819 3.531,0.642 6.955,0.642 7.169,0 9.951,-2.889 2.889,-2.996 2.889,-9.52297 v -47.722 h 11.663 v 49.64797 q 0,9.844 -5.671,15.087 -5.564,5.243 -16.799,5.243 z"
           id="path1392" />
        <path
           d="m 1678.7983,1022.2225 q -16.371,0 -24.503,-8.56 -8.132,-8.667 -8.132,-26.74997 0,-18.832 8.132,-27.285 8.132,-8.453 24.503,-8.453 16.478,0 24.503,8.453 8.132,8.453 8.132,27.285 0,18.08297 -8.132,26.74997 -8.025,8.56 -24.503,8.56 z m 0,-9.844 q 10.807,0 15.836,-5.885 5.136,-5.992 5.136,-19.58097 0,-14.338 -5.136,-20.009 -5.029,-5.778 -15.836,-5.778 -10.7,0 -15.836,5.778 -5.029,5.671 -5.029,20.009 0,13.58897 5.029,19.58097 5.136,5.885 15.836,5.885 z"
           id="path1407"
           style="font-size:107px;font-family:Kanit, Kanit_MSFontService, sans-serif;fill:#015e66"
           transform="translate(-4.8031495e-6)" />
      </g>
    </g>
  </g>
</svg>
