<?xml version="1.0" encoding="UTF-8" standalone="no"?>
<!-- Created with Inkscape (http://www.inkscape.org/) -->

<svg
   width="1703.3871mm"
   height="1377.95mm"
   viewBox="0 0 1703.3871 1377.95"
   version="1.1"
   id="svg5"
   xmlns="http://www.w3.org/2000/svg"
   xmlns:svg="http://www.w3.org/2000/svg">
  <defs
     id="defs2">
    <clipPath
       id="clip0-0">
      <rect
         x="-586"
         y="-979"
         width="6438"
         height="5208"
         id="rect2976" />
    </clipPath>
  </defs>
  <g
     id="layer1"
     transform="translate(718.27425,552.7169)">
    <g
       clip-path="url(#clip0-0)"
       transform="matrix(0.26458333,0,0,0.26458333,-563.22839,-293.68985)"
       id="g3377">
      <path
         d="M -577.854,478.478 C -531.195,82.8182 -161.48,-720.536 682.505,-876.05 c 960.245,-176.94 1078.285,498.024 1749.365,315.886 326.59,-88.638 575.48,-479.976 1034.69,-410.652 1129.13,170.447 1241.51,1346.01 1354.7,1716.317 96.22,314.819 575.67,748.209 786.68,1091.289 248.64,404.28 466.01,1331.66 -192.01,2326.21 H 8.82452 C -32.954,3651.77 -437.557,3055.91 -522.853,2588.17 -608.799,2116.87 -342.02,1696.52 -362.85,1335.16 -374.192,1138.38 -634.882,962.068 -577.854,478.478 Z"
         fill="#f3fbf9"
         fill-rule="evenodd"
         id="path2981" />
      <path
         d="m -548,4147.5 c 0,-45.01 1355.906,-81.5 3028.5,-81.5 1672.59,0 3028.5,36.49 3028.5,81.5 0,45.01 -1355.91,81.5 -3028.5,81.5 C 807.906,4229 -548,4192.51 -548,4147.5 Z"
         fill="#a6c7d8"
         fill-rule="evenodd"
         id="path2983" />
      <rect
         x="2477"
         y="528"
         width="462"
         height="351"
         fill="#d7f3ef"
         id="rect2985" />
      <rect
         x="2949"
         y="528"
         width="424"
         height="351"
         fill="#d7f3ef"
         id="rect2987" />
      <rect
         x="3384"
         y="526"
         width="488"
         height="351"
         fill="#d7f3ef"
         id="rect2989" />
      <path
         d="M 4103,158.204 C 4103,128.268 4127.27,104 4157.2,104 h 787.6 c 29.93,0 54.2,24.268 54.2,54.204 v 688.592 c 0,29.936 -24.27,54.204 -54.2,54.204 h -787.6 c -29.93,0 -54.2,-24.268 -54.2,-54.204 z"
         fill="#d7f3ef"
         fill-rule="evenodd"
         id="path2991" />
      <path
         d="m 4249,502.5 c 0,-167.066 135.21,-302.5 302,-302.5 166.79,0 302,135.434 302,302.5 0,167.066 -135.21,302.5 -302,302.5 -166.79,0 -302,-135.434 -302,-302.5 z"
         fill="#87dad0"
         fill-rule="evenodd"
         id="path2993" />
      <path
         d="m 4303,502.5 c 0,-136.69 111.03,-247.5 248,-247.5 136.97,0 248,110.81 248,247.5 0,136.69 -111.03,247.5 -248,247.5 -136.97,0 -248,-110.81 -248,-247.5 z"
         fill="#ffffff"
         fill-rule="evenodd"
         id="path2995" />
      <path
         d="m 4536,502.543 c 0,-7.985 6.51,-14.458 14.54,-14.458 L 4705,348 c 0,4.819 -139.91,149.724 -139.91,154.543 0,7.984 -6.51,14.457 -14.55,14.457 -8.03,0 -14.54,-6.473 -14.54,-14.457 z"
         fill="#87dad0"
         fill-rule="evenodd"
         id="path2997" />
      <rect
         x="2545"
         y="674"
         width="326"
         height="146"
         fill="#87dad0"
         id="rect2999" />
      <rect
         x="2545"
         y="591"
         width="326"
         height="83"
         fill="#ffffff"
         id="rect3001" />
      <rect
         x="3000"
         y="723"
         width="325"
         height="124"
         fill="#ffffff"
         id="rect3003" />
      <rect
         x="2998"
         y="577"
         width="326"
         height="124"
         fill="#b9f5db"
         id="rect3005" />
      <rect
         x="3387"
         y="1971"
         width="1412"
         height="125"
         fill="#87dad0"
         id="rect3007" />
      <rect
         x="3390"
         y="1064"
         width="1412"
         height="907"
         fill="#ecf2fa"
         id="rect3009" />
      <rect
         x="3608"
         y="1201"
         width="1059"
         height="770"
         fill="#afe6e0"
         id="rect3011" />
      <rect
         x="3628"
         y="1323"
         width="869"
         height="506"
         fill="#d0f8e7"
         id="rect3013" />
      <path
         d="m 4347.49,1388.95 c 0.17,-11.34 16.33,-12.68 15.5,0.5 l 1,99.05 c 0.16,15.85 42.32,69.71 63.48,104.56 2.83,4.01 -6.33,10.51 -11,4.51 -20.66,-31.86 -57.81,-83.72 -61.98,-95.56 -4.83,12.34 -41.65,60.7 -62.48,91.05 -4.66,6.01 -15.33,1.5 -11,-6 22.16,-33.35 66.82,-87.72 66.48,-100.06 0.17,-31.02 1.34,-65.04 0,-98.05 z"
         fill="#afe6e0"
         fill-rule="evenodd"
         id="path3015" />
      <path
         d="m 3655,1434 c 0,-6.08 4.92,-11 11,-11 h 88 c 6.08,0 11,4.92 11,11 v 0 c 0,6.08 -4.92,11 -11,11 h -88 c -6.08,0 -11,-4.92 -11,-11 z"
         fill="#afe6e0"
         fill-rule="evenodd"
         id="path3017" />
      <path
         d="m 3818,1533.5 c 0,-5.8 4.7,-10.5 10.5,-10.5 h 279 c 5.8,0 10.5,4.7 10.5,10.5 v 0 c 0,5.8 -4.7,10.5 -10.5,10.5 h -279 c -5.8,0 -10.5,-4.7 -10.5,-10.5 z"
         fill="#afe6e0"
         fill-rule="evenodd"
         id="path3019" />
      <path
         d="m 3708,1617.5 c 0,-5.8 4.7,-10.5 10.5,-10.5 h 103 c 5.8,0 10.5,4.7 10.5,10.5 v 0 c 0,5.8 -4.7,10.5 -10.5,10.5 h -103 c -5.8,0 -10.5,-4.7 -10.5,-10.5 z"
         fill="#afe6e0"
         fill-rule="evenodd"
         id="path3021" />
      <path
         d="m 4354.72,1568 88.77,164.95 c 9.07,15.22 12.53,47.25 -15.99,48.05 h -134.36 c -29.59,-0.8 -28.79,-31.23 -19.19,-50.45 z"
         fill="#b9f5db"
         fill-rule="evenodd"
         id="path3023" />
      <rect
         x="4524"
         y="1306"
         width="116"
         height="523"
         fill="#d0f8e7"
         id="rect3025" />
      <rect
         x="3628"
         y="1223"
         width="869"
         height="83"
         fill="#d0f8e7"
         id="rect3027" />
      <rect
         x="4524"
         y="1201"
         width="143"
         height="105"
         fill="#87dad0"
         id="rect3029" />
      <rect
         x="922"
         y="276"
         width="134"
         height="227"
         fill="#d9e4f5"
         id="rect3031" />
      <rect
         x="-11"
         y="503"
         width="1357"
         height="88"
         fill="#d9e4f5"
         id="rect3033" />
      <rect
         x="9"
         y="591"
         width="1134"
         height="239"
         fill="#afe6e0"
         id="rect3035" />
      <rect
         x="180"
         y="-63"
         width="135"
         height="566"
         fill="#afe6e0"
         id="rect3037" />
      <rect
         x="315"
         y="-184"
         width="607"
         height="687"
         fill="#d7f3ef"
         id="rect3039" />
      <rect
         x="357"
         y="-184"
         width="134"
         height="629"
         fill="#ffffff"
         id="rect3041" />
      <rect
         x="533"
         y="-184"
         width="134"
         height="629"
         fill="#ffffff"
         id="rect3043" />
      <rect
         x="709"
         y="-184"
         width="135"
         height="629"
         fill="#ffffff"
         id="rect3045" />
      <rect
         x="1019"
         y="901"
         width="294"
         height="352"
         fill="#87dad0"
         id="rect3047" />
      <rect
         x="1035"
         y="918"
         width="259"
         height="73"
         fill="#ffffff"
         id="rect3049" />
      <rect
         x="1036"
         y="1018"
         width="258"
         height="216"
         fill="#ffffff"
         id="rect3051" />
      <rect
         x="374"
         y="901"
         width="272"
         height="352"
         fill="#c3dae5"
         id="rect3053" />
      <rect
         x="642"
         y="901"
         width="286"
         height="352"
         fill="#a6c7d8"
         id="rect3055" />
      <rect
         x="928"
         y="918"
         width="63"
         height="335"
         fill="#c3dae5"
         id="rect3057" />
      <rect
         x="699"
         y="941"
         width="176"
         height="43"
         fill="#ffffff"
         id="rect3059" />
      <rect
         x="699"
         y="1050"
         width="176"
         height="173"
         fill="#ffffff"
         id="rect3061" />
      <rect
         x="414"
         y="941"
         width="176"
         height="43"
         fill="#ffffff"
         id="rect3063" />
      <rect
         x="414"
         y="1050"
         width="176"
         height="173"
         fill="#ffffff"
         id="rect3065" />
      <rect
         x="-11"
         y="1253"
         width="1357"
         height="88"
         fill="#d9e4f5"
         id="rect3067" />
      <rect
         x="261"
         y="902"
         width="98"
         height="351"
         fill="#87dad0"
         id="rect3069" />
      <path
         d="m 194,1027.68 c 86.878,-191.741 93.305,-180.854 95.078,-23.33 103.279,-57.542 66.267,-37.767 42.553,27.33 l -1.995,75.32 -67.818,10 z"
         fill="#1d5f57"
         fill-rule="evenodd"
         id="path3071" />
      <path
         d="m 159.1,1131.01 c -11.671,-30.95 -91.3666,-94.53 -35.013,-92.86 -47.1279,-65.135 -49.5733,-98.31 -6.002,-59.587 -31.0112,-162.105 46.684,-69.901 87.032,41.607 20.007,5.99 36.013,3.33 54.02,35.95 7.669,-9.21 24.008,-35.73 25.009,40.28 18.006,-34.07 50.685,-70.79 77.361,-104.856 77.028,-105.517 86.032,-41.94 15.673,101.526 l -31.012,34.95 -79.029,12.98 z"
         fill="#2c8e82"
         fill-rule="evenodd"
         id="path3073" />
      <rect
         x="2"
         y="1126"
         width="349"
         height="127"
         fill="#6aa2be"
         id="rect3075" />
      <rect
         x="9"
         y="1340"
         width="1134"
         height="245"
         fill="#afe6e0"
         id="rect3077" />
      <rect
         x="-92"
         y="1443"
         width="496"
         height="507"
         fill="#8aeec3"
         id="rect3079" />
      <rect
         x="-2"
         y="1518"
         width="331"
         height="88"
         fill="#ffffff"
         id="rect3081" />
      <rect
         x="-2"
         y="1637"
         width="331"
         height="270"
         fill="#ffffff"
         id="rect3083" />
      <rect
         x="-11"
         y="1949"
         width="1357"
         height="88"
         fill="#d9e4f5"
         id="rect3085" />
      <path
         d="M -124,2854.5 50,2717 v 1280 h -174 z"
         fill="#87dad0"
         fill-rule="evenodd"
         id="path3087" />
      <rect
         x="9"
         y="2037"
         width="1225"
         height="245"
         fill="#afe6e0"
         id="rect3089" />
      <path
         d="m 337,2400.04 c 10.333,-346.85 -86.333,-280.88 -104,-35.98 L 358,2511 Z"
         fill="#2c8e82"
         fill-rule="evenodd"
         id="path3091" />
      <path
         d="m 301,2441.93 66.014,78.07 76.017,-15.97 c 115.358,-191.67 89.686,-229.61 -47.01,-53.91 34.54,-131.97 53.678,-278.32 -95.021,-8.19 z"
         fill="#1d5f57"
         fill-rule="evenodd"
         id="path3093" />
      <path
         d="m 373,2511.05 -88.161,57.95 -44.08,-69.94 C 158.61,2398.15 84.4746,2171.35 373,2511.05 Z"
         fill="#2c8e82"
         fill-rule="evenodd"
         id="path3095" />
      <rect
         x="102"
         y="2558"
         width="155"
         height="125"
         fill="#6aa2be"
         id="rect3097" />
      <rect
         x="151"
         y="2520"
         width="91"
         height="38"
         fill="#a6c7d8"
         id="rect3099" />
      <rect
         x="426"
         y="2558"
         width="199"
         height="126"
         fill="#87dad0"
         id="rect3101" />
      <path
         d="m 455,2488 -25.859,195 H 244.859 L 219,2488 Z"
         fill="#ffffff"
         fill-rule="evenodd"
         id="path3103" />
      <rect
         x="618"
         y="2494"
         width="299"
         height="189"
         fill="#afe6e0"
         id="rect3105" />
      <rect
         x="642"
         y="2576"
         width="251"
         height="107"
         fill="#ffffff"
         id="rect3107" />
      <rect
         x="642"
         y="2511"
         width="251"
         height="52"
         fill="#ffffff"
         id="rect3109" />
      <rect
         x="24"
         y="2683"
         width="1061"
         height="88"
         fill="#d9e4f5"
         id="rect3111" />
      <rect
         x="46"
         y="2771"
         width="1017"
         height="1267"
         fill="#12355a"
         id="rect3113" />
      <rect
         x="96"
         y="2782"
         width="967"
         height="151"
         fill="#184678"
         id="rect3115" />
      <rect
         x="96"
         y="2947"
         width="967"
         height="266"
         fill="#184678"
         id="rect3117" />
      <rect
         x="96"
         y="3226"
         width="967"
         height="247"
         fill="#184678"
         id="rect3119" />
      <rect
         x="96"
         y="3486"
         width="967"
         height="247"
         fill="#184678"
         id="rect3121" />
      <rect
         x="96"
         y="3746"
         width="967"
         height="292"
         fill="#184678"
         id="rect3123" />
      <rect
         x="358"
         y="2958"
         width="446"
         height="61"
         fill="#ffffff"
         id="rect3125" />
      <rect
         x="358"
         y="3239"
         width="446"
         height="61"
         fill="#ffffff"
         id="rect3127" />
      <rect
         x="358"
         y="3498"
         width="446"
         height="61"
         fill="#ffffff"
         id="rect3129" />
      <rect
         x="358"
         y="3758"
         width="446"
         height="62"
         fill="#ffffff"
         id="rect3131" />
      <rect
         x="96"
         y="4038"
         width="967"
         height="85"
         fill="#437e9b"
         id="rect3133" />
      <rect
         x="46"
         y="4038"
         width="49"
         height="85"
         fill="#2d5467"
         id="rect3135" />
      <rect
         x="533"
         y="1701"
         width="311"
         height="249"
         fill="#d7f3ef"
         id="rect3137" />
      <rect
         x="476"
         y="1724"
         width="57"
         height="226"
         fill="#87dad0"
         id="rect3139" />
      <rect
         x="777"
         y="1523"
         width="457"
         height="427"
         fill="#d7f3ef"
         id="rect3141" />
      <rect
         x="563"
         y="1724"
         width="250"
         height="72"
         fill="#ffffff"
         id="rect3143" />
      <rect
         x="880"
         y="1621"
         width="263"
         height="294"
         fill="#a6c7d8"
         id="rect3145" />
      <path
         d="m 736,1561.5 c 0,-26.79 21.714,-48.5 48.5,-48.5 h 443 c 26.79,0 48.5,21.71 48.5,48.5 v 0 c 0,26.79 -21.71,48.5 -48.5,48.5 h -443 c -26.786,0 -48.5,-21.71 -48.5,-48.5 z"
         fill="#d7f3ef"
         fill-rule="evenodd"
         id="path3147" />
      <rect
         x="563"
         y="1820"
         width="250"
         height="106"
         fill="#ffffff"
         id="rect3149" />
      <rect
         x="880"
         y="1514"
         width="263"
         height="51"
         fill="#a6c7d8"
         id="rect3151" />
      <path
         d="m 2730,1288 -44,628 h 762 l 30,-680 z"
         fill="#3abeae"
         fill-rule="evenodd"
         id="path3153" />
      <path
         d="m 3416,1895.94 v 0 L 2709.65,1477 2671,1988 Z"
         fill="#2c8e82"
         fill-rule="evenodd"
         id="path3155" />
      <path
         d="m 1600,3085.98 h -270.17 c -72.71,-24.01 -72.04,-94.69 -66.04,-140.04 0.67,-221.38 7.6,-637.39 2,-664.15 -39.35,-188.04 -109.4,-377.42 -178.11,-530.79 -13.34,22.89 -18.68,37.79 -8,68.68 60.7,160.04 129.41,408.1 130.08,464.11 18.01,186.04 -20.01,444.1 -30.02,666.16 -8.01,135.36 65.37,218.71 156.1,218.05 l 258.16,-4 z"
         fill="#2d5467"
         fill-rule="evenodd"
         id="path3157" />
      <path
         d="m 1086,1756.19 c 68.73,150.51 166.23,439.5 174.24,547.59 l 4.56,517.22 210.05,-10.67 139.15,-569.89 c -43.97,-151.01 -103.93,-260.4 -155.9,-390.6 -21.41,-47.28 -54,-100.15 -121.76,-125.02 -65.45,-9.23 -127.7,-8.87 -196.35,-6.1 -20.39,-0.31 -35.99,20.98 -53.99,37.47 z"
         fill="#184678"
         fill-rule="evenodd"
         id="path3159" />
      <path
         d="m 1231.06,1845.55 c -27.69,-71.51 33.14,-46.33 60.96,1.52 73.79,126.93 131.87,259.37 149.36,402.38 17.49,143.02 5.78,311.76 -44.43,455.73 -20.32,58.28 -56.11,71.72 -56.16,-7.62 -0.05,-78.23 28.54,-307.97 3.05,-458.78 -11.73,-69.37 -73.26,-291.16 -112.78,-393.23 z"
         fill="#437e9b"
         fill-rule="evenodd"
         id="path3161" />
      <path
         d="m 1360,3011.5 c 0,-40.59 32.91,-73.5 73.5,-73.5 h 991 c 40.59,0 73.5,32.91 73.5,73.5 v 0 c 0,40.59 -32.91,73.5 -73.5,73.5 h -991 c -40.59,0 -73.5,-32.91 -73.5,-73.5 z"
         fill="#184678"
         fill-rule="evenodd"
         id="path3163" />
      <path
         d="m 1157,4064 c 0,-31.48 25.3,-57 56.5,-57 31.2,0 56.5,25.52 56.5,57 0,31.48 -25.3,57 -56.5,57 -31.2,0 -56.5,-25.52 -56.5,-57 z"
         fill="#12355a"
         fill-rule="evenodd"
         id="path3165" />
      <path
         d="m 2108,4064 c 0,-31.48 25.3,-57 56.5,-57 31.2,0 56.5,25.52 56.5,57 0,31.48 -25.3,57 -56.5,57 -31.2,0 -56.5,-25.52 -56.5,-57 z"
         fill="#12355a"
         fill-rule="evenodd"
         id="path3167" />
      <path
         d="m 1207,4006.62 56,1.34 2.67,-78.7 542.66,-225.42 c -0.44,-147.61 -0.89,-295.23 -1.33,-442.84 l 145.33,46.68 v 392.16 l 361.34,182.73 192,176.07 5.33,62.69 -126.67,2.67 -1.33,-120.05 -70.67,-21.34 -44,98.71 -28,38.68 -76,1.33 v -116.04 l 49.34,1.33 -1.34,-70.69 -258.66,-134.72 -2.67,321.46 h -142.67 l 2.67,-321.46 -453.33,172.07 v 22.67 l -42.67,90.7 -30.67,36.02 H 1211 Z"
         fill="#12355a"
         fill-rule="evenodd"
         id="path3169" />
      <path
         d="m 2195.49,2555.1 46.48,-3.1 c 186.73,33.16 359.44,74.32 539.16,111.48 61.23,9.1 147.47,94.19 114.65,201.28 l -235.69,843.29 c -9.22,38.61 -43.46,56.22 -66.68,55.84 -18.77,50.21 -37.53,85.42 -32.28,150.63 6.91,36.94 30.82,55.87 86.76,89.81 l 176.62,71.22 c 39.31,12.48 35.6,12.97 32.89,46.45 l -344.85,-4.29 -131.14,-224.86 223.1,-1031.19 L 2180,2632.51 Z"
         fill="#0c233c"
         fill-rule="evenodd"
         id="path3171" />
      <path
         d="m 2182.03,2588 c 141.73,10.29 265.18,38.86 416.06,72 80.4,16.67 168.41,140 136.03,242 l -228.04,802 c -10.19,22.95 -38.67,44.38 -58.01,46 l -122.02,-14 c -22.96,-3.24 -53.53,-27.81 -46.01,-60 l 120.02,-730 c -142.21,2.76 -261.56,-3.62 -390.06,-42 z"
         fill="#12355a"
         fill-rule="evenodd"
         id="path3173" />
      <path
         d="m 2325.61,3700.81 88.34,-8.81 52.36,49.25 -23.58,120.51 c -12,66.73 -4,80.61 47.96,108.1 l 230.22,113.7 c 12.93,4.67 21.85,31.77 8.4,40.44 l -213.04,-2 -207.44,-112.11 c -33.44,-24.28 -58.89,-71.8 -51.56,-99.29 l 45.56,-198.18"
         fill="#12355a"
         fill-rule="evenodd"
         id="path3175" />
      <path
         d="m 1811.62,834.059 c -113.17,-2.666 -132.34,85.861 -133.4,215.901 -1.31,159.95 -54.25,269.66 -124.06,405.83 -51.9,101.22 25.23,259.99 81.37,275.21 L 1915,1363.16 c -19.34,-89.96 -11.34,-75.97 -29.35,-161.93"
         fill="#0c233c"
         fill-rule="evenodd"
         id="path3177" />
      <path
         d="m 1881.37,1324 -44.81,58.75 c -49.03,29.01 -99.58,67.15 -142.52,100.73 -28.05,27.34 -37.83,66.86 -41.51,115.53 -16.02,164.88 -10.71,316.04 41.81,579.97 19.6,109.64 46.82,156.78 104.49,191.74 l -133.72,244.97 -70.11,569.65 c 152.94,108.11 362.22,153.73 504.5,168.87 80.23,12.09 108.67,-38.3 106.66,-114.6 l -4.57,-588.57 c 3.6,-59.31 67.12,-120.56 101.19,-178.35 l 423.22,-2.28 c -58.13,-70.56 -12.55,-27.51 -74.98,-103.68 -121.83,-7.58 -171.96,-193.54 -262.64,-287.94 -73.01,-97.9 -40.93,-334.48 -115.46,-485.72 -56.43,-135.59 -163.12,-120.3 -208.89,-205.6 z"
         fill="#ffffff"
         fill-rule="evenodd"
         id="path3179" />
      <path
         d="m 1604.47,3191 84.34,-538.65 c 16.72,-58.68 116.45,-243.33 219.19,-314.01 -115.45,-77.2 -159.65,-19.61 -195.31,-165.62 -28.13,-115.19 -44.44,-309.67 -54.66,-500.5 -1.15,-46.08 -19.3,-107.15 41.56,-191.22 -63.12,45.98 -57.23,102.96 -63.34,179.94 -8.53,169.92 -7.05,435.82 -25.58,509.78 -53.09,182.61 -153.19,440.2 -159.27,547.84 -6.44,70.23 -9.88,78.48 19.68,117.73 l 71.44,89.77 c 23.01,35.38 -17,187.71 0,229.08 z"
         fill="#c6d7f1"
         fill-rule="evenodd"
         id="path3181" />
      <path
         d="m 1700,1479 c 34.67,-3 87.67,27.67 116,62 l 14,-4 c -25,-29 -62,-63.67 -119.33,-68 z"
         fill="#c6d7f1"
         fill-rule="evenodd"
         id="path3183" />
      <path
         d="m 1965.33,1845 -11.33,1.47 19.85,190.06 c 4.92,33 64.5,31.67 73.11,-7 0.74,-5.62 -8.59,-3.91 -8.85,0.14 -11.74,27.86 -51.98,24.73 -53.33,5.6 z"
         fill="#2d5467"
         fill-rule="evenodd"
         id="path3185" />
      <path
         d="M 11.9791,0 0,0.52751 19.7669,190.917 c 4.8972,33.056 64.2201,31.721 72.7902,-7.012 0.7346,-5.631 -8.5478,-3.917 -8.815,0.134 -11.6865,27.914 -51.7545,24.775 -53.0901,5.61 z"
         fill="#2d5467"
         fill-rule="evenodd"
         transform="matrix(-0.986412,0.164289,0.164289,0.986412,2103.43,1833.72)"
         id="path3187" />
      <path
         d="m 2238.94,2250 14.05,5 c 0.67,-328 -37.81,-481 -73.27,-714 L 2166,1526 c 43.38,245.33 76.73,423.67 72.94,724 z"
         fill="#c6d7f1"
         fill-rule="evenodd"
         id="path3189" />
      <path
         d="m 2230,1911 -1,-16.53 C 2172.33,1774.95 2073.17,1676.96 1999,1599 l 4,20.03 c 74.67,69.78 162.33,168.1 227,291.97 z"
         fill="#c6d7f1"
         fill-rule="evenodd"
         id="path3191" />
      <rect
         x="1631"
         y="2628"
         width="300"
         height="42"
         fill="#6aa2be"
         id="rect3193" />
      <path
         d="m 1843.97,1369 -25.97,19.32 c 109.54,79.94 153.82,155.23 182.13,321.78 -35.63,5.66 -56.61,45.3 -54.28,76.94 l 3.33,61.96 22.98,-2 c -0.11,-18.99 -0.22,-37.97 -0.34,-56.96 3.11,-70.73 106.77,-60.85 109.21,-0.33 l 6,50.3 22.97,-1 -5.99,-55.96 c -3,-36.31 -41.96,-72.62 -78.91,-74.95 -21.98,-164.55 -68.59,-269.81 -181.13,-339.1 z"
         fill="#12355a"
         fill-rule="evenodd"
         id="path3195" />
      <path
         d="m 2048.67,1420.68 c 65.79,54.68 201.6,174.72 235.38,330.1 -62.01,31.67 -29.19,133.09 36.68,128.04 59.55,-4.57 68.68,-127.26 -14.67,-132.04 -19.78,-149.61 -162.93,-287.2 -245.39,-352.78 l -20.67,5.33 z"
         fill="#12355a"
         fill-rule="evenodd"
         id="path3197" />
      <path
         d="m 2273.55,1817.94 c -3.85,-25.25 9.84,-48.28 30.59,-51.45 20.75,-3.16 40.69,14.75 44.54,39.99 3.85,25.25 -9.85,48.29 -30.6,51.45 -20.74,3.16 -40.68,-14.74 -44.53,-39.99 z"
         fill="#ffffff"
         fill-rule="evenodd"
         id="path3199" />
      <path
         d="m 1905.08,1343 160.15,158 -6,-189 59.05,-9 c 47.71,-8.33 49.38,-47.67 66.07,-82 30.36,-78 22.68,-122 19.01,-192 -2.33,-61.333 1.34,-104.667 2.01,-157 l -301.29,15 -85.08,154 37.04,126 z"
         fill="#e37e6e"
         fill-rule="evenodd"
         id="path3201" />
      <path
         d="m 1903.76,1333 c 8,-43.97 8,-112.93 3,-170.9 -47.52,-25.98 -69.51,-93.98 -36.01,-122.92 33.6,-29.03 64.02,11.49 80.02,73.95 4.34,-65.62 32.12,-84.07 61.02,-94.94 85.19,-32.048 94.36,-58.629 119.03,-99.937 80.69,36.144 111.72,7.496 126.04,-53.968 21.74,-93.319 -127.2,-136.75 -220.06,-126.922 -81,8.572 -220.9,14.902 -265.08,185.887 -37.92,146.73 10.83,223.36 121.03,406.75 z"
         fill="#12355a"
         fill-rule="evenodd"
         id="path3203" />
      <path
         d="m 2898.89,762.678 -43.95,17.347 -11.98,24.019 -39.96,760.586 7.99,32.03 15.98,9.34 496.79,-22.68 33.29,-9.34 14.65,-24.02 L 3405,869.428 3318.43,748 Z"
         fill="#d9e4f5"
         fill-rule="evenodd"
         id="path3205" />
      <path
         d="M 2890.67,1234.09 2888,1289 3314.67,1268.91 3316,1214 Z"
         fill="#ffffff"
         fill-rule="evenodd"
         id="path3207" />
      <path
         d="M 2909.66,867.333 2907,922 3333.25,902 c 0.14,-7.364 0.61,-14.729 0.75,-22.093 -45.87,0.698 -43.46,-7.938 -47.71,-29.907 z"
         fill="#ffffff"
         fill-rule="evenodd"
         id="path3209" />
      <path
         d="M 2877.67,1476.09 2875,1531 3301.67,1510.91 3303,1456 Z"
         fill="#ffffff"
         fill-rule="evenodd"
         id="path3211" />
      <path
         d="m 2883.67,1355.07 -2.67,54.93 308,-14.07 2,-55.93 z"
         fill="#ffffff"
         fill-rule="evenodd"
         id="path3213" />
      <path
         d="m 2896.67,1111.06 -2.67,54.94 224.67,-10.05 c 0.11,-18.65 0.22,-37.3 0.33,-55.95 z"
         fill="#ffffff"
         fill-rule="evenodd"
         id="path3215" />
      <path
         d="M 2904.67,992.056 2902,1047 l 224.67,-10.05 c 0.11,-18.65 0.22,-37.3 0.33,-55.95 z"
         fill="#ffffff"
         fill-rule="evenodd"
         id="path3217" />
      <path
         d="M 2890.67,1209.82 2888,1264 3314.67,1244.18 3316,1190 Z"
         fill="#a0bce7"
         fill-rule="evenodd"
         id="path3219" />
      <path
         d="M 2909.67,843.083 2907,898 3297,879.583 3298,825 Z"
         fill="#a0bce7"
         fill-rule="evenodd"
         id="path3221" />
      <path
         d="M 2877.67,1452.09 2875,1507 3301.67,1486.91 3303,1432 Z"
         fill="#a0bce7"
         fill-rule="evenodd"
         id="path3223" />
      <path
         d="m 2883.67,1330.07 -2.67,54.93 308,-14.07 2,-55.93 z"
         fill="#a0bce7"
         fill-rule="evenodd"
         id="path3225" />
      <path
         d="m 2896.67,1086.89 -2.67,54.11 224.67,-9.9 c 0.11,-18.37 0.22,-36.73 0.33,-55.1 z"
         fill="#a0bce7"
         fill-rule="evenodd"
         id="path3227" />
      <path
         d="M 2904.67,967.056 2902,1022 l 224.67,-10.05 c 0.11,-18.651 0.22,-37.3 0.33,-55.95 z"
         fill="#a0bce7"
         fill-rule="evenodd"
         id="path3229" />
      <path
         d="m 3314.99,732 -426.48,22.727 c -11.03,0.617 -51.31,6.832 -53.14,43.127 -6.92,137.439 -34.73,637.936 -40.32,774.346 -1.19,28.98 19.13,46.18 51.34,44.71 l 486.68,-26.25 c 23.89,-1.09 41.88,-16.96 43.78,-43.92 8.53,-121.31 32.25,-567.939 37.15,-681.238 l -16.85,1.442 c -6.98,111.485 -29.37,542.756 -35.64,664.936 -1.07,20.9 -6.98,39.66 -26.79,40.54 -162.65,7.16 -325.12,17.98 -487.68,26.97 -30.61,1.98 -35.07,-20.53 -34.64,-36.28 3.62,-131.81 33.27,-620.977 40.25,-754.871 0.97,-18.509 11.7,-31.939 34.57,-33.463 l 417.14,-24.146 z"
         fill="#12355a"
         fill-rule="evenodd"
         id="path3231" />
      <path
         d="m 3414,865.234 v 0 L 3322.21,732 l -16.65,0.505 -17.15,21.196 -6.05,109.009 c -1.81,20.082 2.63,31.269 25.22,31.29 l 102.89,-3.533 -0.82,-16.906 -97.53,3.785 c -8.83,0.799 -10.84,-3.701 -10.59,-14.636 l 6.05,-114.56 10.59,15.644 81.71,111.028 11.09,2.019 z"
         fill="#12355a"
         fill-rule="evenodd"
         id="path3233" />
      <path
         d="m 3161.01,1152 161.82,-5.57 c 2.4,-53.02 -20.83,-49.58 -55.28,-56.47 -15.62,-9.28 -20.69,-9.54 -38.45,0.8 -43.52,7.68 -68.63,16.17 -68.09,61.24 z"
         fill="#ffffff"
         fill-rule="evenodd"
         id="path3235" />
      <path
         d="m 3162.01,1128 161.82,-5.6 c 2.4,-53.32 -20.83,-49.85 -55.28,-56.78 -6.14,-11.47 2.14,-26.13 13.62,-35.99 15.22,-33.329 14.6,-87.479 -28.84,-85.582 -46.38,2.027 -47.26,58.122 -33.64,87.182 8.81,12.79 17.62,22.39 10.41,35.19 -43.52,7.73 -68.63,16.26 -68.09,61.58 z"
         fill="#a0bce7"
         fill-rule="evenodd"
         id="path3237" />
      <rect
         x="3118"
         y="2628"
         width="1149"
         height="1429"
         fill="#184678"
         id="rect3239" />
      <path
         d="m 2972.72,2440.99 c 117.91,-6.41 157.15,-23.46 237.72,-47.17 29.65,-14.13 39.31,-30.93 28.96,-62.37 l -38.1,-106.5 103.62,-31.95 115.82,25.86 42.67,121.71 c 24.38,67.77 -8.58,136.87 -118.87,135.41 H 2927 Z"
         fill="#d9e4f5"
         fill-rule="evenodd"
         id="path3241" />
      <path
         d="M 3200,2227.83 3240.06,2331 3427,2329.66 3390.95,2217.12 3302.82,2193 Z"
         fill="#a0bce7"
         fill-rule="evenodd"
         id="path3243" />
      <path
         d="M 2642.34,2062.43 3423,2029 l -4,188.57 -764.65,29.42 c -12.45,0.44 -24.91,-11.15 -25.35,-30.76 z"
         fill="#c6d7f1"
         fill-rule="evenodd"
         id="path3245" />
      <path
         d="m 3416,2215.67 93,1.33 -3.99,-178.36 -86.35,-18.64 c -0.45,58.12 -2.22,137.54 -2.66,195.67 z"
         fill="#d9e4f5"
         fill-rule="evenodd"
         id="path3247" />
      <path
         d="M 2686.66,1917.51 3431.67,1891 3437,1978.49 2668,2005 Z"
         fill="#ffffff"
         fill-rule="evenodd"
         id="path3249" />
      <path
         d="m 2747.98,1313.4 692.37,-45.35 -33.33,677.35 -709.69,26.68 c 0,-35.05 50.65,-623.63 50.65,-658.68 z M 2644,2078 c 23.73,-360.84 42.68,-606.44 51.74,-769.88 9.07,-79.41 34.55,-71.4 70.66,-76.03 l 700.61,-45.09 71.99,45.11 -31.13,820.31 c -44.96,-8.9 -41.93,-8.46 -80.23,-13.36 z"
         fill="#12355a"
         fill-rule="evenodd"
         id="path3251" />
      <path
         d="m 3011.41,2132.3 17.66,21.53 -20.07,12.76 c 3.21,9.84 20.33,24.43 39.34,7.98 12.6,-10.91 12.01,-26.25 3.21,-43.86 -5.31,-10.63 -26.76,-20.61 -40.14,1.59 z"
         fill="#12355a"
         fill-rule="evenodd"
         id="path3253" />
      <rect
         x="1954"
         y="2474"
         width="1393"
         height="87"
         fill="#5285d3"
         id="rect3255" />
      <path
         d="m 2587.56,2475 c -59.21,-5.31 -31.43,-21.84 33.33,-31.84 129.54,0 221.75,-17.43 355.29,-28.16 16.47,0 29.82,13.43 29.82,30 v 0 c 0,16.57 -13.35,30 -29.82,30 z"
         fill="#a0bce7"
         fill-rule="evenodd"
         id="path3257" />
      <path
         d="M 3711.29,2112.7 C 3724.43,1670.97 3601.47,1754.99 3579,2066.87 L 3738,2254 Z"
         fill="#2c8e82"
         fill-rule="evenodd"
         id="path3259" />
      <path
         d="m 3665,2165.55 84.13,99.45 96.88,-20.35 c 147.01,-244.17 114.29,-292.5 -59.91,-68.67 44.02,-168.13 68.4,-354.56 -121.1,-10.43 z"
         fill="#1d5f57"
         fill-rule="evenodd"
         id="path3261" />
      <path
         d="m 3757,2253.98 -112.13,74.02 -56.06,-89.33 c -104.48,-128.9 -198.77,-418.59 168.19,15.31 z"
         fill="#2c8e82"
         fill-rule="evenodd"
         id="path3263" />
      <path
         d="m 3861,2225 -32.89,248 H 3593.89 L 3561,2225 Z"
         fill="#d9e4f5"
         fill-rule="evenodd"
         id="path3265" />
      <path
         d="m 4519.7,2266.93 c -150.45,-158.93 -53.86,-110.85 13.36,-108.18 -3.12,-289.37 -0.89,-246.19 118.85,-22.71 123.3,-174.06 97.03,-64.99 68.1,2.67 121.08,-95.71 135.32,-52.53 -9.35,129.55 l -78.78,42.74 z"
         fill="#2c8e82"
         fill-rule="evenodd"
         id="path3267" />
      <path
         d="m 4417.47,2272.04 c 84.08,-197.6 141.46,-372.55 -8,-165.19 6.22,-304.61 -3.56,-366.78 -153.47,-10.65 l 4,182.5 90.75,37.3 z"
         fill="#1d5f57"
         fill-rule="evenodd"
         id="path3269" />
      <path
         d="m 4201.25,2285.02 c -97.85,-163.87 -151.66,-242.48 -9.34,-183.85 -153.44,-404.13 57.38,-224.72 120.09,174.53 l -57.38,37.3 z"
         fill="#2c8e82"
         fill-rule="evenodd"
         id="path3271" />
      <rect
         x="4017"
         y="2267"
         width="522"
         height="206"
         fill="#437e9b"
         id="rect3273" />
      <rect
         x="4539"
         y="2267"
         width="176"
         height="206"
         fill="#5285d3"
         id="rect3275" />
      <rect
         x="3347"
         y="2475"
         width="88"
         height="87"
         fill="#a0bce7"
         id="rect3277" />
      <rect
         x="3435"
         y="2475"
         width="766"
         height="87"
         fill="#c6d7f1"
         id="rect3279" />
      <rect
         x="3142"
         y="2560"
         width="1059"
         height="92"
         fill="#437e9b"
         id="rect3281" />
      <rect
         x="3142"
         y="4033"
         width="1059"
         height="87"
         fill="#437e9b"
         id="rect3283" />
      <rect
         x="4201"
         y="2473"
         width="710"
         height="1648"
         fill="#c6d7f1"
         id="rect3285" />
      <rect
         x="3352"
         y="2591"
         width="83"
         height="1529"
         fill="#a0bce7"
         id="rect3287" />
      <rect
         x="2932"
         y="2560"
         width="83"
         height="1560"
         fill="#a6c7d8"
         id="rect3289" />
      <rect
         x="3013"
         y="2560"
         width="129"
         height="1562"
         fill="#2c8e82"
         id="rect3291" />
      <path
         d="m 2161.16,-181.11 c -26.51,3.144 -65.43,18.865 -67.15,56.594 l -27.9,533.45 c -1.37,26.201 9.65,45.066 36.16,45.066 l 897.82,-45.066 c 25.14,-1.746 58.54,-27.598 56.82,-55.545 l 29.96,-571.18 c 2.41,-28.996 -29.27,-45.415 -57.86,-42.97 z"
         fill="#437e9b"
         fill-rule="evenodd"
         id="path3293" />
      <path
         d="m 2173.09,-170.797 c -25.66,2.999 -63.32,17.994 -64.99,53.982 l -26.99,508.829 c -1.33,24.992 9.33,42.986 34.99,42.986 l 868.79,-42.986 c 24.33,-1.666 56.66,-26.324 54.99,-52.982 l 28.99,-544.817 c 2.34,-27.658 -28.32,-43.319 -55.98,-40.987 z"
         fill="#c6d7f1"
         fill-rule="evenodd"
         id="path3295" />
      <path
         d="m 2998,-105 -24,412 -815,48 216,-199 106,108 242,-241 83,65 z"
         fill="#a0bce7"
         fill-rule="evenodd"
         id="path3297" />
      <path
         d="m 2137,351 15,16 222,-201 107,113 242,-245 82,69 197,-208 -13,-12 L 2807,75 2724,7.99999 2485,251 2377,139 Z"
         fill="#0c233c"
         fill-rule="evenodd"
         id="path3299" />
      <path
         d="m -313.128,1563 19.544,33.5 37.584,22.25 -36.331,20.75 -19.794,32.5 -21.799,-34.5 -34.076,-18.5 38.586,-20.25 z"
         fill="#d9e4f5"
         fill-rule="evenodd"
         id="path3301" />
      <path
         d="m -319.999,1468.04 0.256,90.8 c -0.256,27.57 35.844,66.88 72.969,68.16 l 66.055,-0.51 c 9.881,-0.26 13.347,-17.8 -0.256,-18.31 h -65.028 c -29.387,-2.07 -53.976,-28.72 -54.431,-49.43 -0.227,-30.29 -0.452,-60 -0.68,-90.3 0.171,-13.67 -19.055,-14.06 -18.885,-0.41 z"
         fill="#437e9b"
         fill-rule="evenodd"
         id="path3303" />
      <path
         d="M 0.00117472,10.0373 0.255555,100.837 C 0.00128151,128.408 35.8575,167.724 72.731,169 l 65.609,-0.511 c 9.814,-0.255 13.256,-17.798 -0.254,-18.306 L 73.4966,150.18 C 44.3087,148.11 19.8862,121.459 19.4342,100.752 19.2081,70.4567 18.9847,40.7493 18.7587,10.4545 18.9281,-3.2179 -0.168305,-3.60665 0.00117472,10.0373 Z"
         fill="#437e9b"
         fill-rule="evenodd"
         transform="matrix(-1,0,0,1,-302,1458)"
         id="path3305" />
      <path
         d="m -302.001,1765.96 -0.255,-90.8 c 0.255,-27.57 -35.602,-66.88 -72.475,-68.16 l -65.609,0.51 c -9.814,0.26 -13.256,17.8 0.254,18.31 h 64.589 c 29.188,2.07 53.611,28.72 54.063,49.43 0.226,30.29 0.449,60 0.675,90.3 -0.169,13.67 18.927,14.06 18.758,0.41 z"
         fill="#437e9b"
         fill-rule="evenodd"
         id="path3307" />
      <path
         d="M 0.00118271,10.0373 0.257293,100.837 C 0.00129023,128.408 36.1015,167.724 73.2258,169 l 66.0552,-0.511 c 9.881,-0.255 13.347,-17.798 -0.256,-18.306 L 73.9966,150.18 C 44.6101,148.11 20.0214,121.459 19.5664,100.752 19.3388,70.4567 19.1139,40.7493 18.8863,10.4545 19.0569,-3.2179 -0.16945,-3.60665 0.00118271,10.0373 Z"
         fill="#437e9b"
         fill-rule="evenodd"
         transform="matrix(1,0,0,-1,-320,1776)"
         id="path3309" />
      <path
         d="m 901.671,-335 23.034,39.34 44.295,26.128 -42.819,24.367 -23.329,38.165 -25.691,-40.514 -40.161,-21.725 45.477,-23.779 z"
         fill="#d9e4f5"
         fill-rule="evenodd"
         id="path3311" />
      <path
         d="m 894.001,-447.24 0.301,106.38 c -0.3,32.303 42.142,78.365 85.788,79.86 l 77.66,-0.598 c 11.62,-0.299 15.69,-20.853 -0.3,-21.448 l -76.454,-0.003 c -34.549,-2.426 -63.457,-33.65 -63.992,-57.911 -0.268,-35.493 -0.532,-70.298 -0.8,-105.792 0.201,-16.018 -22.403,-16.474 -22.203,-0.488 z"
         fill="#437e9b"
         fill-rule="evenodd"
         id="path3313" />
      <path
         d="M 0.00138249,11.7597 0.300755,118.14 C 0.00150817,150.443 42.1997,196.505 85.595,198 l 77.214,-0.598 c 11.549,-0.299 15.6,-20.853 -0.3,-21.448 L 86.496,175.951 C 52.1456,173.525 23.4035,142.301 22.8716,118.04 22.6055,82.5469 22.3426,47.7418 22.0765,12.2484 22.276,-3.77009 -0.198073,-4.22554 0.00138249,11.7597 Z"
         fill="#437e9b"
         fill-rule="evenodd"
         transform="matrix(-1,0,0,1,915,-459)"
         id="path3315" />
      <path
         d="m 914.999,-96.7597 -0.3,-106.3803 c 0.299,-32.303 -41.899,-78.365 -85.294,-79.86 l -77.214,0.598 c -11.549,0.299 -15.6,20.853 0.3,21.448 l 76.013,0.003 c 34.35,2.426 63.093,33.65 63.624,57.911 0.267,35.493 0.529,70.298 0.795,105.7916 -0.199,16.0185 22.275,16.4739 22.076,0.4887 z"
         fill="#437e9b"
         fill-rule="evenodd"
         id="path3317" />
      <path
         d="M 0.00139048,11.7597 0.302493,118.14 C 0.00151689,150.443 42.4436,196.505 86.0897,198 l 77.6603,-0.598 c 11.616,-0.299 15.69,-20.853 -0.301,-21.448 L 86.996,175.951 C 52.447,173.525 23.5387,142.301 23.0038,118.04 22.7362,82.5469 22.4717,47.7418 22.2041,12.2484 22.4047,-3.77009 -0.199218,-4.22554 0.00139048,11.7597 Z"
         fill="#437e9b"
         fill-rule="evenodd"
         transform="matrix(1,0,0,-1,894,-85)"
         id="path3319" />
      <path
         d="m 3798.76,795.049 c 1.24,-22.763 21.47,-49.525 45.7,-50.287 L 4409.67,728 c 30.76,0.27 51.52,22.54 50.28,51.81 l -12.19,312.39 c 1.28,25.95 -20.42,53.9 -47.13,56.85 l -565.31,20.86 c -27.75,1.75 -51.51,-22.51 -50.27,-48.76 z"
         fill="#437e9b"
         fill-rule="evenodd"
         id="path3321" />
      <path
         d="m 4079,792 117,-3 -5,104 99,-2 -7,114 -98,3 -2,105 h -118 l 2,-103 -98,2 3,-114 102,-1 z"
         fill="#ffffff"
         fill-rule="evenodd"
         id="path3323" />
      <path
         d="m 4872.38,1585 19.37,33.5 37.25,22.25 -36.01,20.75 -19.61,32.5 -21.61,-34.5 -33.77,-18.5 38.24,-20.25 z"
         fill="#d9e4f5"
         fill-rule="evenodd"
         id="path3325" />
      <path
         d="m 4866,1490.04 0.26,90.8 c -0.26,27.57 35.6,66.88 72.47,68.16 l 65.61,-0.51 c 9.81,-0.26 13.26,-17.8 -0.25,-18.31 h -64.59 c -29.19,-2.07 -53.61,-28.72 -54.07,-49.43 -0.22,-30.29 -0.45,-60 -0.67,-90.3 0.17,-13.67 -18.93,-14.06 -18.76,-0.41 z"
         fill="#437e9b"
         fill-rule="evenodd"
         id="path3327" />
      <path
         d="M 0.00117472,10.0373 0.255555,100.837 C 0.00128151,128.408 35.8575,167.724 72.731,169 l 65.609,-0.511 c 9.814,-0.255 13.256,-17.798 -0.254,-18.306 L 73.4966,150.18 C 44.3087,148.11 19.8862,121.459 19.4342,100.752 19.2081,70.4567 18.9847,40.7493 18.7587,10.4545 18.9281,-3.2179 -0.168305,-3.60665 0.00117472,10.0373 Z"
         fill="#437e9b"
         fill-rule="evenodd"
         transform="matrix(-1,0,0,1,4884,1480)"
         id="path3329" />
      <path
         d="m 4884,1787.96 -0.26,-90.8 c 0.26,-27.57 -35.6,-66.88 -72.47,-68.16 l -65.61,0.51 c -9.81,0.26 -13.26,17.8 0.25,18.31 h 64.59 c 29.19,2.07 53.61,28.72 54.07,49.43 0.22,30.29 0.45,60 0.67,90.3 -0.17,13.67 18.93,14.06 18.76,0.41 z"
         fill="#437e9b"
         fill-rule="evenodd"
         id="path3331" />
      <path
         d="M 0.00117472,10.0373 0.255555,100.837 C 0.00128151,128.408 35.8575,167.724 72.731,169 l 65.609,-0.511 c 9.814,-0.255 13.256,-17.798 -0.254,-18.306 L 73.4966,150.18 C 44.3087,148.11 19.8862,121.459 19.4342,100.752 19.2081,70.4567 18.9847,40.7493 18.7587,10.4545 18.9281,-3.2179 -0.168305,-3.60665 0.00117472,10.0373 Z"
         fill="#437e9b"
         fill-rule="evenodd"
         transform="matrix(1,0,0,-1,4866,1798)"
         id="path3333" />
      <path
         d="m 4484.38,-225 19.37,33.5 37.25,22.25 -36.01,20.75 -19.61,32.5 -21.61,-34.5 -33.77,-18.5 38.24,-20.25 z"
         fill="#d9e4f5"
         fill-rule="evenodd"
         id="path3335" />
      <path
         d="m 4478,-320.963 0.26,90.8 c -0.26,27.571 35.84,66.887 72.97,68.163 l 66.05,-0.511 c 9.88,-0.255 13.35,-17.798 -0.25,-18.306 L 4552,-180.82 c -29.39,-2.07 -53.98,-28.721 -54.43,-49.429 -0.23,-30.294 -0.46,-60.002 -0.68,-90.297 0.17,-13.672 -19.06,-14.061 -18.89,-0.417 z"
         fill="#437e9b"
         fill-rule="evenodd"
         id="path3337" />
      <path
         d="M 0.00117472,10.0373 0.255555,100.837 C 0.00128151,128.408 35.8575,167.724 72.731,169 l 65.609,-0.511 c 9.814,-0.255 13.256,-17.798 -0.254,-18.306 L 73.4966,150.18 C 44.3087,148.11 19.8862,121.459 19.4342,100.752 19.2081,70.4567 18.9847,40.7493 18.7587,10.4545 18.9281,-3.2179 -0.168305,-3.60665 0.00117472,10.0373 Z"
         fill="#437e9b"
         fill-rule="evenodd"
         transform="matrix(-1,0,0,1,4496,-331)"
         id="path3339" />
      <path
         d="m 4496,-22.0373 -0.26,-90.7997 c 0.26,-27.571 -35.6,-66.887 -72.47,-68.163 l -65.61,0.511 c -9.81,0.255 -13.26,17.798 0.25,18.306 l 64.59,0.003 c 29.19,2.07 53.61,28.721 54.07,49.428 0.22,30.2953 0.45,60.0027 0.67,90.2975 -0.17,13.6724 18.93,14.06115 18.76,0.4172 z"
         fill="#437e9b"
         fill-rule="evenodd"
         id="path3341" />
      <path
         d="M 0.00118271,10.0373 0.257293,100.837 C 0.00129023,128.408 36.1015,167.724 73.2258,169 l 66.0552,-0.511 c 9.881,-0.255 13.347,-17.798 -0.256,-18.306 L 73.9966,150.18 C 44.6101,148.11 20.0214,121.459 19.5664,100.752 19.3388,70.4567 19.1139,40.7493 18.8863,10.4545 19.0569,-3.2179 -0.16945,-3.60665 0.00118271,10.0373 Z"
         fill="#437e9b"
         fill-rule="evenodd"
         transform="matrix(1,0,0,-1,4478,-12)"
         id="path3343" />
      <path
         d="m 4473.09,2945 33.15,57.17 63.76,37.96 -61.63,35.41 -33.58,55.46 -36.98,-58.87 -57.81,-31.57 65.46,-34.56 z"
         fill="#d9e4f5"
         fill-rule="evenodd"
         id="path3345" />
      <path
         d="m 4463,2783.05 0.44,154.19 c -0.44,46.83 60.79,113.59 123.75,115.76 l 112.02,-0.87 c 16.76,-0.43 22.64,-30.22 -0.43,-31.09 h -110.29 c -49.83,-3.52 -91.53,-48.78 -92.31,-83.94 -0.38,-51.45 -0.76,-101.9 -1.15,-153.35 0.29,-23.21 -32.32,-23.87 -32.03,-0.7 z"
         fill="#437e9b"
         fill-rule="evenodd"
         id="path3347" />
      <path
         d="M 0.00200581,17.0456 0.436355,171.243 C 0.00218816,218.066 61.2261,284.832 124.187,287 l 112.027,-0.867 c 16.756,-0.434 22.634,-30.225 -0.434,-31.088 L 125.494,255.04 C 75.6563,251.524 33.9553,206.264 33.1836,171.099 32.7976,119.651 32.4161,69.2014 32.0301,17.754 32.3195,-5.46472 -0.287378,-6.1249 0.00200581,17.0456 Z"
         fill="#437e9b"
         fill-rule="evenodd"
         transform="matrix(-1,0,0,1,4494,2766)"
         id="path3349" />
      <path
         d="m 4494,3289.95 -0.44,-154.19 C 4494,3088.93 4432.77,3022.17 4369.81,3020 l -112.02,0.87 c -16.76,0.43 -22.64,30.22 0.43,31.09 h 110.29 c 49.83,3.52 91.53,48.78 92.31,83.94 0.38,51.45 0.76,101.9 1.15,153.35 -0.29,23.21 32.32,23.87 32.03,0.7 z"
         fill="#437e9b"
         fill-rule="evenodd"
         id="path3351" />
      <path
         d="M 0.00200581,17.0456 0.436355,171.243 C 0.00218816,218.066 61.2261,284.832 124.187,287 l 112.027,-0.867 c 16.756,-0.434 22.634,-30.225 -0.434,-31.088 L 125.494,255.04 C 75.6563,251.524 33.9553,206.264 33.1836,171.099 32.7976,119.651 32.4161,69.2014 32.0301,17.754 32.3195,-5.46472 -0.287378,-6.1249 0.00200581,17.0456 Z"
         fill="#437e9b"
         fill-rule="evenodd"
         transform="matrix(1,0,0,-1,4463,3307)"
         id="path3353" />
      <path
         d="m 2330.33,2413.45 c 41.97,13.52 75.95,62.28 121.91,60.5 l 291.14,-0.66 c 56.4,-35.24 22.87,-68.48 -22.65,-85.77 -89.72,-27.7 -134.13,-30.8 -279.14,-29.25 -34.87,-0.44 -90.39,-2.22 -116.59,-23.27 z"
         fill="#e37e6e"
         fill-rule="evenodd"
         id="path3355" />
      <path
         d="m 1698,2020.91 20,188.04 c 14.27,44.74 34.13,108.69 134,175.04 26.27,14.07 48.53,24.93 110,35 65,8 116.4,16.81 195,24.01 55.33,2.33 108.27,7.07 166,7 15.33,-28.67 41.87,-90.95 46,-146.03 l -355,-139.03 -39,-23 -96.1,-165.94 z"
         fill="#ffffff"
         fill-rule="evenodd"
         id="path3357" />
      <path
         d="m 2011.4,2160 -4.64,10.37 355.05,136.99 c 1.76,26.19 -33.48,129.81 -45.72,137.02 -88.59,3.07 -289.17,-12.35 -401.81,-40.66 -104.99,-26.38 -186.16,-138.38 -196.04,-213.08 l -13.24,1.64 c 12.08,78.68 96.32,198.01 205.73,221.65 107.53,23.23 323.27,44.42 412.48,40.63 12.43,-6.64 50.86,-120.67 50.79,-153.29 z"
         fill="#c6d7f1"
         fill-rule="evenodd"
         id="path3359" />
      <path
         d="M 1773,224 1797.8,0 h 78.4 l 24.8,224 z"
         fill="#d9e4f5"
         fill-rule="evenodd"
         id="path3361" />
      <path
         d="m 1475,398.497 c 0,-98.031 162.08,-177.499 362.01,-177.497 199.55,0.001 361.47,79.19 361.99,177.04 z"
         fill="#d9e4f5"
         fill-rule="evenodd"
         id="path3363" />
      <path
         d="m 1824,-629 27,13.845 c -0.08,206.968 -0.41,414.186 -0.5,621.155 H 1824 Z"
         fill="#d9e4f5"
         fill-rule="evenodd"
         id="path3365" />
      <path
         d="M 1773,224 1797.64,0 1821.21,0.416693 1823,223 Z"
         fill="#a0bce7"
         fill-rule="evenodd"
         id="path3367" />
      <path
         d="M 3454,8.99998 3478.8,-215 h 78.4 L 3582,8.99998 Z"
         fill="#d9e4f5"
         fill-rule="evenodd"
         id="path3369" />
      <path
         d="M 3156,183.497 C 3156,85.4665 3317.85,5.99811 3517.51,5.99968 3716.79,6.00124 3878.48,85.1904 3879,183.04 Z"
         fill="#d9e4f5"
         fill-rule="evenodd"
         id="path3371" />
      <path
         d="m 3504.25,-964 26.75,4.95 c -0.08,246.573 -0.17,503.477 -0.25,750.05 H 3504 c 0.08,-251.667 0.17,-503.333 0.25,-755 z"
         fill="#d9e4f5"
         fill-rule="evenodd"
         id="path3373" />
      <path
         d="m 3454,9 24.64,-224 23.57,0.417 L 3504,8 Z"
         fill="#a0bce7"
         fill-rule="evenodd"
         id="path3375" />
    </g>
  </g>
</svg>
