<?xml version="1.0" encoding="UTF-8" standalone="no"?>
<!-- Created with Inkscape (http://www.inkscape.org/) -->

<svg
   width="1098.5492mm"
   height="913.34167mm"
   viewBox="0 0 1098.5492 913.34167"
   version="1.1"
   id="svg5"
   inkscape:export-filename="Informes.svg"
   inkscape:export-xdpi="180"
   inkscape:export-ydpi="180"
   xmlns:inkscape="http://www.inkscape.org/namespaces/inkscape"
   xmlns:sodipodi="http://sodipodi.sourceforge.net/DTD/sodipodi-0.dtd"
   xmlns="http://www.w3.org/2000/svg"
   xmlns:svg="http://www.w3.org/2000/svg">
  <sodipodi:namedview
     id="namedview7"
     pagecolor="#ffffff"
     bordercolor="#000000"
     borderopacity="0.25"
     inkscape:showpageshadow="2"
     inkscape:pageopacity="0.0"
     inkscape:pagecheckerboard="0"
     inkscape:deskcolor="#d1d1d1"
     inkscape:document-units="mm"
     showgrid="false" />
  <defs
     id="defs2">
    <clipPath
       id="clip0">
      <rect
         x="720"
         y="-88"
         width="4152"
         height="3452"
         id="rect59" />
    </clipPath>
    <clipPath
       id="clip1">
      <rect
         x="1741"
         y="339"
         width="245"
         height="245"
         id="rect62" />
    </clipPath>
    <clipPath
       id="clip2">
      <rect
         x="1741"
         y="339"
         width="245"
         height="245"
         id="rect65" />
    </clipPath>
    <clipPath
       id="clip3">
      <rect
         x="1741"
         y="339"
         width="245"
         height="245"
         id="rect68" />
    </clipPath>
    <clipPath
       id="clip4">
      <path
         d="m 1741,339 v 232.995 h 62.89 c -0.03,-0.037 -0.06,-0.073 -0.09,-0.111 -2.04,-2.743 -1.98,-4.573 -2.22,-7.389 -0.01,-4.615 0.31,-9.221 0.78,-13.813 0.49,-4.338 0.92,-8.815 2.35,-12.972 0.2,-0.588 0.47,-1.151 0.71,-1.726 7.58,-18.436 6.9,25.523 18.08,9 0.04,-0.065 0.11,-0.271 0.13,-0.196 0.05,0.13 -0.03,0.272 -0.06,0.407 -0.08,0.447 -0.19,0.891 -0.27,1.338 -0.11,0.618 -0.21,1.236 -0.3,1.857 -0.27,1.829 -0.35,2.659 -0.55,4.522 -0.18,1.907 -0.35,3.815 -0.48,5.727 0.38,0.037 0.76,0.076 1.14,0.114 5.79,0.418 11.58,0.823 17.37,1.305 3.83,0.334 7.64,0.793 11.43,1.429 2.49,0.415 4.93,1.07 7.41,1.551 1.77,0.345 2.59,0.441 4.41,0.706 4.86,0.684 9.57,-0.233 14.22,-1.58 3.37,-1.028 6.57,-2.504 9.53,-4.409 2.56,-2.052 4.96,-4.274 7.52,-6.335 6,-4.646 12.97,-7.782 19.86,-10.869 7.64,-3.48 15.66,-6.182 23.01,-10.269 1.39,-0.775 2.73,-1.659 4.09,-2.488 5.4,-3.637 9.86,-8.412 12.92,-14.163 2.28,-4.28 2.52,-5.738 4.03,-10.411 0.47,-2.062 1.02,-4.107 1.41,-6.185 0.79,-4.203 1.34,-9.202 1.72,-13.448 0.59,-6.518 0.85,-13.054 1.11,-19.59 0.16,-5.072 0.31,-10.153 0.13,-15.228 -0.12,-3.398 -0.43,-6.783 -0.81,-10.161 -0.42,-3.213 -1.18,-6.386 -2.7,-9.261 -0.5,-0.946 -1.23,-1.628 -2.09,-2.238 -1.15,-0.669 -2.25,-1.42 -3.37,-2.145 -13.1,-8.494 -9.21,-20.653 1.1,-20.371 2.89,0.079 6.28,1.133 9.95,3.516 1.6,1.04 3.22,2.048 4.78,3.15 1.22,0.975 1.64,1.261 2.79,2.398 0.75,0.746 1.46,1.54 2.11,2.371 V 339 Z m 234.04,179.215 c -0.74,1.791 -1.65,3.648 -3.12,6.245 -3.63,6.389 -8.44,12.01 -14.13,16.666 -1.72,1.402 -3.59,2.597 -5.38,3.895 -1.8,1.07 -3.56,2.201 -5.4,3.209 -7.65,4.207 -15.92,7.12 -23.87,10.681 -5.32,2.371 -10.75,4.709 -15.46,8.179 -1.98,1.57 -3.83,3.287 -5.76,4.905 h 73.12 z m -153.24,45.57 c 0,0.203 -0.01,0.406 -0.01,0.609 0.25,0.638 0.19,0.149 0.01,-0.609 z"
         id="path71" />
    </clipPath>
    <clipPath
       id="clip5">
      <path
         d="m 1754.15,351.004 v 84.22 c 0.44,-0.781 0.9,-1.602 1.3,-2.25 0.29,-6.888 0.86,-13.762 2.19,-20.539 1.62,-8.029 3.53,-16.11 7.52,-23.35 0.64,-1.086 1.24,-2.197 1.92,-3.257 3.17,-4.927 7.29,-9.161 11.97,-12.68 0.86,-0.606 1.71,-1.233 2.58,-1.819 3.41,-2.285 7.08,-4.18 10.61,-6.262 4.86,-2.662 9.76,-5.242 14.74,-7.677 4.49,-2.198 8.96,-4.457 13.57,-6.386 z m 153.86,0 c 3.78,1.38 7.51,2.911 11.19,4.525 3.5,1.719 3.21,1.545 6.48,3.266 1.7,0.895 3.37,1.859 5.08,2.742 0.29,0.152 0.59,0.285 0.89,0.427 v 10e-4 c 18.04,8.626 8.65,27.316 -9.04,18.001 -4.1,-2.158 -8.18,-4.344 -12.34,-6.381 -5.32,-2.269 -10.71,-4.408 -16.27,-6.009 -3.56,-1.024 -4.41,-1.143 -8.02,-1.914 -6.81,-1.355 -13.73,-2.062 -20.66,-2.524 -3.62,-0.217 -7.27,-0.303 -10.9,-0.071 -2.08,0.132 -2.92,0.29 -5,0.58 -5.85,0.83 -11.5,2.558 -17.09,4.392 -5.69,1.985 -11.04,4.767 -16.43,7.408 -4.7,2.3 -9.32,4.735 -13.91,7.248 -3.17,1.889 -6.49,3.568 -9.55,5.641 -0.56,0.377 -1.09,0.789 -1.64,1.183 -2.79,2.147 -5.23,4.725 -7.08,7.731 -0.37,0.612 -0.7,1.254 -1.05,1.881 -2.77,5.372 -4.04,11.352 -5.2,17.236 -1.15,5.905 -1.62,11.894 -1.84,17.894 -0.11,8.102 0.01,16.206 0.07,24.308 0,2.887 0.12,5.771 -0.03,8.657 -0.04,0.812 -0.22,3.252 -0.53,3.961 -0.72,1.655 -1.73,3.171 -2.59,4.755 -1.23,0.07 -2.46,0.194 -3.69,0.332 -0.02,2.266 0.06,3.492 0.18,6.117 0.34,5.576 1.32,11.096 2.62,16.527 1.17,4.366 2.72,8.617 4.36,12.828 1.56,3.884 3.54,7.583 5.52,11.267 2.28,4.099 4.72,8.108 7.13,12.131 2.02,3.356 4.08,6.688 6.2,9.978 1.66,2.603 3.4,5.151 5.07,7.742 0.52,0.726 1.02,1.467 1.62,2.129 0.34,0.367 0.37,0.456 0.26,0.235 0.17,0.113 0.39,0.349 0.59,0.421 0.06,0.021 -0.1,-0.077 -0.14,-0.131 -0.01,-0.017 0.04,-0.004 0.06,0.002 0.12,0.046 0.24,0.103 0.35,0.154 0.85,0.385 0.46,0.215 1.15,0.512 0.78,0.338 1.5,0.702 2.19,1.077 h 154.77 V 351.005 Z m -153.86,159.739 v 46.519 h 24.54 c -0.27,-0.421 -0.56,-0.838 -0.82,-1.262 -2.25,-3.477 -4.42,-6.995 -6.56,-10.541 -2.57,-4.297 -5.18,-8.579 -7.6,-12.963 -2.36,-4.406 -4.7,-8.84 -6.54,-13.494 -1.06,-2.732 -2.08,-5.482 -3.02,-8.259 z"
         id="path74" />
    </clipPath>
    <clipPath
       id="clip6">
      <path
         d="m 2282.76,1635.66 -7.35,-70.1 85.06,-8.93 7.35,70.11 z"
         fill-rule="evenodd"
         clip-rule="evenodd"
         id="path77" />
    </clipPath>
    <clipPath
       id="clip7">
      <path
         d="m 2282.76,1635.66 -7.35,-70.1 85.06,-8.93 7.35,70.11 z"
         fill-rule="evenodd"
         clip-rule="evenodd"
         id="path80" />
    </clipPath>
    <clipPath
       id="clip8">
      <path
         d="m 2282.76,1635.66 -7.35,-70.1 85.06,-8.93 7.35,70.11 z"
         fill-rule="evenodd"
         clip-rule="evenodd"
         id="path83" />
    </clipPath>
    <clipPath
       id="clip9">
      <path
         d="m 2282.76,1635.66 80.9,-8.48 -1.89,-18 c -0.02,0.01 -0.03,0.02 -0.04,0.03 -0.89,0.69 -1.53,0.73 -2.5,0.91 -1.6,0.17 -3.21,0.24 -4.82,0.28 -1.52,0.01 -3.08,0.05 -4.57,-0.2 -0.21,-0.04 -0.41,-0.1 -0.62,-0.14 -6.63,-1.5 8.65,-2.91 2.58,-5.51 -0.02,-0.01 -0.1,-0.02 -0.07,-0.03 0.04,-0.01 0.09,0 0.14,0.01 0.16,0 0.32,0.02 0.47,0.02 0.22,0.01 0.44,0.02 0.66,0.02 0.64,0.01 0.93,0 1.58,0 0.67,-0.02 1.34,-0.04 2.01,-0.08 0,-0.11 0,-0.22 0,-0.33 -0.03,-1.67 -0.06,-3.34 -0.07,-5.01 0.01,-1.11 0.05,-2.22 0.16,-3.33 0.07,-0.73 0.22,-1.45 0.31,-2.17 0.07,-0.52 0.08,-0.76 0.12,-1.29 0.09,-1.42 -0.37,-2.73 -0.98,-4.01 -0.46,-0.93 -1.07,-1.79 -1.82,-2.57 -0.79,-0.66 -1.63,-1.26 -2.42,-1.92 -1.8,-1.55 -3.09,-3.43 -4.37,-5.29 -1.44,-2.06 -2.62,-4.25 -4.26,-6.21 -0.31,-0.37 -0.66,-0.72 -0.98,-1.08 -1.43,-1.41 -3.22,-2.51 -5.31,-3.18 -1.55,-0.5 -2.07,-0.51 -3.73,-0.77 -0.73,-0.06 -1.46,-0.14 -2.19,-0.18 -1.49,-0.07 -3.24,-0.05 -4.73,0 -2.28,0.07 -4.55,0.23 -6.83,0.39 -1.77,0.14 -3.53,0.28 -5.29,0.52 -1.18,0.16 -2.34,0.37 -3.5,0.6 -1.11,0.24 -2.19,0.57 -3.14,1.11 -0.31,0.18 -0.53,0.42 -0.71,0.68 -0.2,0.36 -0.43,0.7 -0.65,1.04 -2.55,4.06 -6.89,3.39 -7.1,0.43 -0.06,-0.83 0.2,-1.84 0.92,-2.97 0.31,-0.5 0.62,-1 0.95,-1.48 0.3,-0.39 0.39,-0.52 0.75,-0.89 0.24,-0.24 0.49,-0.47 0.76,-0.69 l -26.74,2.81 z m 55.2,-73.49 c 0.64,0.14 1.31,0.33 2.26,0.66 2.33,0.81 4.42,1.98 6.21,3.44 0.54,0.44 1.01,0.93 1.51,1.4 0.43,0.47 0.87,0.93 1.28,1.42 1.69,2.04 2.95,4.3 4.42,6.45 0.99,1.43 1.96,2.9 3.31,4.12 0.6,0.51 1.25,0.98 1.87,1.47 l -2.19,-20.92 z m 20.42,42.19 c 0.07,-0.01 0.14,-0.02 0.21,-0.03 0.21,-0.09 0.05,-0.05 -0.21,0.03 z"
         id="path86" />
    </clipPath>
    <clipPath
       id="clip10">
      <path
         d="m 2286.54,1631.46 29.24,-3.06 c -0.29,-0.1 -0.59,-0.2 -0.82,-0.29 -2.4,0.17 -4.81,0.25 -7.2,0.12 -2.84,-0.17 -5.7,-0.43 -8.33,-1.3 -0.4,-0.15 -0.8,-0.28 -1.19,-0.43 -1.81,-0.73 -3.4,-1.76 -4.76,-2.97 -0.24,-0.22 -0.48,-0.44 -0.71,-0.67 -0.9,-0.89 -1.67,-1.87 -2.49,-2.81 -1.07,-1.29 -2.12,-2.6 -3.11,-3.93 -0.9,-1.21 -1.82,-2.41 -2.63,-3.66 z m -4.62,-44.02 c 0.36,-1.13 0.78,-2.26 1.23,-3.37 0.49,-1.06 0.44,-0.97 0.94,-1.97 0.26,-0.52 0.55,-1.03 0.8,-1.55 0.05,-0.09 0.08,-0.19 0.12,-0.28 v 0 c 2.46,-5.47 9.23,-3.47 6.52,1.93 -0.62,1.26 -1.26,2.5 -1.84,3.77 -0.63,1.6 -1.21,3.22 -1.6,4.87 -0.25,1.06 -0.26,1.31 -0.42,2.37 -0.27,2 -0.31,4 -0.26,6 0.04,1.05 0.11,2.09 0.3,3.12 0.11,0.59 0.19,0.83 0.36,1.41 0.46,1.65 1.23,3.2 2.03,4.73 0.86,1.56 1.99,2.99 3.07,4.43 0.94,1.26 1.92,2.5 2.93,3.72 0.75,0.84 1.44,1.73 2.25,2.53 0.15,0.14 0.3,0.28 0.46,0.42 0.83,0.73 1.8,1.33 2.89,1.75 0.23,0.08 0.46,0.15 0.69,0.23 1.95,0.6 4.06,0.74 6.14,0.86 2.08,0.11 4.18,0.03 6.27,-0.12 2.81,-0.27 5.62,-0.6 8.43,-0.91 1.01,-0.11 2,-0.25 3.01,-0.31 0.28,-0.01 1.14,-0.05 1.39,0.01 0.6,0.15 1.15,0.38 1.73,0.57 0.06,0.35 0.14,0.69 0.23,1.04 0.78,-0.08 1.21,-0.14 2.11,-0.27 1.93,-0.3 3.82,-0.79 5.66,-1.35 1.48,-0.5 2.91,-1.1 4.33,-1.72 1.3,-0.59 2.52,-1.29 3.74,-1.99 1.36,-0.8 2.68,-1.64 4,-2.48 1.1,-0.7 2.2,-1.41 3.28,-2.14 0.85,-0.57 1.68,-1.16 2.53,-1.73 0.24,-0.18 0.48,-0.35 0.69,-0.54 0.12,-0.11 0.15,-0.13 0.08,-0.09 0.03,-0.05 0.11,-0.12 0.13,-0.18 0,-0.02 -0.03,0.03 -0.05,0.04 0,0.01 0,-0.01 0,-0.01 0.02,-0.04 0.03,-0.07 0.05,-0.11 0.11,-0.25 0.06,-0.14 0.14,-0.35 0.09,-0.23 0.2,-0.45 0.31,-0.66 l -4.65,-44.29 -71.61,7.52 z m 60.07,38.2 16.16,-1.69 -0.74,-7.02 c -0.14,0.09 -0.28,0.19 -0.41,0.28 -1.14,0.77 -2.3,1.52 -3.47,2.26 -1.41,0.89 -2.82,1.79 -4.27,2.65 -1.46,0.83 -2.93,1.66 -4.49,2.36 -0.92,0.4 -1.84,0.8 -2.78,1.16 z"
         id="path89" />
    </clipPath>
  </defs>
  <g
     inkscape:label="Capa 1"
     inkscape:groupmode="layer"
     id="layer1"
     transform="translate(436.86741,328.7073)">
    <g
       clip-path="url(#clip0)"
       transform="matrix(0.26458333,0,0,0.26458333,-627.36741,-305.42399)"
       id="g466">
      <path
         d="m 1109,3177.4 3321.59,9.6 c -57.6,-542.42 473.25,-677.24 336,-1219.23 C 4629.33,1425.77 5344.11,414.611 4258.2,360.766 3172.29,306.921 2889.86,-69.7157 2428.99,-86.69 1968.12,-103.664 1777.79,46.1137 1493,258.92 1208.2,471.725 731.398,449.325 720.198,1190.15 708.998,1930.97 1176.2,2159.77 1109,3177.4 Z"
         fill="#c6d7f1"
         fill-rule="evenodd"
         id="path94" />
      <path
         id="rect96"
         style="fill:#437e9b"
         d="M 1137,85 H 4089 V 2527 H 1137 Z" />
      <path
         id="rect98"
         style="fill:#c3dae5"
         d="M 1170,274 H 4060 V 2495 H 1170 Z" />
      <path
         d="m 3887.57,145.926 19.88,-20.28 29.55,28.97 29.55,-28.97 19.88,20.28 -29.15,28.574 29.15,28.574 -19.88,20.28 -29.55,-28.97 -29.55,28.97 -19.88,-20.28 29.15,-28.574 z"
         fill="#a6c7d8"
         fill-rule="evenodd"
         id="path100" />
      <path
         d="m 3665,150 h 87 v 90 h -87 z m 10.88,10.875 v 68.25 h 65.24 v -68.25 z"
         fill="#a6c7d8"
         fill-rule="evenodd"
         id="path102" />
      <path
         d="m 3691,123 h 88 v 90 h -88 z m 11,11 v 68 h 66 v -68 z"
         fill="#a6c7d8"
         fill-rule="evenodd"
         id="path104" />
      <path
         id="rect106"
         style="fill:#a6c7d8"
         d="m 3460,170 h 100 v 27 h -100 z" />
      <path
         id="rect108"
         style="fill:#2d5467"
         d="m 1170,274 h 455 v 2221 h -455 z" />
      <path
         id="rect110"
         style="fill:#2d5467"
         d="m 3604,274 h 456 v 2221 h -456 z" />
      <g
         clip-path="url(#clip1)"
         id="g126">
        <g
           clip-path="url(#clip2)"
           id="g124">
          <g
             clip-path="url(#clip3)"
             id="g122">
            <path
               d="m 240.088,199.437 c 0,-64.34 52.158,-116.4974 116.498,-116.4974 64.34,0 116.497,52.1574 116.497,116.4974 0,64.34 -52.157,116.497 -116.497,116.497 -64.34,0 -116.498,-52.157 -116.498,-116.497 z m 16.103,0 c 0,55.447 44.948,100.395 100.395,100.395 55.446,0 100.395,-44.948 100.395,-100.395 0,-55.447 -44.949,-100.3951 -100.395,-100.3951 -55.447,0 -100.395,44.9481 -100.395,100.3951 z"
               fill="#3eb99a"
               fill-rule="evenodd"
               transform="matrix(1.00447,0,0,1,1510.8,268.065)"
               id="path112" />
            <g
               clip-path="url(#clip4)"
               id="g116">
              <path
                 d="m 229.175,187.433 c 0,-64.34 52.158,-116.4978 116.498,-116.4978 64.339,0 116.497,52.1578 116.497,116.4978 0,64.339 -52.158,116.497 -116.497,116.497 -64.34,0 -116.498,-52.158 -116.498,-116.497 z m 2.4,0 c 0,63.014 51.083,114.097 114.098,114.097 63.014,0 114.097,-51.083 114.097,-114.097 0,-63.015 -51.083,-114.098 -114.097,-114.098 -63.015,0 -114.098,51.083 -114.098,114.098 z"
                 fill="#3eb99a"
                 fill-rule="evenodd"
                 transform="matrix(1.00447,0,0,1,1510.8,268.065)"
                 id="path114" />
            </g>
            <g
               clip-path="url(#clip5)"
               id="g120">
              <path
                 d="m 242.271,186.068 c 0,-56.956 46.05,-103.1284 102.856,-103.1284 56.806,0 102.856,46.1724 102.856,103.1284 0,56.957 -46.05,103.129 -102.856,103.129 -56.806,0 -102.856,-46.172 -102.856,-103.129 z m 2.119,0 c 0,55.787 45.101,101.01 100.737,101.01 55.635,0 100.737,-45.223 100.737,-101.01 0,-55.786 -45.102,-101.0096 -100.737,-101.0096 -55.636,0 -100.737,45.2236 -100.737,101.0096 z"
                 fill="#3eb99a"
                 fill-rule="evenodd"
                 transform="matrix(1.00447,0,0,1,1510.8,268.065)"
                 id="path118" />
            </g>
          </g>
        </g>
      </g>
      <path
         d="M 2115,461.501 C 2115,420.355 2148.35,387 2189.5,387 h 1220 c 41.15,0 74.5,33.355 74.5,74.501 v 0 c 0,41.145 -33.35,74.5 -74.5,74.5 L 2189.5,536 c -41.15,0 -74.5,-33.355 -74.5,-74.501 z"
         fill="#a0bce7"
         fill-rule="evenodd"
         id="path128" />
      <path
         id="rect130"
         style="fill:#eeb2a8"
         d="m 2115,558 h 1369 v 26 H 2115 Z" />
      <path
         id="rect132"
         style="fill:#a0bce7"
         d="m 1742,689 h 1742 v 483 H 1742 Z" />
      <path
         id="rect134"
         style="fill:#c3dae5"
         d="m 2757,721 h 694 v 121 h -694 z" />
      <path
         id="rect136"
         style="fill:#c3dae5"
         d="m 1775,721 h 949 v 121 h -949 z" />
      <path
         id="rect138"
         style="fill:#c3dae5"
         d="m 2757,870 h 694 v 121 h -694 z" />
      <path
         id="rect140"
         style="fill:#c3dae5"
         d="m 1775,870 h 949 v 121 h -949 z" />
      <path
         id="rect142"
         style="fill:#c3dae5"
         d="m 2757,1019 h 694 v 121 h -694 z" />
      <path
         id="rect144"
         style="fill:#c3dae5"
         d="m 1775,1019 h 949 v 121 h -949 z" />
      <path
         id="rect146"
         style="fill:#a0bce7"
         d="m 1741,1290 h 1742 v 108 H 1741 Z" />
      <path
         d="m 1741,1474 c 0,-14.91 12.09,-27 27,-27 h 1688 c 14.91,0 27,12.09 27,27 v 0 c 0,14.91 -12.09,27 -27,27 H 1768 c -14.91,0 -27,-12.09 -27,-27 z"
         fill="#a0bce7"
         fill-rule="evenodd"
         id="path148" />
      <path
         d="m 1741,1573 c 0,-14.91 12.09,-27 27,-27 h 1688 c 14.91,0 27,12.09 27,27 v 0 c 0,14.91 -12.09,27 -27,27 H 1768 c -14.91,0 -27,-12.09 -27,-27 z"
         fill="#a0bce7"
         fill-rule="evenodd"
         id="path150" />
      <path
         d="m 1741,1672.5 c 0,-15.19 12.31,-27.5 27.5,-27.5 h 1564 c 15.19,0 27.5,12.31 27.5,27.5 v 0 c 0,15.19 -12.31,27.5 -27.5,27.5 h -1564 c -15.19,0 -27.5,-12.31 -27.5,-27.5 z"
         fill="#a0bce7"
         fill-rule="evenodd"
         id="path152" />
      <path
         d="m 1741,1772 c 0,-14.91 12.09,-27 27,-27 h 1688 c 14.91,0 27,12.09 27,27 v 0 c 0,14.91 -12.09,27 -27,27 H 1768 c -14.91,0 -27,-12.09 -27,-27 z"
         fill="#a0bce7"
         fill-rule="evenodd"
         id="path154" />
      <path
         id="rect156"
         style="fill:#a0bce7"
         d="m 1744,1949 h 1742 v 108 H 1744 Z" />
      <path
         d="m 1744,2133 c 0,-14.91 12.09,-27 27,-27 h 1688 c 14.91,0 27,12.09 27,27 v 0 c 0,14.91 -12.09,27 -27,27 H 1771 c -14.91,0 -27,-12.09 -27,-27 z"
         fill="#a0bce7"
         fill-rule="evenodd"
         id="path158" />
      <path
         d="m 1744,2232 c 0,-14.91 12.09,-27 27,-27 h 1688 c 14.91,0 27,12.09 27,27 v 0 c 0,14.91 -12.09,27 -27,27 H 1771 c -14.91,0 -27,-12.09 -27,-27 z"
         fill="#a0bce7"
         fill-rule="evenodd"
         id="path160" />
      <path
         d="m 1744,2332 c 0,-14.91 12.09,-27 27,-27 h 974 c 14.91,0 27,12.09 27,27 v 0 c 0,14.91 -12.09,27 -27,27 h -974 c -14.91,0 -27,-12.09 -27,-27 z"
         fill="#a0bce7"
         fill-rule="evenodd"
         id="path162" />
      <path
         d="M 1170,273 H 4060 L 1170,2495 Z"
         fill="#e1ecf2"
         fill-rule="evenodd"
         fill-opacity="0.501961"
         id="path164" />
      <path
         d="m 4001,450 c 0,-11.046 8.95,-20 20,-20 v 0 c 11.05,0 20,8.954 20,20 v 216 c 0,11.046 -8.95,20 -20,20 v 0 c -11.05,0 -20,-8.954 -20,-20 z"
         fill="#e1ecf2"
         fill-rule="evenodd"
         fill-opacity="0.501961"
         id="path166" />
      <path
         d="m 1051,3126 c 0,-131.44 770.29,-238 1720.5,-238 950.21,0 1720.5,106.56 1720.5,238 0,131.44 -770.29,238 -1720.5,238 C 1821.29,3364 1051,3257.44 1051,3126 Z"
         fill="#437e9b"
         fill-rule="evenodd"
         id="path168" />
      <path
         d="M 0,19 C 0,8.50659 93.5725,0 209,0 324.427,0 418,8.50659 418,19 418,29.4934 324.427,38 209,38 93.5725,38 0,29.4934 0,19 Z"
         fill="#a0bce7"
         fill-rule="evenodd"
         transform="matrix(-1,0,0,1,4354,2712)"
         id="path170" />
      <path
         d="M 0,615 C 52.5332,406.543 105.067,226.892 128.597,0 c 46.357,219.979 20.898,422.674 -10.086,615 z"
         fill="#18a468"
         fill-rule="evenodd"
         transform="matrix(-1,0,0,1,4208,2163)"
         id="path172" />
      <path
         d="M 110.704,502 C 77.9506,334.667 53.4939,170.789 0,0 86.0741,165.029 147.259,317.386 196,502 Z"
         fill="#18a468"
         fill-rule="evenodd"
         transform="matrix(-1,0,0,1,4320,2273)"
         id="path174" />
      <path
         d="M 0,491.626 C 79.6663,347.924 107.02,154.612 157,0 152.003,155.437 153.547,310.219 95.6464,493 Z"
         fill="#38e299"
         fill-rule="evenodd"
         transform="matrix(-1,0,0,1,4150,2286)"
         id="path176" />
      <path
         d="M 0,336 C 87.543,230.598 130.131,123.704 183,0 176.847,120.38 156.67,232.903 85.0722,336 Z"
         fill="#38e299"
         fill-rule="evenodd"
         transform="matrix(-1,0,0,1,4106,2439)"
         id="path178" />
      <path
         d="M 127.918,240.851 C 32.2936,142.649 19.5525,102.171 0,0 57.5938,107.917 107.139,140.664 231,242 Z"
         fill="#18a468"
         fill-rule="evenodd"
         transform="matrix(-1,0,0,1,4385,2534)"
         id="path180" />
      <path
         d="M 2.74291,741.695 C -8.72604,451.645 14.2407,268.156 100.771,0 93.866,184.036 87.0324,456.254 145,744 Z"
         fill="#38e299"
         fill-rule="evenodd"
         transform="matrix(-1,0,0,1,4249,2034)"
         id="path182" />
      <path
         d="m 4137,2763 c 87.59,-79.3 175.56,-190.1 221,-272 -17.93,90.57 -50.41,202.93 -117.92,264.27 z"
         fill="#38e299"
         fill-rule="evenodd"
         id="path184" />
      <path
         d="M 0,316 88.9544,23.3083 c 71.7156,-30.65063 164.1306,-31.50204 243.0916,0 L 421,316 C 273.421,298.12 105.142,296.418 0,316 Z"
         fill="#ecf2fa"
         fill-rule="evenodd"
         transform="matrix(1,0,0,-1,3934,3047)"
         id="path186" />
      <path
         d="m 2275.11,1677.93 c 272.99,-17.36 485.18,-10.84 748.62,-2.37 l 2.15,126.71 -15.06,10.74 14.94,7.76 c 0.04,30.34 -1.72,60.09 -1.68,90.44 l -13.26,9.19 14.94,9.54 c 0.04,73.42 -1.12,144.45 -1.08,217.87 l -28.55,0.6 18.99,27.56 c -0.19,42.36 -0.39,84.71 -0.59,127.07 l -12.19,6.2 12.78,9.79 c 0.2,28.79 0.4,57.59 0.6,86.38 -3.78,4.42 -5.18,5.25 -11.35,13.25 l 12.67,6.68 c -0.28,72.96 -0.56,145.92 -0.84,218.88 l -7.53,0.06 25.33,33.35 c -0.02,41.68 -0.04,83.36 -0.06,125.04 l -13.56,8.47 12.96,8.71 c -0.1,29.85 -0.2,59.7 -0.3,89.55 l -11.7,10.5 11.64,5.9 0.36,219.72 -754.14,0.48 c 14.72,-161.73 20.47,-317.2 1.14,-469.09 l -17.56,-34.12 c 16.76,-178.4 19.19,-304 -0.78,-468.07 l 9.08,-28.94 c 11.47,-148.72 24.46,-299.28 -0.8,-467.7"
         fill="#a6c7d8"
         fill-rule="evenodd"
         id="path188" />
      <path
         d="m 2033.11,1415 239.78,264.93 c 22.81,162.7 14.68,313.46 0.6,468.4 l -9.52,27.45 c 20.03,158.52 21.02,262.15 0.59,468.4 l 20.23,31.63 c 18.45,169.66 11.9,302.92 -3.57,470.19 l -239.18,-263.74 1.19,-150.36 14.87,-6.57 -15.47,-15.51 c -0.19,-99.45 -0.39,-198.9 -0.59,-298.35 l 14.87,1.79 -32.72,-32.81 -1.19,-147.39 20.23,-6.56 -17.85,-14.32 -1.79,-303.12 33.32,0.6 -25.58,-29.84 c 0.2,-48.93 0.4,-97.86 0.59,-146.78 l 19.64,-4.18 -19.64,-16.11"
         fill="#6aa2be"
         fill-rule="evenodd"
         id="path190" />
      <path
         d="m 2032,1415.35 c 77.96,88.29 157.11,176.57 241.04,266.65 L 3023,1679.02 2789.12,1407"
         fill="#c3dae5"
         fill-rule="evenodd"
         id="path192" />
      <path
         d="M 3024.82,1740 2548,1740.91 3025,1760 Z"
         fill="#6aa2be"
         fill-rule="evenodd"
         id="path194" />
      <path
         d="m 2455,1862 508,0.59 c -56.56,16.17 -104.59,20.96 -189.23,18.99 -127.3,-2.97 -207.59,-10.83 -318.77,-19.58 z"
         fill="#6aa2be"
         fill-rule="evenodd"
         id="path196" />
      <path
         d="m 2465,1954.61 527,-0.61 c -54.32,9.56 -100.98,16.9 -188.81,17 -87.84,0.1 -262.11,-9.92 -338.19,-16.39 z"
         fill="#6aa2be"
         fill-rule="evenodd"
         id="path198" />
      <path
         d="M 2648,2028.29 3025,2018 c -0.05,8 -0.1,16 -0.15,24 z"
         fill="#6aa2be"
         fill-rule="evenodd"
         id="path200" />
      <path
         d="m 2330,2082 351,9.48 c -45.12,7.01 -103.87,12.84 -162.37,11.26 -58.5,-1.58 -140.03,-10.42 -188.63,-20.74 z"
         fill="#6aa2be"
         fill-rule="evenodd"
         id="path202" />
      <path
         d="m 2533,2237 482,0.16 c 0.05,5.79 -0.35,12.05 -0.3,17.84 z"
         fill="#6aa2be"
         fill-rule="evenodd"
         id="path204" />
      <path
         d="m 2447,2359 h 508 c -53.26,12.88 -61.41,20 -146.08,20 -84.67,0 -282.97,-12.58 -361.92,-20 z"
         fill="#6aa2be"
         fill-rule="evenodd"
         id="path206" />
      <path
         d="m 2459,2450 524,0.62 c -45.26,10.91 -119.4,17.48 -206.73,17.38 -87.34,-0.1 -255.83,-10.91 -317.27,-18 z"
         fill="#6aa2be"
         fill-rule="evenodd"
         id="path208" />
      <path
         d="M 2640,2526.21 3016,2514 v 25 z"
         fill="#6aa2be"
         fill-rule="evenodd"
         id="path210" />
      <path
         d="m 2323,2578 349,11.38 c -47.36,7.64 -104.38,12.08 -162.55,10.18 -58.16,-1.89 -156.17,-12.68 -186.45,-21.56 z"
         fill="#6aa2be"
         fill-rule="evenodd"
         id="path212" />
      <path
         d="m 2550,2738 484,1.21 V 2758 Z"
         fill="#6aa2be"
         fill-rule="evenodd"
         id="path214" />
      <path
         d="m 2464,2860 510,1.71 c -37.32,8.91 -68.48,18.57 -153.48,18.28 -85,-0.28 -321.63,-13.09 -356.52,-19.99 z"
         fill="#6aa2be"
         fill-rule="evenodd"
         id="path216" />
      <path
         d="m 2474,2953 h 530 c -50.78,8.89 -109.82,16 -198.15,16 -88.34,0 -285.2,-9.78 -331.85,-16 z"
         fill="#6aa2be"
         fill-rule="evenodd"
         id="path218" />
      <path
         d="m 2656,3027.3 378,-11.3 -0.45,25 z"
         fill="#6aa2be"
         fill-rule="evenodd"
         id="path220" />
      <path
         d="m 2338,3079 352,10.81 c -43.3,7.67 -99.44,12.62 -158.1,10.82 -58.67,-1.8 -156.71,-8.56 -193.9,-21.63 z"
         fill="#6aa2be"
         fill-rule="evenodd"
         id="path222" />
      <path
         d="m 2145,2955 129,144 c -27.4,-46.02 -34.3,-58.71 -55.8,-82.71 -21.5,-24 -44.25,-44.73 -73.2,-61.29 z"
         fill="#437e9b"
         fill-rule="evenodd"
         id="path224" />
      <path
         d="m 2228,2954 63.3,74 62.7,-6.56 -62.7,-10.75 z"
         fill="#437e9b"
         fill-rule="evenodd"
         id="path226" />
      <path
         d="m 2095,2761 187,170 c -35.36,-42.4 -71.32,-85.79 -102.49,-114.13 -31.17,-28.33 -62.93,-47.7 -84.51,-55.87 z"
         fill="#437e9b"
         fill-rule="evenodd"
         id="path228" />
      <path
         d="m 2251,2772 44.09,52 67.91,-20.32 -70.3,-0.6 z"
         fill="#437e9b"
         fill-rule="evenodd"
         id="path230" />
      <path
         d="m 2077,2545 110,103 c -30.91,-44.69 -49.89,-73.85 -70.93,-88.79 -21.04,-14.95 -33.31,-13.91 -39.07,-14.21 z"
         fill="#437e9b"
         fill-rule="evenodd"
         id="path232" />
      <path
         d="m 2129,2454 127,144 c -26.78,-43.62 -49.19,-75.19 -70.36,-99.19 -21.16,-24 -44.67,-41.18 -56.64,-44.81 z"
         fill="#437e9b"
         fill-rule="evenodd"
         id="path234" />
      <path
         d="m 2209,2454 64.2,72 61.8,-6.6 -61.2,-9 z"
         fill="#437e9b"
         fill-rule="evenodd"
         id="path236" />
      <path
         d="m 2078,2256 184,172 c -46.95,-62.16 -76.12,-89.88 -106.79,-118.55 -30.66,-28.67 -64.76,-48.42 -77.21,-53.45 z"
         fill="#437e9b"
         fill-rule="evenodd"
         id="path238" />
      <path
         d="m 2233,2269 43.2,51 70.8,-19.2 h -72 l -39.6,-31.2"
         fill="#437e9b"
         fill-rule="evenodd"
         id="path240" />
      <path
         d="m 2059,2043 109,105 c -19.61,-34.35 -44.97,-70.8 -63.14,-88.3 -18.16,-17.5 -36.28,-16.2 -45.86,-16.7 z"
         fill="#437e9b"
         fill-rule="evenodd"
         id="path242" />
      <path
         d="m 2137,1957 128,144 c -32.45,-50.1 -38.8,-64.2 -60.13,-88.2 -21.33,-24 -52.89,-50.25 -67.87,-55.8 z"
         fill="#437e9b"
         fill-rule="evenodd"
         id="path244" />
      <path
         d="m 2217,1955 63.7,74 64.3,-5.37 -63.11,-10.15 z"
         fill="#437e9b"
         fill-rule="evenodd"
         id="path246" />
      <path
         d="m 2088,1761 182,171 c -28.9,-40.91 -65.42,-82.32 -95.76,-110.82 -30.33,-28.5 -73.2,-58.09 -86.24,-60.18 z"
         fill="#437e9b"
         fill-rule="evenodd"
         id="path248" />
      <path
         d="m 2241,1772 44.01,53 68.99,-19.88 -69.58,-1.2 z"
         fill="#437e9b"
         fill-rule="evenodd"
         id="path250" />
      <path
         d="M 2069,1545.05 2178,1650 c -27,-45.57 -43.78,-68.37 -61.95,-85.87 -18.16,-17.49 -39.06,-19.52 -47.05,-19.08 z"
         fill="#437e9b"
         fill-rule="evenodd"
         id="path252" />
      <path
         d="m 2910,1833.76 115.74,-2.76 12.26,40 z"
         fill="#c3dae5"
         fill-rule="evenodd"
         id="path254" />
      <path
         d="m 2931,2081.25 95,-0.25 -9.98,34 c -28.82,-15.95 -52.28,-26.26 -85.02,-33.75 z"
         fill="#c3dae5"
         fill-rule="evenodd"
         id="path256" />
      <path
         d="m 2900,2330 115.71,0.67 14.29,36.33 z"
         fill="#c3dae5"
         fill-rule="evenodd"
         id="path258" />
      <path
         d="m 2923,2578 h 95 l -7.9,34 c -27.59,-14.57 -49.39,-25.54 -87.1,-34 z"
         fill="#c3dae5"
         fill-rule="evenodd"
         id="path260" />
      <path
         d="m 2919,2831 116.71,0.69 12.29,36.31 z"
         fill="#c3dae5"
         fill-rule="evenodd"
         id="path262" />
      <path
         d="m 2941,3079.69 95,-0.69 -10.94,33 c -26.94,-14.38 -48.5,-25.87 -84.06,-32.31 z"
         fill="#c3dae5"
         fill-rule="evenodd"
         id="path264" />
      <path
         d="M 2041.41,2780 2159,2887 2025,2821.31 Z"
         fill="#c3dae5"
         fill-rule="evenodd"
         id="path266" />
      <path
         d="m 2041.33,2650 82.67,68 c -38.1,-14.6 -74.05,-34.24 -110,-32.97 z"
         fill="#c3dae5"
         fill-rule="evenodd"
         id="path268" />
      <path
         d="m 2111,2602 96,97 -74.89,-22.38 z"
         fill="#c3dae5"
         fill-rule="evenodd"
         id="path270" />
      <path
         d="m 2040.57,2433 82.43,96 c -39.91,-20.01 -68.73,-28.13 -109,-30.86 z"
         fill="#c3dae5"
         fill-rule="evenodd"
         id="path272" />
      <path
         d="M 2022.93,2276 2140,2387 2010,2319.85 Z"
         fill="#c3dae5"
         fill-rule="evenodd"
         id="path274" />
      <path
         d="m 1995,2182.02 29.2,-36.02 80.8,70 c -37.74,-18.11 -72.98,-32.64 -110,-33.98 z"
         fill="#c3dae5"
         fill-rule="evenodd"
         id="path276" />
      <path
         d="m 2093,2098 97,100 -75.29,-23.13 z"
         fill="#c3dae5"
         fill-rule="evenodd"
         id="path278" />
      <path
         d="m 2022.85,1933 80.15,93 c -37.78,-15.79 -67.01,-28.37 -108,-29.19 z"
         fill="#c3dae5"
         fill-rule="evenodd"
         id="path280" />
      <path
         d="M 2032.29,1779 2150,1891 2018,1822.44 Z"
         fill="#c3dae5"
         fill-rule="evenodd"
         id="path282" />
      <path
         d="m 2032.17,1652 80.83,67 c -37.07,-16.65 -68.79,-30.78 -108,-34.87 z"
         fill="#c3dae5"
         fill-rule="evenodd"
         id="path284" />
      <path
         d="m 2100,1603 99,99 -77.69,-24.41 z"
         fill="#c3dae5"
         fill-rule="evenodd"
         id="path286" />
      <path
         d="m 2031.78,1437 82.22,95 c -37.36,-16.45 -71.12,-33.61 -111,-32.12 z"
         fill="#c3dae5"
         fill-rule="evenodd"
         id="path288" />
      <path
         d="m 1968.33,1809.75 c 2.06,-20.78 2.5,-37.97 -0.33,-58.75 58.08,103.15 156.61,251.99 185,262.44 l -44.37,20.56 z"
         fill="#d9e4f5"
         fill-rule="evenodd"
         id="path290" />
      <path
         d="m 2036,1387.41 c 71.53,48.81 155.48,175.73 233.22,263.59 106.71,-5.92 493.64,-10.95 745.78,-1.78 -69.17,-90.23 -190.66,-202.64 -234.11,-270.69 -401.71,-25.44 -508.12,2.37 -744.89,8.88 z"
         fill="#e1ecf2"
         fill-rule="evenodd"
         id="path292" />
      <path
         d="m 2240,1391.99 c 52.77,-1.99 103.4,-6.42 158.3,-5.96 L 2606,1623 l -164.7,-2.14 z"
         fill="#a0bce7"
         fill-rule="evenodd"
         id="path294" />
      <path
         d="m 2270,1401.2 c 24.47,19.64 160.45,175.54 185.32,208 l 29.68,0.8 c -61.24,-69.2 -134.91,-162.84 -185.32,-210 z"
         fill="#e1ecf2"
         fill-rule="evenodd"
         id="path296" />
      <path
         d="m 2313,1399.51 c 24.45,19.66 161.5,177.18 186.34,209.69 l 29.66,0.8 c -61.18,-69.29 -136.19,-164.67 -186.55,-211.9 -7.81,-0.33 -22.44,0.14 -29.45,1.41 z"
         fill="#e1ecf2"
         fill-rule="evenodd"
         id="path298" />
      <path
         d="m 2357,1399.12 c 24.54,19.62 163.3,177.64 188.24,210.08 l 29.76,0.8 c -61.4,-69.16 -137.89,-164.55 -188.44,-211.68 -10.45,-0.54 -19.91,-0.47 -29.56,0.8 z"
         fill="#e1ecf2"
         fill-rule="evenodd"
         id="path300" />
      <path
         d="m 2804.63,1468 137.37,161 -12.98,-1.3 -136.02,-159 z"
         fill="#a0bce7"
         fill-rule="evenodd"
         id="path302" />
      <path
         d="M 2713.89,1392.46 2916,1627 2902.92,1625.71 2701,1392 Z"
         fill="#a0bce7"
         fill-rule="evenodd"
         id="path304" />
      <path
         d="M 2687.95,1390.47 2891,1627 2877.86,1625.7 2675,1390 Z"
         fill="#a0bce7"
         fill-rule="evenodd"
         id="path306" />
      <g
         clip-path="url(#clip6)"
         id="g322">
        <g
           clip-path="url(#clip7)"
           id="g320">
          <g
             clip-path="url(#clip8)"
             id="g318">
            <path
               d="m 69.3869,57.6384 c 0,-18.5946 15.0738,-33.6684 33.6681,-33.6684 18.595,0 33.669,15.0738 33.669,33.6684 0,18.5946 -15.074,33.6685 -33.669,33.6685 -18.5943,0 -33.6681,-15.0739 -33.6681,-33.6685 z m 4.6537,0 c 0,16.0245 12.9903,29.0148 29.0144,29.0148 16.025,0 29.015,-12.9903 29.015,-29.0148 0,-16.0244 -12.99,-29.0147 -29.015,-29.0147 -16.0241,0 -29.0144,12.9903 -29.0144,29.0147 z"
               fill="#38e299"
               fill-rule="evenodd"
               transform="matrix(-0.104357,-0.99454,1.20129,-0.126052,2265.05,1704.12)"
               id="path308" />
            <g
               clip-path="url(#clip9)"
               id="g312">
              <path
                 d="m 66.2329,54.1691 c 0,-18.5946 15.0739,-33.6684 33.6685,-33.6684 18.5946,0 33.6686,15.0738 33.6686,33.6684 0,18.5946 -15.074,33.6684 -33.6686,33.6684 -18.5946,0 -33.6685,-15.0738 -33.6685,-33.6684 z m 0.6936,0 c 0,18.2115 14.7633,32.9749 32.9749,32.9749 18.2116,0 32.9746,-14.7634 32.9746,-32.9749 0,-18.2115 -14.763,-32.9749 -32.9746,-32.9749 -18.2116,0 -32.9749,14.7634 -32.9749,32.9749 z"
                 fill="#38e299"
                 fill-rule="evenodd"
                 transform="matrix(-0.104357,-0.99454,1.20129,-0.126052,2265.05,1704.12)"
                 id="path310" />
            </g>
            <g
               clip-path="url(#clip10)"
               id="g316">
              <path
                 d="m 70.0177,53.7748 c 0,-16.4607 13.3087,-29.8048 29.726,-29.8048 16.4173,0 29.7263,13.3441 29.7263,29.8048 0,16.4608 -13.309,29.8049 -29.7263,29.8049 -16.4173,0 -29.726,-13.3441 -29.726,-29.8049 z m 0.6123,0 c 0,16.1226 13.0347,29.1925 29.1137,29.1925 16.0793,0 29.1133,-13.0699 29.1133,-29.1925 0,-16.1225 -13.034,-29.1924 -29.1133,-29.1924 -16.079,0 -29.1137,13.0699 -29.1137,29.1924 z"
                 fill="#38e299"
                 fill-rule="evenodd"
                 transform="matrix(-0.104357,-0.99454,1.20129,-0.126052,2265.05,1704.12)"
                 id="path314" />
            </g>
          </g>
        </g>
      </g>
      <path
         d="m 2177.98,1404.97 c -7.44,-7.63 -15.25,-9.03 -25.64,-8.97 l -9.11,0.25 c -9.13,-0.02 -12.13,4.37 -6.07,10.59 36.08,35.08 86.54,90.25 128.69,138.84 6.85,8.54 12.6,9.98 20.56,9.09 l 17.53,-2.19 c 3.82,-0.78 4.57,-5.35 -0.68,-11.38 -42.23,-46.96 -84.45,-96.72 -125.28,-136.23 z"
         fill="#a0bce7"
         fill-rule="evenodd"
         id="path324" />
      <path
         d="M 2191.57,1396.29 2326,1542 2317.3,1541.2 2183,1396 Z"
         fill="#eeb2a8"
         fill-rule="evenodd"
         id="path326" />
      <path
         d="m 2623,1390.71 c 27.15,21.84 180.47,198.3 208.07,234.4 L 2864,1626 c -67.95,-76.94 -152.58,-183.08 -208.51,-235.51 -10.39,-0.82 -22.55,-0.52 -32.49,0.22 z"
         fill="#a0bce7"
         fill-rule="evenodd"
         id="path328" />
      <path
         d="M 2554.83,1389.46 2756,1624 2742.98,1622.71 2542,1389 Z"
         fill="#a0bce7"
         fill-rule="evenodd"
         id="path330" />
      <path
         d="M 2527.89,1387.46 2730,1622 2716.92,1620.71 2515,1387 Z"
         fill="#a0bce7"
         fill-rule="evenodd"
         id="path332" />
      <path
         d="M 2501.89,1385.47 2704,1622 2690.92,1620.7 2489,1385 Z"
         fill="#a0bce7"
         fill-rule="evenodd"
         id="path334" />
      <path
         d="m 2437,1385.71 c 27.15,21.84 180.47,198.3 208.07,234.4 L 2678,1621 c -67.95,-76.94 -152.58,-183.08 -208.51,-235.51 -10.39,-0.82 -22.55,-0.52 -32.49,0.22 z"
         fill="#a0bce7"
         fill-rule="evenodd"
         id="path336" />
      <path
         d="M 2580.77,1390.46 2781,1625 2768.04,1623.71 2568,1390 Z"
         fill="#a0bce7"
         fill-rule="evenodd"
         id="path338" />
      <path
         d="m 2326,1486.78 148.56,-7.78 10.44,10.22 -147.61,7.78"
         fill="#a0bce7"
         fill-rule="evenodd"
         id="path340" />
      <path
         id="rect342"
         style="fill:#e1ecf2"
         d="m 4162,802 h 623 v 822 h -623 z" />
      <g
         aria-label="E"
         transform="translate(4382.35,1073)"
         id="text344"
         style="font-weight:700;font-size:319px;font-family:Aptos, Aptos_MSFontService, sans-serif;fill:#12355a">
        <path
           d="M 197.3501,0 H 29.594727 V -231.9292 H 197.3501 v 44.85938 H 89.095703 v 40.03076 H 189.56201 v 44.85937 H 89.095703 v 57.320315 H 197.3501 Z"
           id="path1842" />
      </g>
      <g
         aria-label="F P"
         transform="translate(4354.93,1200)"
         id="text346"
         style="font-weight:700;font-size:153px;font-family:Aptos, Aptos_MSFontService, sans-serif;fill:#12355a">
        <path
           d="M 93.906738,-89.723145 H 42.732422 v 20.693848 h 47.438965 v 21.515625 H 42.732422 V 0 H 14.194336 v -111.23877 h 79.712402 z"
           id="path1845" />
        <path
           d="m 257.81396,-76.126465 q 0,7.470703 -2.61474,14.642578 -2.61475,7.097168 -7.4707,11.953125 -6.64893,6.574219 -14.8667,9.936035 -8.14307,3.361817 -20.32032,3.361817 H 194.68652 V 0 h -28.6875 v -111.23877 h 47.21485 q 10.6084,0 17.85498,1.86768 7.32129,1.79296 12.92431,5.45361 6.72364,4.407714 10.23487,11.280761 3.58593,6.873047 3.58593,16.510254 z m -29.65869,0.672363 q 0,-4.706543 -2.54004,-8.068359 -2.54003,-3.436523 -5.90185,-4.78125 -4.48242,-1.792969 -8.74072,-1.942383 -4.2583,-0.224121 -11.35547,-0.224121 h -4.93067 v 33.319336 h 8.21778 q 7.32129,0 12.02783,-0.896484 4.78125,-0.896485 7.99365,-3.585938 2.76416,-2.390625 3.95947,-5.677734 1.27002,-3.361817 1.27002,-8.143067 z"
           id="path1847" />
      </g>
      <g
         aria-label="T O Z"
         transform="translate(4334.93,1295)"
         id="text348"
         style="font-weight:700;font-size:107px;font-family:Aptos, Aptos_MSFontService, sans-serif;fill:#12355a">
        <path
           d="M 70.793457,-62.747559 H 46.499023 V 0 h -20.0625 V -62.747559 H 2.1420898 V -77.794434 H 70.793457 Z"
           id="path1850" />
        <path
           d="m 195.08691,-38.871094 q 0,18.59961 -10.6582,29.5712893 -10.6582,10.9194336 -29.4668,10.9194336 -18.75634,0 -29.41455,-10.9194336 -10.6582,-10.9716793 -10.6582,-29.5712893 0,-18.756347 10.6582,-29.623535 10.65821,-10.919433 29.41455,-10.919433 18.70411,0 29.41455,10.919433 10.71045,10.867188 10.71045,29.623535 z m -26.59326,19.696778 q 2.92578,-3.552735 4.33643,-8.359375 1.41064,-4.858887 1.41064,-11.389649 0,-7.000976 -1.61963,-11.912109 -1.61963,-4.911133 -4.23193,-7.941406 -2.66455,-3.134766 -6.16504,-4.545411 -3.44824,-1.410644 -7.20996,-1.410644 -3.81396,0 -7.20996,1.358398 -3.34375,1.358399 -6.16504,4.493164 -2.6123,2.925782 -4.28418,8.098145 -1.61963,5.120117 -1.61963,11.912109 0,6.948731 1.56738,11.859864 1.61963,4.858886 4.23194,7.941406 2.6123,3.082519 6.11279,4.54541 3.50049,1.462891 7.3667,1.462891 3.86621,0 7.3667,-1.462891 3.50049,-1.515137 6.11279,-4.649902 z"
           id="path1852" />
        <path
           d="m 307.10254,0 h -65.35986 v -14.57666 l 38.7666,-48.170899 h -36.88574 v -15.046875 h 61.38916 v 14.837891 l -38.71436,47.909668 h 40.8042 z"
           id="path1854" />
      </g>
      <g
         aria-label="L P E D"
         transform="translate(4343.35,1417)"
         id="text350"
         style="font-weight:700;font-size:72px;font-family:Aptos, Aptos_MSFontService, sans-serif;fill:#12355a">
        <path
           d="M 44.4375,0 H 6.6796875 V -52.347656 H 20.179687 V -10.125 H 44.4375 Z"
           id="path1857" />
        <path
           d="m 120.375,-35.824219 q 0,3.515625 -1.23047,6.890625 -1.23047,3.339844 -3.51562,5.625 -3.12891,3.09375 -6.9961,4.675782 -3.83203,1.582031 -9.562498,1.582031 H 90.667969 V 0 h -13.5 v -52.347656 h 22.21875 q 4.992191,0 8.402341,0.878906 3.44532,0.84375 6.08203,2.566406 3.16407,2.074219 4.81641,5.308594 1.6875,3.234375 1.6875,7.769531 z m -13.95703,0.316407 q 0,-2.214844 -1.19531,-3.796875 -1.19532,-1.617188 -2.77735,-2.25 -2.10937,-0.84375 -4.113279,-0.914063 -2.003906,-0.105469 -5.34375,-0.105469 h -2.320312 v 15.679688 h 3.867187 q 3.445313,0 5.660154,-0.421875 2.25,-0.421875 3.76172,-1.6875 1.30078,-1.125 1.86328,-2.671875 0.59766,-1.582031 0.59766,-3.832031 z"
           id="path1859" />
        <path
           d="m 192.41016,0 h -37.86329 v -52.347656 h 37.86329 v 10.125 h -24.4336 v 9.035156 h 22.67578 v 10.125 h -22.67578 v 12.9375 h 24.4336 z"
           id="path1861" />
        <path
           d="m 277.80469,-26.121094 q 0,7.3125 -3.33985,13.113281 -3.33984,5.7656255 -8.4375,8.8593755 -3.83203,2.3203125 -8.40234,3.234375 Q 253.05469,0 246.79687,0 h -18.45703 v -52.347656 h 18.98438 q 6.39844,0 11.03906,1.089844 4.64063,1.054687 7.80469,3.023437 5.41406,3.304688 8.50781,8.929688 3.12891,5.589843 3.12891,13.183593 z m -13.95703,-0.105468 q 0,-5.167969 -1.89844,-8.824219 -1.86328,-3.691406 -5.94141,-5.765625 -2.07422,-1.019531 -4.2539,-1.371094 -2.14454,-0.386719 -6.50391,-0.386719 h -3.41016 V -9.8085938 H 245.25 q 4.81641,0 7.06641,-0.4218752 2.25,-0.457031 4.39453,-1.617187 3.6914,-2.109375 5.41406,-5.625 1.72266,-3.550781 1.72266,-8.753906 z"
           id="path1863" />
      </g>
      <path
         id="rect352"
         style="fill:#38e299"
         d="m 4217,1313 h 513 v 38 h -513 z" />
      <g
         aria-label="E D F C Z P"
         transform="translate(4336.27,1486)"
         id="text354"
         style="font-weight:700;font-size:48px;font-family:Aptos, Aptos_MSFontService, sans-serif;fill:#12355a">
        <path
           d="M 29.695312,0 H 4.453125 v -34.898437 h 25.242187 v 6.75 H 13.40625 V -22.125 h 15.117187 v 6.75 H 13.40625 v 8.625 h 16.289062 z"
           id="path1867" />
        <path
           d="m 86.625,-17.414062 q 0,4.874999 -2.226563,8.742187 -2.226562,3.84375 -5.625,5.90625 -2.554687,1.546875 -5.601562,2.15625 Q 70.125,0 65.953125,0 H 53.648437 v -34.898437 h 12.65625 q 4.265625,0 7.359375,0.726562 3.09375,0.703125 5.203125,2.015625 3.609375,2.203125 5.671875,5.953125 2.085938,3.726563 2.085938,8.789063 z m -9.304688,-0.07031 q 0,-3.445312 -1.265625,-5.882812 -1.242187,-2.460938 -3.960937,-3.84375 -1.382813,-0.679688 -2.835938,-0.914063 -1.429687,-0.257812 -4.335937,-0.257812 h -2.273438 v 21.8437495 h 2.273438 q 3.210937,0 4.710937,-0.28125 1.5,-0.3046875 2.929688,-1.078125 2.460937,-1.40625 3.609375,-3.7500005 1.148437,-2.367187 1.148437,-5.835937 z"
           id="path1869" />
        <path
           d="m 134.90625,-28.148437 h -16.05469 v 6.492187 h 14.88281 v 6.75 H 118.85156 V 0 h -8.95312 v -34.898437 h 25.00781 z"
           id="path1871" />
        <path
           d="m 173.29687,0.6796875 q -3.89062,0 -7.19531,-1.1484375 -3.28125,-1.1484375 -5.64844,-3.421875 -2.36718,-2.2734375 -3.67968,-5.671875 -1.28907,-3.398438 -1.28907,-7.851562 0,-4.148438 1.24219,-7.523438 1.24219,-3.375 3.60938,-5.789062 2.27343,-2.320313 5.625,-3.585938 3.375,-1.265625 7.35937,-1.265625 2.20313,0 3.96094,0.257813 1.78125,0.234375 3.28125,0.632812 1.57031,0.445313 2.83594,1.007813 1.28906,0.539062 2.25,1.007812 v 8.460938 h -1.03125 q -0.65625,-0.5625 -1.66407,-1.335938 -0.98437,-0.773437 -2.25,-1.523437 -1.28906,-0.75 -2.78906,-1.265625 -1.5,-0.515625 -3.21094,-0.515625 -1.89843,0 -3.60937,0.609375 -1.71094,0.585937 -3.16406,1.96875 -1.38282,1.335937 -2.25,3.539062 -0.84375,2.203125 -0.84375,5.34375 0,3.28125 0.91406,5.484375 0.9375,2.203125 2.34375,3.46875 1.42969,1.2890625 3.1875,1.8515625 1.75781,0.5390625 3.46875,0.5390625 1.64062,0 3.23437,-0.4921875 1.61719,-0.4921875 2.97657,-1.3359375 1.14843,-0.6796875 2.13281,-1.453125 0.98437,-0.773438 1.61719,-1.335938 h 0.9375 v 8.3437505 q -1.3125,0.5859375 -2.50782,1.1015625 -1.19531,0.515625 -2.50781,0.890625 -1.71094,0.4921875 -3.21094,0.75 -1.5,0.2578125 -4.125,0.2578125 z"
           id="path1873" />
        <path
           d="m 235.64062,0 h -29.32031 v -6.5390625 l 17.39063,-21.6093745 h -16.54688 v -6.75 h 27.53906 v 6.65625 L 217.33594,-6.75 h 18.30468 z"
           id="path1875" />
        <path
           d="m 287.08594,-23.882812 q 0,2.34375 -0.82032,4.59375 -0.82031,2.226562 -2.34375,3.749999 -2.08593,2.0625 -4.66406,3.117188 -2.55469,1.054687 -6.375,1.054687 h -5.60156 V 0 h -9 v -34.898437 h 14.8125 q 3.32812,0 5.60156,0.585937 2.29688,0.5625 4.05469,1.710938 2.10937,1.382812 3.21094,3.539062 1.125,2.15625 1.125,5.179688 z m -9.30469,0.210937 q 0,-1.476562 -0.79688,-2.53125 -0.79687,-1.078125 -1.85156,-1.5 -1.40625,-0.5625 -2.74219,-0.609375 -1.33593,-0.07031 -3.5625,-0.07031 h -1.54687 v 10.453125 h 2.57812 q 2.29688,0 3.77344,-0.28125 1.5,-0.28125 2.50781,-1.125 0.86719,-0.75 1.24219,-1.78125 0.39844,-1.054688 0.39844,-2.554688 z"
           id="path1877" />
      </g>
      <path
         id="rect356"
         style="fill:#e37e6e"
         d="m 4217,1502 h 513 v 38 h -513 z" />
      <path
         id="rect358"
         style="fill:#488eda"
         d="m 4135,1602 h 677 v 40 h -677 z" />
      <path
         id="rect360"
         style="fill:#488eda"
         d="m 4135,785 h 677 v 40 h -677 z" />
      <g
         aria-label="F E L O P Z D Z C"
         transform="translate(4333.01,1578)"
         id="text362"
         style="font-weight:700;font-size:32px;font-family:Aptos, Aptos_MSFontService, sans-serif;fill:#12355a">
        <path
           d="M 19.640625,-18.765625 H 8.9375 v 4.328125 h 9.921875 v 4.5 H 8.9375 V 0 H 2.96875 v -23.265625 h 16.671875 z"
           id="path1883" />
        <path
           d="M 51.546875,0 H 34.71875 v -23.265625 h 16.828125 v 4.5 H 40.6875 V -14.75 h 10.078125 v 4.5 H 40.6875 v 5.75 h 10.859375 z"
           id="path1885" />
        <path
           d="m 84.296875,0 h -16.78125 v -23.265625 h 6 V -4.5 h 10.78125 z"
           id="path1887" />
        <path
           d="m 121.46875,-11.625 q 0,5.5625 -3.1875,8.84375 -3.1875,3.265625 -8.8125,3.265625 -5.60937,0 -8.79687,-3.265625 -3.187505,-3.28125 -3.187505,-8.84375 0,-5.609375 3.187505,-8.859375 3.1875,-3.265625 8.79687,-3.265625 5.59375,0 8.79688,3.265625 3.20312,3.25 3.20312,8.859375 z m -7.95312,5.890625 q 0.875,-1.0625 1.29687,-2.5 0.42188,-1.453125 0.42188,-3.40625 0,-2.09375 -0.48438,-3.5625 -0.48437,-1.46875 -1.26562,-2.375 -0.79688,-0.9375 -1.84375,-1.359375 -1.03125,-0.421875 -2.15625,-0.421875 -1.14063,0 -2.15625,0.40625 -1,0.40625 -1.84375,1.34375 -0.78125,0.875 -1.28125,2.421875 -0.48438,1.53125 -0.48438,3.5625 0,2.078125 0.46875,3.546875 0.48438,1.453125 1.26563,2.375 0.78125,0.921875 1.82812,1.359375 1.04688,0.4375 2.20313,0.4375 1.15625,0 2.20312,-0.4375 1.04688,-0.453125 1.82813,-1.390625 z"
           id="path1889" />
        <path
           d="m 156.1875,-15.921875 q 0,1.5625 -0.54688,3.0625 -0.54687,1.484375 -1.5625,2.5 -1.39062,1.375 -3.10937,2.078125 -1.70313,0.703125 -4.25,0.703125 h -3.73438 V 0 h -6 v -23.265625 h 9.875 q 2.21875,0 3.73438,0.390625 1.53125,0.375 2.70312,1.140625 1.40625,0.921875 2.14063,2.359375 0.75,1.4375 0.75,3.453125 z m -6.20313,0.140625 q 0,-0.984375 -0.53125,-1.6875 -0.53125,-0.71875 -1.23437,-1 -0.9375,-0.375 -1.82813,-0.40625 -0.89062,-0.04687 -2.375,-0.04687 h -1.03125 v 6.96875 h 1.71875 q 1.53125,0 2.51563,-0.1875 1,-0.1875 1.67187,-0.75 0.57813,-0.5 0.82813,-1.1875 0.26562,-0.703125 0.26562,-1.703125 z"
           id="path1891" />
        <path
           d="M 189.35937,0 H 169.8125 v -4.359375 l 11.59375,-14.40625 H 170.375 v -4.5 h 18.35937 v 4.4375 L 177.15625,-4.5 h 12.20312 z"
           id="path1893" />
        <path
           d="m 226.4375,-11.609375 q 0,3.25 -1.48438,5.828125 -1.48437,2.5625 -3.75,3.9375 Q 219.5,-0.8125 217.46875,-0.40625 215.4375,0 212.65625,0 h -8.20313 v -23.265625 h 8.4375 q 2.84375,0 4.90625,0.484375 2.0625,0.46875 3.46875,1.34375 2.40625,1.46875 3.78125,3.96875 1.39063,2.484375 1.39063,5.859375 z m -6.20313,-0.04687 q 0,-2.296875 -0.84375,-3.921875 -0.82812,-1.640625 -2.64062,-2.5625 -0.92188,-0.453125 -1.89063,-0.609375 -0.95312,-0.171875 -2.89062,-0.171875 h -1.51563 v 14.5625 h 1.51563 q 2.14062,0 3.14062,-0.1875 1,-0.203125 1.95313,-0.71875 1.64062,-0.9375 2.40625,-2.5 0.76562,-1.578125 0.76562,-3.890625 z"
           id="path1895" />
        <path
           d="m 259.9375,0 h -19.54688 v -4.359375 l 11.59375,-14.40625 h -11.03125 v -4.5 h 18.35938 v 4.4375 L 247.73437,-4.5 h 12.20313 z"
           id="path1897" />
        <path
           d="m 285.54687,0.453125 q -2.59375,0 -4.79687,-0.765625 -2.1875,-0.765625 -3.76563,-2.28125 -1.57812,-1.515625 -2.45312,-3.78125 -0.85938,-2.265625 -0.85938,-5.234375 0,-2.765625 0.82813,-5.015625 0.82812,-2.25 2.40625,-3.859375 1.51562,-1.546875 3.75,-2.390625 2.25,-0.84375 4.90625,-0.84375 1.46875,0 2.64062,0.171875 1.1875,0.15625 2.1875,0.421875 1.04688,0.296875 1.89063,0.671875 0.85937,0.359375 1.5,0.671875 v 5.640625 h -0.6875 q -0.4375,-0.375 -1.10938,-0.890625 -0.65625,-0.515625 -1.5,-1.015625 -0.85937,-0.5 -1.85937,-0.84375 -1,-0.34375 -2.14063,-0.34375 -1.26562,0 -2.40625,0.40625 -1.14062,0.390625 -2.10937,1.3125 -0.92188,0.890625 -1.5,2.359375 -0.5625,1.46875 -0.5625,3.5625 0,2.1875 0.60937,3.65625 0.625,1.46875 1.5625,2.3125 0.95313,0.859375 2.125,1.234375 1.17188,0.359375 2.3125,0.359375 1.09375,0 2.15625,-0.328125 Q 289.75,-4.6875 290.65625,-5.25 q 0.76562,-0.453125 1.42187,-0.96875 0.65625,-0.515625 1.07813,-0.890625 h 0.625 v 5.5625 q -0.875,0.390625 -1.67188,0.734375 -0.79687,0.34375 -1.67187,0.59375 -1.14063,0.328125 -2.14063,0.5 -1,0.171875 -2.75,0.171875 z"
           id="path1899" />
      </g>
      <path
         d="m 3366.93,2835.96 11.92,343.34 c 24.25,32.58 44.92,49.67 76.32,61.99 58.82,1.19 67.57,16.69 65.58,42.92 -65.19,26.62 -151.84,3.17 -227.75,4.76 l 2.38,-106.1 h -11.92 c -3.58,-142.26 -41.74,-251.14 -39.35,-383.87 l 103.74,1.19 z"
         fill="#0c233c"
         fill-rule="evenodd"
         id="path364" />
      <path
         d="m 3171.32,2831.74 c 3.58,114.9 -16.68,205.94 -7.15,337.52 l -11.91,50.1 c 4.77,21.86 27.4,21.07 35.74,54.86 l -5.96,22.66 c -30.18,17.09 -79.42,18.68 -119.13,-2.39 l -2.38,-23.85 c 1.99,-23.45 19.46,-30.21 20.25,-52.48 v -45.32 l -9.53,-3.58 c 3.97,-120.06 -18.26,-230.58 -20.25,-345.87 l 65.52,-33.39 z"
         fill="#0c233c"
         fill-rule="evenodd"
         id="path366" />
      <path
         d="m 3248.23,1319.05 c -8.16,36.37 -13.33,46.4 5.97,80.45 15.78,27.83 13.54,96.52 -33.43,109.52 -67.79,18.77 -154.87,36.15 -210.93,-6.37 -61.09,-46.33 -26.71,-97.33 -9.95,-133.02 8.68,-18.48 -16.32,-47.53 -11.94,-85.63 z"
         fill="#0c233c"
         fill-rule="evenodd"
         id="path368" />
      <path
         d="m 2970.91,1463.8 c 156.73,-34.19 224.35,-16.7 319.81,-2.39 15.12,4.77 46.94,38.16 69.22,88.25 l 167.06,290.98 -90.69,33.39 -128.88,-205.12 c -11.93,104.15 -36.6,124.03 0,217.05 26.25,131.18 70.41,279.05 78.76,393.54 9.15,188.42 -28.24,326.75 -11.93,558.1 -34.93,9.47 -102.47,15.99 -139.38,14.32 -19.34,-20.75 -15.91,-22.58 -43.76,-119.82 1.19,60.59 3.34,74.98 -3.98,125.54 -52.85,1.27 -103.79,0 -158.55,-17.65 -14.32,-252.42 -83.93,-466.68 -93.47,-567.65 -6.24,-86.39 -10.08,-459 -15.12,-688.49 11.93,-51.68 38.19,-118.46 50.91,-120.05 z"
         fill="#ffffff"
         fill-rule="evenodd"
         id="path370" />
      <path
         d="M 0,0 C 0.0801101,2.79465 0.160086,5.5893 0.240196,8.38395 42.845,22.7495 59.9838,72.9532 56.633,144.579 L 65.2605,145 C 69.949,71.0722 52.8299,17.5976 0,0 Z"
         fill="#437e9b"
         fill-rule="evenodd"
         transform="matrix(-1,0,0,1,3083,1417)"
         id="path372" />
      <path
         d="m 2999,1590 c 0,-13.25 10.75,-24 24,-24 13.25,0 24,10.75 24,24 0,13.25 -10.75,24 -24,24 -13.25,0 -24,-10.75 -24,-24 z"
         fill="#c2d9f3"
         fill-rule="evenodd"
         id="path374" />
      <path
         d="m 2991,1590.5 c 0,-17.4 14.1,-31.5 31.5,-31.5 17.4,0 31.5,14.1 31.5,31.5 0,17.4 -14.1,31.5 -31.5,31.5 -17.4,0 -31.5,-14.1 -31.5,-31.5 z m 15.75,0 c 0,8.7 7.05,15.75 15.75,15.75 8.7,0 15.75,-7.05 15.75,-15.75 0,-8.7 -7.05,-15.75 -15.75,-15.75 -8.7,0 -15.75,7.05 -15.75,15.75 z"
         fill="#2d5467"
         fill-rule="evenodd"
         id="path376" />
      <path
         d="m 3230,1673.81 c -15.65,-5.78 -50.8,-22.51 -56.17,-27.54 -5.13,-4.83 -5.25,-13.79 -3.56,-23.96 3.69,-22.21 7.7,-46.35 12.78,-64.67 2.94,-10.61 14.56,-21.86 22.28,-24.25 7.75,-2.4 13.92,-2.1 19.62,-0.6 l 4.16,-6.89 c -6.34,-0.5 -17.27,-1.9 -26.15,0.3 -7.25,1.8 -23.35,9.05 -28.23,29.94 -4.46,19.07 -8.56,37.38 -12.78,64.68 -1.19,7.68 -2.62,21.3 5.05,28.44 10.4,9.68 34.17,21.46 61.51,31.74 z"
         fill="#437e9b"
         fill-rule="evenodd"
         id="path378" />
      <path
         d="M 69.4283,148.616 C 53.6801,142.835 18.3103,126.136 12.9136,121.106 7.74317,116.287 7.62463,107.336 9.32526,97.1844 13.0409,75.0048 17.0709,50.8915 22.1832,32.5961 25.1444,21.999 36.8352,10.7677 44.6097,8.37556 52.4031,5.97763 58.6137,6.28252 64.3449,7.77758 L 68.5313,0.900104 C 62.1522,0.401832 51.1593,-0.999306 42.2176,1.19922 34.9296,2.99114 18.7257,10.2389 13.8107,31.1009 9.32551,50.1385 5.20121,68.4335 0.953094,95.6892 -0.243108,103.364 -1.68167,116.966 6.03626,124.096 16.502,133.764 40.4235,145.526 67.9333,155.792 Z"
         fill="#437e9b"
         fill-rule="evenodd"
         transform="matrix(-0.961819,-0.273686,-0.273686,0.961819,3285.38,1543.17)"
         id="path380" />
      <path
         d="m 3156.9,1417 -0.9,7.45 c 39.83,11.93 61.74,51.87 63.93,101.95 l 8.07,0.6 c -0.1,-48.29 -21.71,-95.39 -71.1,-110 z"
         fill="#437e9b"
         fill-rule="evenodd"
         id="path382" />
      <path
         d="m 3163,1670.4 c 0.02,-4.09 5.92,-5.63 12.54,-6.37 1.96,-0.27 4.39,1.26 4.46,3.71 l -0.04,5.8 c -0.02,2.32 -2.14,4.76 -4.43,4.43 -5.81,-1.05 -12.52,-3.62 -12.53,-7.57 z"
         fill="#2d5467"
         fill-rule="evenodd"
         id="path384" />
      <path
         d="m 3243.14,1680.85 c -1.14,4 -7.2,3.93 -13.74,2.89 -1.95,-0.26 -3.86,-2.4 -3.26,-4.82 l 1.62,-5.67 c 0.65,-2.26 3.35,-4.08 5.45,-3.14 5.27,2.57 10.99,6.87 9.93,10.74 z"
         fill="#2d5467"
         fill-rule="evenodd"
         id="path386" />
      <path
         d="m 3052,1451.7 27.56,-16.1 80.89,-0.6 33.55,13.72 -66.51,224.28 z"
         fill="#18a468"
         fill-rule="evenodd"
         id="path388" />
      <path
         d="m 3082.2,1404.93 -1.2,32.87 43.69,53.2 35.31,-52 -1.2,-41.24 -41.29,-10.76 z"
         fill="#e37e6e"
         fill-rule="evenodd"
         id="path390" />
      <path
         d="m 3001.01,1252.97 c -37.82,18.89 -27.87,72.64 8.36,79.24 25.21,47.28 62.37,79.11 103.11,84.79 47.51,-3.04 91.83,-40.54 110.27,-85.18 42.2,-0.13 54.15,-56.92 11.95,-80.03 L 3167.02,1146 Z"
         fill="#eeb2a8"
         fill-rule="evenodd"
         id="path392" />
      <path
         d="m 3169.66,1159.65 c 21.96,57.32 34.79,85.59 63.5,108.68 0.13,-5.31 1.06,-8.23 1.19,-13.54 9.66,1.73 11.38,4.25 16.27,9.95 19.85,-103.37 -13.1,-217.89 -134.54,-183.52 -85.34,-24.28 -153.6,64.49 -127.41,182.73 4.77,-6.11 5.16,-7.43 13.1,-9.95 1.59,13.66 1.99,26.14 13.1,41 7.08,-17.32 16.32,-35.08 48.42,-46.98 51.2,-18.97 92.34,-45.58 106.37,-88.37 z"
         fill="#0c233c"
         fill-rule="evenodd"
         id="path394" />
      <path
         d="M 0,599.391 C 149.927,536.886 244.628,29.023 249.993,0 250.932,76.9097 151.214,447.355 160.277,585.414 95.6342,601.285 68.3159,605.344 0,599.391 Z"
         fill="#c3dae5"
         fill-rule="evenodd"
         transform="matrix(-1,0,0,1,3185,2258)"
         id="path396" />
      <path
         d="m 2760,1543.53 c 105.22,227.11 103.52,396.05 35,675.62 222.1,12.03 324.88,88.98 461.39,117.64 259.75,54.53 351.36,13.44 375.47,-128.13 18.91,-111.04 -26.14,-218.16 1.59,-366.27 27.74,-148.11 29.7,-134.59 44.55,-201.89 -52.64,12.85 -228.12,178.09 -381.84,171.69 -158.96,-6.63 -329.73,-282.84 -536.16,-268.66 z"
         fill="#c3dae5"
         fill-rule="evenodd"
         id="path398" />
      <path
         d="m 2831.76,1694 c 59.29,243.06 13.94,360.55 -36.76,524.97 222.14,12.02 324.66,90.26 461.46,117.57 272.93,54.49 347.35,14.95 375.54,-128.05 -451.98,71.87 -574.81,-404.23 -800.24,-514.49 z"
         fill="#a6c7d8"
         fill-rule="evenodd"
         id="path400" />
      <path
         d="m 2812.82,1703 c 10.8,0.4 18.3,-0.4 32.4,1.2 13.41,2.93 17.21,11.24 34.81,19.56 10.4,8.25 5.9,18.59 2.1,25.65 7.17,9.58 5.63,19.16 0.5,27.84 5.7,9.52 3,17.53 -3.6,22.26 5.17,9.94 -5.57,16.6 -16.6,18.76 -12.04,2.4 -28.27,-1.8 -42.41,-2.69 -9.33,-11.18 -7.87,-17.87 -6.4,-26.35 -5.17,-11.55 -7.34,-23.09 1.6,-31.94 -5.13,-10.48 -3.07,-22.45 0.8,-28.74 -7.07,-9.12 -9.94,-19.13 -3.2,-25.55 z"
         fill="#eeb2a8"
         fill-rule="evenodd"
         id="path402" />
      <path
         d="m 3634.23,2031 c -10.66,-0.4 -18.07,0.4 -31.99,-1.19 -13.23,-2.9 -16.98,-11.14 -34.36,-19.39 -10.27,-8.18 -5.82,-18.44 -2.07,-25.43 -7.08,-9.5 -5.56,-18.99 -0.49,-27.6 -5.63,-9.43 -2.97,-17.38 3.55,-22.07 -5.1,-9.86 5.5,-16.45 16.39,-18.6 11.88,-2.37 27.91,1.78 41.86,2.67 9.22,11.09 7.77,17.72 6.32,26.13 5.1,11.44 7.24,22.88 -1.58,31.66 5.07,10.39 3.03,22.26 -0.79,28.49 6.98,9.04 9.81,18.96 3.16,25.33 z"
         fill="#eeb2a8"
         fill-rule="evenodd"
         id="path404" />
      <path
         d="m 3736,3096 44.25,-1576 h 88.5 L 3913,3096 Z"
         fill="#c3dae5"
         fill-rule="evenodd"
         id="path406" />
      <path
         d="m 3583,3150 52.01,-60 h 378.98 l 52.01,60 z"
         fill="#12355a"
         fill-rule="evenodd"
         id="path408" />
      <path
         id="rect410"
         style="fill:#0c233c"
         d="m 3583,3150 h 483 v 49 h -483 z" />
      <path
         d="m 4098,1512 -58.08,117 H 3609.08 L 3551,1512 Z"
         fill="#c3dae5"
         fill-rule="evenodd"
         id="path412" />
      <path
         d="m 3559,1343 h 531 v 117 h -531 z m 29.39,29.39 v 58.22 h 472.22 v -58.22 z"
         fill="#0c233c"
         fill-rule="evenodd"
         id="path414" />
      <path
         d="m 3601,1331.67 c 0,-7 5.67,-12.67 12.67,-12.67 h 53.66 c 7,0 12.67,5.67 12.67,12.67 v 50.66 c 0,7 -5.67,12.67 -12.67,12.67 h -53.66 c -7,0 -12.67,-5.67 -12.67,-12.67 z"
         fill="#0c233c"
         fill-rule="evenodd"
         id="path416" />
      <path
         d="m 3687,1419.67 c 0,-7 5.67,-12.67 12.67,-12.67 h 53.66 c 7,0 12.67,5.67 12.67,12.67 v 50.66 c 0,7 -5.67,12.67 -12.67,12.67 h -53.66 c -7,0 -12.67,-5.67 -12.67,-12.67 z"
         fill="#0c233c"
         fill-rule="evenodd"
         id="path418" />
      <path
         d="m 3785,1387 h 79 v 106 h -79 z m 19.84,19.84 v 66.32 h 39.32 v -66.32 z"
         fill="#0c233c"
         fill-rule="evenodd"
         id="path420" />
      <path
         d="m 3792,3096 16.25,-1613 h 32.5 L 3857,3096 Z"
         fill="#0c233c"
         fill-rule="evenodd"
         id="path422" />
      <path
         d="m 1362,2660 c 0,-16.57 120.44,-30 269,-30 148.56,0 269,13.43 269,30 0,16.57 -120.44,30 -269,30 -148.56,0 -269,-13.43 -269,-30 z"
         fill="#a0bce7"
         fill-rule="evenodd"
         id="path424" />
      <path
         d="m 1528.33,2729 c -42.11,-262.33 -73.55,-519.25 -142.33,-787 110.67,258.72 189.33,497.58 252,787 z"
         fill="#38e299"
         fill-rule="evenodd"
         id="path426" />
      <path
         d="m 1628,2729.26 c 57.59,-258.83 104.56,-523.08 210,-760.26 -53.39,251.39 -74.87,499.17 -75.09,765 z"
         fill="#38e299"
         fill-rule="evenodd"
         id="path428" />
      <path
         d="m 1529,2732 c 67.88,-326.75 135.77,-608.35 166.17,-964 59.91,344.81 27.01,662.53 -13.03,964 z"
         fill="#18a468"
         fill-rule="evenodd"
         id="path430" />
      <path
         d="m 1661,2729 c 113.02,-165.33 217.13,-325.24 307,-496 -35.46,188.83 -104.74,334.28 -197.17,496 z"
         fill="#38e299"
         fill-rule="evenodd"
         id="path432" />
      <path
         d="M 1487.88,2729.19 C 1423.41,2554.15 1389.25,2402.59 1364,2242 c 74.38,169.62 154.1,319.38 257,489 z"
         fill="#18a468"
         fill-rule="evenodd"
         id="path434" />
      <path
         d="m 1512.55,2728.39 c -14.79,-454.27 -59.84,-780.41 51.75,-1200.39 -8.91,288.23 56.95,753.34 131.7,1204 z"
         fill="#38e299"
         fill-rule="evenodd"
         id="path436" />
      <path
         d="M 0,340 C 73.6598,215.213 326.425,128.88 385,0 361.889,142.521 247.391,264.962 142.699,338.192 Z"
         fill="#38e299"
         fill-rule="evenodd"
         transform="matrix(-1,0,0,1,1680,2391)"
         id="path438" />
      <path
         d="m 1902,2660 -114.52,457.56 c -92.33,47.92 -211.3,49.25 -312.96,0 L 1360,2660 c 189.99,27.95 406.64,30.61 542,0 z"
         fill="#ecf2fa"
         fill-rule="evenodd"
         id="path440" />
      <path
         d="m 1716,3149 c 0,-19.88 16.12,-36 36,-36 19.88,0 36,16.12 36,36 0,19.88 -16.12,36 -36,36 -19.88,0 -36,-16.12 -36,-36 z"
         fill="#6aa2be"
         fill-rule="evenodd"
         id="path442" />
      <path
         d="m 2344,3149 c 0,-19.88 16.12,-36 36,-36 19.88,0 36,16.12 36,36 0,19.88 -16.12,36 -36,36 -19.88,0 -36,-16.12 -36,-36 z"
         fill="#6aa2be"
         fill-rule="evenodd"
         id="path444" />
      <path
         d="m 2267,3270 c 0,-19.88 16.12,-36 36,-36 19.88,0 36,16.12 36,36 0,19.88 -16.12,36 -36,36 -19.88,0 -36,-16.12 -36,-36 z"
         fill="#6aa2be"
         fill-rule="evenodd"
         id="path446" />
      <path
         d="m 1814,3268 c 0,-19.88 16.12,-36 36,-36 19.88,0 36,16.12 36,36 0,19.88 -16.12,36 -36,36 -19.88,0 -36,-16.12 -36,-36 z"
         fill="#6aa2be"
         fill-rule="evenodd"
         id="path448" />
      <path
         d="m 1899,3077 c 0,-19.88 16.12,-36 36,-36 19.88,0 36,16.12 36,36 0,19.88 -16.12,36 -36,36 -19.88,0 -36,-16.12 -36,-36 z"
         fill="#6aa2be"
         fill-rule="evenodd"
         id="path450" />
      <path
         d="m 2183,3077 c 0,-19.88 16.12,-36 36,-36 19.88,0 36,16.12 36,36 0,19.88 -16.12,36 -36,36 -19.88,0 -36,-16.12 -36,-36 z"
         fill="#6aa2be"
         fill-rule="evenodd"
         id="path452" />
      <path
         d="m 1723,3134.82 c -0.3,-19.63 17.22,-42.45 43.65,-43.63 l 601.16,-0.18 c 33.4,-0.61 43.89,27.42 44.19,43.99 z"
         fill="#0c233c"
         fill-rule="evenodd"
         id="path454" />
      <path
         d="m 1907,3050.18 398.27,213.35 c 14.06,9.56 28.75,7.65 32.6,0 8.21,-20.95 -7.84,-40.62 -38.57,-55.19 l -350.54,-177.1 c -19.02,-8.98 -38.69,1.79 -41.76,18.94 z"
         fill="#0c233c"
         fill-rule="evenodd"
         id="path456" />
      <path
         d="M 0,22.1824 399.193,235.528 c 14.089,9.559 28.818,7.647 32.67,0 8.227,-20.946 -7.859,-40.618 -38.66,-55.192 L 41.8591,3.24056 C 22.7877,-5.74008 3.07647,5.03474 0,22.1824 Z"
         fill="#0c233c"
         fill-rule="evenodd"
         transform="matrix(-1,0,0,1,2244,3028)"
         id="path458" />
      <path
         d="m 2045,2761.5 c 0,-16.84 13.66,-30.5 30.5,-30.5 v 0 c 16.84,0 30.5,13.66 30.5,30.5 v 328 c 0,16.84 -13.66,30.5 -30.5,30.5 v 0 c -16.84,0 -30.5,-13.66 -30.5,-30.5 z"
         fill="#a6c7d8"
         fill-rule="evenodd"
         id="path460" />
      <path
         d="m 1802,2623.25 c 0,29.41 127.38,53.25 284.5,53.25 157.12,0 284.5,-23.84 284.5,-53.25 v 106.5 c 0,29.41 -127.38,53.25 -284.5,53.25 -157.12,0 -284.5,-23.84 -284.5,-53.25 z"
         fill="#0c233c"
         fill-rule="evenodd"
         id="path462" />
      <path
         d="m 1802,2623.25 c 0,-29.41 127.38,-53.25 284.5,-53.25 157.12,0 284.5,23.84 284.5,53.25 0,29.41 -127.38,53.25 -284.5,53.25 -157.12,0 -284.5,-23.84 -284.5,-53.25 z"
         fill="#6d7b8a"
         fill-rule="evenodd"
         id="path464" />
    </g>
  </g>
</svg>
