<?xml version="1.0" encoding="UTF-8" standalone="no"?>
<!-- Created with Inkscape (http://www.inkscape.org/) -->

<svg
   width="1349.1104mm"
   height="903.02289mm"
   viewBox="0 0 1349.1104 903.02289"
   version="1.1"
   id="svg5"
   xmlns="http://www.w3.org/2000/svg"
   xmlns:svg="http://www.w3.org/2000/svg">
  <defs
     id="defs2">
    <clipPath
       id="clip0-82">
      <rect
         x="96"
         y="-11"
         width="5099"
         height="3413"
         id="rect5207" />
    </clipPath>
    <clipPath
       id="clip1-08">
      <path
         d="m 3328.62,2792.74 229.85,23.86 -25.31,243.81 -229.85,-23.85 z"
         fill-rule="evenodd"
         clip-rule="evenodd"
         id="path5210" />
    </clipPath>
    <clipPath
       id="clip2-57">
      <path
         d="m 3328.62,2792.74 229.85,23.86 -25.31,243.81 -229.85,-23.85 z"
         fill-rule="evenodd"
         clip-rule="evenodd"
         id="path5213" />
    </clipPath>
    <clipPath
       id="clip3-3">
      <path
         d="m 3328.62,2792.74 229.85,23.86 -25.31,243.81 -229.85,-23.85 z"
         fill-rule="evenodd"
         clip-rule="evenodd"
         id="path5216" />
    </clipPath>
    <clipPath
       id="clip4-1">
      <path
         d="m 3328.62,2792.74 -24.07,231.87 59.01,6.12 c -0.02,-0.04 -0.05,-0.07 -0.07,-0.11 -1.64,-2.93 -1.4,-4.75 -1.33,-7.57 0.47,-4.6 1.25,-9.15 2.16,-13.67 0.91,-4.27 1.78,-8.69 3.54,-12.68 0.26,-0.57 0.57,-1.1 0.85,-1.65 9.02,-17.61 3.84,26.07 16.03,10.71 0.05,-0.06 0.13,-0.26 0.15,-0.18 0.02,0.13 -0.06,0.27 -0.1,0.4 -0.13,0.44 -0.27,0.87 -0.39,1.31 -0.17,0.6 -0.33,1.21 -0.48,1.81 -0.44,1.8 -0.6,2.62 -0.98,4.45 -0.37,1.88 -0.73,3.76 -1.04,5.65 0.35,0.08 0.7,0.15 1.06,0.23 5.39,0.98 10.78,1.94 16.15,2.99 3.56,0.7 7.09,1.53 10.59,2.53 2.29,0.66 4.51,1.55 6.78,2.27 1.63,0.51 2.39,0.69 4.07,1.13 4.49,1.15 9,0.7 13.5,-0.19 3.27,-0.69 6.42,-1.85 9.39,-3.46 2.62,-1.79 5.11,-3.77 7.71,-5.57 6.11,-4.04 12.98,-6.48 19.76,-8.88 7.52,-2.72 15.33,-4.63 22.65,-7.98 1.39,-0.64 2.73,-1.38 4.09,-2.08 5.44,-3.09 10.12,-7.41 13.59,-12.83 2.58,-4.04 2.95,-5.47 4.85,-9.97 0.65,-2.01 1.38,-3.99 1.96,-6.02 1.18,-4.11 2.21,-9.03 3.01,-13.22 1.22,-6.42 2.14,-12.9 3.06,-19.38 0.68,-5.03 1.35,-10.08 1.7,-15.14 0.24,-3.4 0.29,-6.8 0.29,-10.19 -0.06,-3.24 -0.45,-6.47 -1.58,-9.48 -0.37,-0.99 -0.99,-1.74 -1.73,-2.44 -1.01,-0.77 -1.96,-1.63 -2.94,-2.46 -11.41,-9.73 -6.51,-21.45 3.14,-20.16 2.7,0.36 5.77,1.74 8.97,4.46 1.39,1.2 2.81,2.36 4.16,3.6 1.04,1.09 1.41,1.42 2.37,2.66 0.63,0.82 1.2,1.68 1.73,2.57 l 7.96,-76.66 z m 201.05,201.14 c -0.87,1.71 -1.91,3.47 -3.57,5.91 -4.06,6.01 -9.16,11.13 -14.98,15.21 -1.75,1.23 -3.63,2.24 -5.45,3.35 -1.79,0.89 -3.56,1.85 -5.39,2.67 -7.61,3.44 -15.67,5.54 -23.5,8.31 -5.23,1.84 -10.57,3.64 -15.35,6.63 -2.01,1.37 -3.93,2.9 -5.91,4.32 l 68.6,7.12 z m -148.46,30.43 c -0.02,0.2 -0.05,0.4 -0.07,0.6 0.17,0.66 0.16,0.17 0.07,-0.6 z"
         id="path5219" />
    </clipPath>
    <clipPath
       id="clip5-1">
      <path
         d="m 3339.72,2805.97 -8.7,83.81 c 0.49,-0.73 1.01,-1.51 1.46,-2.11 0.97,-6.83 2.22,-13.61 4.17,-20.23 2.35,-7.83 4.97,-15.69 9.46,-22.5 0.72,-1.02 1.39,-2.07 2.14,-3.06 3.49,-4.59 7.79,-8.41 12.54,-11.45 0.87,-0.52 1.73,-1.06 2.61,-1.56 3.44,-1.94 7.07,-3.47 10.6,-5.2 4.84,-2.17 9.7,-4.26 14.62,-6.2 4.44,-1.75 8.87,-3.57 13.39,-5.04 z m 144.35,14.98 c 3.4,1.74 6.74,3.63 10.03,5.59 3.1,2.06 2.85,1.85 5.74,3.89 1.5,1.05 2.97,2.17 4.48,3.22 0.26,0.18 0.53,0.34 0.79,0.51 v 0 c 16.03,10.34 5.29,28.03 -10.34,17.03 -3.62,-2.54 -7.22,-5.11 -10.92,-7.55 -4.75,-2.77 -9.59,-5.43 -14.64,-7.56 -3.23,-1.37 -4.02,-1.57 -7.32,-2.69 -6.26,-2.01 -12.68,-3.39 -19.13,-4.52 -3.37,-0.57 -6.79,-1.01 -10.21,-1.13 -1.97,-0.07 -2.78,0 -4.76,0.09 -5.57,0.25 -11.05,1.42 -16.49,2.7 -5.53,1.42 -10.84,3.67 -16.17,5.78 -4.65,1.83 -9.24,3.8 -13.8,5.85 -3.17,1.58 -6.46,2.92 -9.55,4.69 -0.56,0.32 -1.1,0.68 -1.65,1.02 -2.85,1.86 -5.4,4.19 -7.44,7 -0.42,0.57 -0.79,1.18 -1.18,1.77 -3.16,5.08 -4.97,10.9 -6.67,16.65 -1.68,5.76 -2.75,11.67 -3.57,17.62 -0.94,8.06 -1.67,16.13 -2.44,24.2 -0.3,2.87 -0.49,5.76 -0.93,8.61 -0.12,0.81 -0.54,3.22 -0.9,3.89 -0.85,1.58 -1.95,2.99 -2.92,4.48 -1.16,-0.05 -2.33,-0.04 -3.5,-0.03 -0.25,2.26 -0.3,3.49 -0.46,6.11 -0.26,5.58 0.09,11.17 0.75,16.7 0.64,4.46 1.66,8.84 2.76,13.19 1.07,4.02 2.54,7.89 4.02,11.75 1.71,4.3 3.59,8.53 5.43,12.77 1.55,3.54 3.14,7.05 4.79,10.53 1.29,2.75 2.65,5.46 3.96,8.2 0.41,0.77 0.8,1.56 1.3,2.28 0.27,0.4 0.29,0.49 0.21,0.26 0.16,0.13 0.34,0.38 0.52,0.47 0.05,0.03 -0.09,-0.08 -0.12,-0.14 -0.01,-0.02 0.04,0 0.05,0.01 0.11,0.05 0.21,0.12 0.32,0.19 0.75,0.46 0.41,0.25 1.02,0.62 0.7,0.41 1.34,0.84 1.94,1.28 l 145.2,15.07 21.31,-205.26 z m -160.85,143.99 -4.8,46.29 23.01,2.39 c -0.21,-0.45 -0.43,-0.89 -0.64,-1.34 -1.74,-3.68 -3.42,-7.39 -5.05,-11.13 -1.98,-4.52 -3.98,-9.04 -5.8,-13.64 -1.76,-4.61 -3.5,-9.25 -4.74,-14.06 -0.71,-2.82 -1.39,-5.66 -1.98,-8.51 z"
         id="path5222" />
    </clipPath>
  </defs>
  <g
     id="layer1"
     transform="translate(574.19166,296.95162)">
    <g
       clip-path="url(#clip0-82)"
       transform="matrix(0.26458333,0,0,0.26458333,-599.59166,-294.04118)"
       id="g5615">
      <path
         d="M 1093.42,3369.08 C 955.8,2928.44 514.78,2831.61 254.153,2416.52 -107.952,1839.79 203.48,826.696 667.019,491.947 1654.06,-220.856 2237.27,325.627 2927.63,278.107 3618,230.586 4105.96,-300.317 4809.22,206.826 c 756.72,545.694 159.06,1305.724 203.05,1736.644 43.99,430.93 136.49,606.97 60.92,848.89 -75.58,241.92 -432.75,360.82 -514.4,602.64"
         fill="#ecf2fa"
         fill-rule="evenodd"
         id="path5227" />
      <rect
         x="3349"
         y="1482"
         width="1779"
         height="1910"
         fill="#c3dae5"
         id="rect5229" />
      <rect
         x="3438"
         y="1565"
         width="1601"
         height="374"
         fill="#a6c7d8"
         id="rect5231" />
      <rect
         x="3438"
         y="2020"
         width="1601"
         height="374"
         fill="#a6c7d8"
         id="rect5233" />
      <rect
         x="3438"
         y="2476"
         width="1601"
         height="374"
         fill="#a6c7d8"
         id="rect5235" />
      <rect
         x="3438"
         y="2934"
         width="1601"
         height="374"
         fill="#a6c7d8"
         id="rect5237" />
      <rect
         x="4922"
         y="2037"
         width="85"
         height="357"
         fill="#3abeae"
         fill-opacity="0.501961"
         id="rect5239" />
      <rect
         x="4836"
         y="2037"
         width="86"
         height="357"
         fill="#85b4e7"
         fill-opacity="0.501961"
         id="rect5241" />
      <rect
         x="4751"
         y="2059"
         width="85"
         height="335"
         fill="#6aa2be"
         fill-opacity="0.501961"
         id="rect5243" />
      <rect
         x="4665"
         y="2037"
         width="85"
         height="357"
         fill="#6aa2be"
         fill-opacity="0.501961"
         id="rect5245" />
      <rect
         x="4580"
         y="2037"
         width="85"
         height="357"
         fill="#3abeae"
         fill-opacity="0.501961"
         id="rect5247" />
      <path
         d="m 4341.06,2046.83 71.73,46.44 -194.26,300.07 -71.73,-46.44 z"
         fill="#3abeae"
         fill-rule="evenodd"
         fill-opacity="0.501961"
         id="path5249" />
      <rect
         x="4494"
         y="2037"
         width="86"
         height="357"
         fill="#6aa2be"
         fill-opacity="0.501961"
         id="rect5251" />
      <rect
         x="4409"
         y="2059"
         width="85"
         height="335"
         fill="#eeb2a8"
         fill-opacity="0.501961"
         id="rect5253" />
      <rect
         x="3438"
         y="2056"
         width="85"
         height="336"
         fill="#6aa2be"
         fill-opacity="0.501961"
         id="rect5255" />
      <rect
         x="3523"
         y="2056"
         width="86"
         height="336"
         fill="#6aa2be"
         fill-opacity="0.501961"
         id="rect5257" />
      <rect
         x="3609"
         y="2056"
         width="85"
         height="336"
         fill="#3abeae"
         fill-opacity="0.501961"
         id="rect5259" />
      <rect
         x="3694"
         y="2056"
         width="86"
         height="336"
         fill="#85b4e7"
         fill-opacity="0.501961"
         id="rect5261" />
      <rect
         x="3779"
         y="2056"
         width="86"
         height="336"
         fill="#6aa2be"
         fill-opacity="0.501961"
         id="rect5263" />
      <rect
         x="3865"
         y="2079"
         width="85"
         height="313"
         fill="#85b4e7"
         fill-opacity="0.501961"
         id="rect5265" />
      <rect
         x="3950"
         y="2056"
         width="86"
         height="336"
         fill="#eeb2a8"
         fill-opacity="0.501961"
         id="rect5267" />
      <rect
         x="3462"
         y="2475"
         width="61"
         height="374"
         fill="#6aa2be"
         fill-opacity="0.501961"
         id="rect5269" />
      <rect
         x="3962"
         y="2475"
         width="61"
         height="374"
         fill="#6aa2be"
         fill-opacity="0.501961"
         id="rect5271" />
      <rect
         x="3523"
         y="2548"
         width="439"
         height="301"
         fill="#eeb2a8"
         fill-opacity="0.501961"
         id="rect5273" />
      <path
         d="m 3603,2631 c 0,-16.57 13.43,-30 30,-30 h 222 c 16.57,0 30,13.43 30,30 v 0 c 0,16.57 -13.43,30 -30,30 h -222 c -16.57,0 -30,-13.43 -30,-30 z"
         fill="#e37e6e"
         fill-rule="evenodd"
         fill-opacity="0.501961"
         id="path5275" />
      <rect
         x="4023"
         y="2548"
         width="460"
         height="301"
         fill="#3abeae"
         fill-opacity="0.501961"
         id="rect5277" />
      <path
         d="m 4430.99,2723.65 c 1.21,38.38 -78.38,69.88 -177.79,70.34 -99.4,0.47 -180.97,-30.26 -182.19,-68.64 0,-0.27 -0.01,-0.53 -0.01,-0.8 z"
         fill="#2c8e82"
         fill-rule="evenodd"
         fill-opacity="0.501961"
         id="path5279" />
      <rect
         x="4483"
         y="2475"
         width="61"
         height="374"
         fill="#6aa2be"
         fill-opacity="0.501961"
         id="rect5281" />
      <rect
         x="4978"
         y="2477"
         width="61"
         height="374"
         fill="#6aa2be"
         fill-opacity="0.501961"
         id="rect5283" />
      <path
         d="m 4443.99,2546.65 c 1.21,38.38 -78.38,69.88 -177.79,70.34 -99.4,0.47 -180.97,-30.26 -182.19,-68.64 0,-0.27 -0.01,-0.53 -0.01,-0.8 z"
         fill="#2c8e82"
         fill-rule="evenodd"
         fill-opacity="0.501961"
         id="path5285" />
      <rect
         x="4545"
         y="2488"
         width="433"
         height="360"
         fill="#85b4e7"
         fill-opacity="0.501961"
         id="rect5287" />
      <path
         d="m 4934.98,2486.19 c 1.4,30.37 -74.25,55.36 -168.95,55.8 -94.71,0.45 -172.62,-23.81 -174.01,-54.18 -0.01,-0.25 -0.02,-0.51 -0.02,-0.76 z"
         fill="#488eda"
         fill-rule="evenodd"
         fill-opacity="0.501961"
         id="path5289" />
      <path
         d="m 4934.98,2582.19 c 1.4,30.37 -74.25,55.36 -168.95,55.8 -94.71,0.45 -172.62,-23.81 -174.01,-54.18 -0.01,-0.25 -0.02,-0.51 -0.02,-0.76 z"
         fill="#488eda"
         fill-rule="evenodd"
         fill-opacity="0.501961"
         id="path5291" />
      <path
         d="m 4934.98,2663.19 c 1.4,30.37 -74.25,55.36 -168.95,55.8 -94.71,0.45 -172.62,-23.81 -174.01,-54.18 -0.01,-0.25 -0.02,-0.51 -0.02,-0.76 z"
         fill="#488eda"
         fill-rule="evenodd"
         fill-opacity="0.501961"
         id="path5293" />
      <path
         d="m 4934.98,2744.19 c 1.4,30.37 -74.25,55.36 -168.95,55.8 -94.71,0.45 -172.62,-23.81 -174.01,-54.18 -0.01,-0.25 -0.02,-0.51 -0.02,-0.76 z"
         fill="#488eda"
         fill-rule="evenodd"
         fill-opacity="0.501961"
         id="path5295" />
      <path
         d="m 4828.86,1838.46 c -97.9,-77.68 -35.05,-54.18 8.69,-52.88 -2.03,-141.43 -0.58,-120.32 77.33,-11.09 80.23,-85.08 63.14,-31.77 44.31,1.3 78.78,-46.78 88.05,-25.67 -6.08,63.32 l -51.26,20.89 z"
         fill="#87dad0"
         fill-rule="evenodd"
         id="path5297" />
      <path
         d="m 4818.02,1840.54 c 54.69,-96.45 92.01,-181.85 -5.2,-80.63 4.05,-148.69 -2.32,-179.03 -99.82,-5.2 l 2.6,89.08 59.03,18.21 z"
         fill="#3abeae"
         fill-rule="evenodd"
         id="path5299" />
      <path
         d="m 4677.77,1847.33 c -63.81,-80.07 -98.91,-118.48 -6.09,-89.84 -100.07,-197.47 37.42,-109.8 78.32,85.28 l -37.42,18.23 z"
         fill="#87dad0"
         fill-rule="evenodd"
         id="path5301" />
      <rect
         x="4502"
         y="1838"
         width="340"
         height="101"
         fill="#6aa2be"
         id="rect5303" />
      <rect
         x="4842"
         y="1838"
         width="114"
         height="101"
         fill="#a0bce7"
         id="rect5305" />
      <rect
         x="4347"
         y="3007"
         width="439"
         height="301"
         fill="#eeb2a8"
         fill-opacity="0.501961"
         id="rect5307" />
      <path
         d="m 4427,3090.5 c 0,-16.84 13.66,-30.5 30.5,-30.5 h 221 c 16.84,0 30.5,13.66 30.5,30.5 v 0 c 0,16.84 -13.66,30.5 -30.5,30.5 h -221 c -16.84,0 -30.5,-13.66 -30.5,-30.5 z"
         fill="#e37e6e"
         fill-rule="evenodd"
         fill-opacity="0.501961"
         id="path5309" />
      <rect
         x="581"
         y="1482"
         width="1780"
         height="1910"
         fill="#c3dae5"
         id="rect5311" />
      <rect
         x="670"
         y="1565"
         width="1602"
         height="374"
         fill="#a6c7d8"
         id="rect5313" />
      <rect
         x="670"
         y="2020"
         width="1602"
         height="374"
         fill="#a6c7d8"
         id="rect5315" />
      <rect
         x="670"
         y="2476"
         width="1602"
         height="374"
         fill="#a6c7d8"
         id="rect5317" />
      <rect
         x="670"
         y="2934"
         width="1602"
         height="374"
         fill="#a6c7d8"
         id="rect5319" />
      <rect
         x="700"
         y="1786"
         width="537"
         height="153"
         fill="#85b4e7"
         fill-opacity="0.501961"
         id="rect5321" />
      <rect
         x="1031"
         y="1808"
         width="131"
         height="106"
         fill="#c3dae5"
         fill-opacity="0.501961"
         id="rect5323" />
      <path
         d="m 753,1861 c 0,-21.54 16.789,-39 37.5,-39 20.711,0 37.5,17.46 37.5,39 0,21.54 -16.789,39 -37.5,39 -20.711,0 -37.5,-17.46 -37.5,-39 z"
         fill="#488eda"
         fill-rule="evenodd"
         fill-opacity="0.501961"
         id="path5325" />
      <rect
         x="1709"
         y="1786"
         width="537"
         height="153"
         fill="#eeb2a8"
         fill-opacity="0.501961"
         id="rect5327" />
      <rect
         x="2041"
         y="1808"
         width="130"
         height="106"
         fill="#c3dae5"
         fill-opacity="0.501961"
         id="rect5329" />
      <path
         d="m 1763,1861 c 0,-21.54 16.79,-39 37.5,-39 20.71,0 37.5,17.46 37.5,39 0,21.54 -16.79,39 -37.5,39 -20.71,0 -37.5,-17.46 -37.5,-39 z"
         fill="#e37e6e"
         fill-rule="evenodd"
         fill-opacity="0.501961"
         id="path5331" />
      <rect
         x="700"
         y="1634"
         width="537"
         height="152"
         fill="#3abeae"
         fill-opacity="0.501961"
         id="rect5333" />
      <rect
         x="1031"
         y="1656"
         width="131"
         height="105"
         fill="#c3dae5"
         fill-opacity="0.501961"
         id="rect5335" />
      <path
         d="m 753,1708.5 c 0,-21.82 16.789,-39.5 37.5,-39.5 20.711,0 37.5,17.68 37.5,39.5 0,21.82 -16.789,39.5 -37.5,39.5 -20.711,0 -37.5,-17.68 -37.5,-39.5 z"
         fill="#2c8e82"
         fill-rule="evenodd"
         fill-opacity="0.501961"
         id="path5337" />
      <path
         d="m 1087.7,2020.67 57.6,20.12 -123.31,353.14 -57.601,-20.12 z"
         fill="#6aa2be"
         fill-rule="evenodd"
         fill-opacity="0.501961"
         id="path5339" />
      <rect
         x="1568"
         y="2019"
         width="61"
         height="374"
         fill="#6aa2be"
         fill-opacity="0.501961"
         id="rect5341" />
      <rect
         x="1140"
         y="2092"
         width="439"
         height="301"
         fill="#eeb2a8"
         fill-opacity="0.501961"
         id="rect5343" />
      <path
         d="m 1209,2175.5 c 0,-16.84 13.66,-30.5 30.5,-30.5 h 221 c 16.84,0 30.5,13.66 30.5,30.5 v 0 c 0,16.84 -13.66,30.5 -30.5,30.5 h -221 c -16.84,0 -30.5,-13.66 -30.5,-30.5 z"
         fill="#e37e6e"
         fill-rule="evenodd"
         fill-opacity="0.501961"
         id="path5345" />
      <rect
         x="1629"
         y="2092"
         width="460"
         height="301"
         fill="#3abeae"
         fill-opacity="0.501961"
         id="rect5347" />
      <path
         d="m 2036.99,2267.65 c 1.21,38.38 -78.38,69.88 -177.79,70.34 -99.4,0.47 -180.97,-30.26 -182.19,-68.64 0,-0.27 -0.01,-0.53 -0.01,-0.8 z"
         fill="#2c8e82"
         fill-rule="evenodd"
         fill-opacity="0.501961"
         id="path5349" />
      <rect
         x="2089"
         y="2019"
         width="61"
         height="374"
         fill="#6aa2be"
         fill-opacity="0.501961"
         id="rect5351" />
      <path
         d="m 2049.99,2090.65 c 1.21,38.38 -78.38,69.88 -177.79,70.34 -99.4,0.47 -180.97,-30.26 -182.19,-68.64 0,-0.27 -0.01,-0.53 -0.01,-0.8 z"
         fill="#2c8e82"
         fill-rule="evenodd"
         fill-opacity="0.501961"
         id="path5353" />
      <rect
         x="1183"
         y="2493"
         width="86"
         height="357"
         fill="#3abeae"
         fill-opacity="0.501961"
         id="rect5355" />
      <rect
         x="1098"
         y="2514"
         width="85"
         height="336"
         fill="#85b4e7"
         fill-opacity="0.501961"
         id="rect5357" />
      <rect
         x="1012"
         y="2514"
         width="86"
         height="336"
         fill="#6aa2be"
         fill-opacity="0.501961"
         id="rect5359" />
      <rect
         x="927"
         y="2493"
         width="85"
         height="357"
         fill="#eeb2a8"
         fill-opacity="0.501961"
         id="rect5361" />
      <rect
         x="841"
         y="2493"
         width="86"
         height="357"
         fill="#3abeae"
         fill-opacity="0.501961"
         id="rect5363" />
      <rect
         x="756"
         y="2493"
         width="85"
         height="357"
         fill="#6aa2be"
         fill-opacity="0.501961"
         id="rect5365" />
      <rect
         x="670"
         y="2514"
         width="86"
         height="336"
         fill="#3abeae"
         fill-opacity="0.501961"
         id="rect5367" />
      <rect
         x="756"
         y="3007"
         width="823"
         height="301"
         fill="#eeb2a8"
         fill-opacity="0.501961"
         id="rect5369" />
      <rect
         x="802"
         y="3157"
         width="718"
         height="105"
         fill="#c3dae5"
         fill-opacity="0.501961"
         id="rect5371" />
      <path
         d="m 1428,600.742 783.58,-65.56 c 42.01,-2.564 71.83,22.305 76.25,52.255 l 30.43,348.17 c 4.96,47.505 -15.71,67.663 -43.39,80.123 -20.21,9.1 -34.87,19.92 -30.97,61.88 l 29.42,373.14 c 3.72,47.64 -16.94,69.88 -65.03,75.87 L 1511.6,1587 Z"
         fill="#38e299"
         fill-rule="evenodd"
         id="path5373" />
      <path
         d="m 1473.65,665.091 676.67,-78.719 104.83,886.068 -680.25,81.82 z"
         fill="#18a468"
         fill-rule="evenodd"
         id="path5375" />
      <path
         d="m 1528,625 681,1.329 -5.22,881.341 -674.45,9.33 c -0.44,-297.33 -0.89,-594.667 -1.33,-892 z"
         fill="#18a468"
         fill-rule="evenodd"
         id="path5377" />
      <path
         d="m 1442.28,637.028 676.68,-78.718 104.83,886.07 -680.26,81.82 z"
         fill="#d9e4f5"
         fill-rule="evenodd"
         id="path5379" />
      <path
         d="m 1493.78,597 684.22,1.33 v 892.34 l -685,1.33 z"
         fill="#ffffff"
         fill-rule="evenodd"
         id="path5381" />
      <path
         d="M 1574,719.747 2097,719 v 38.942 L 1574.15,758 c -0.05,-12.751 -0.1,-25.502 -0.15,-38.253 z"
         fill="#a0bce7"
         fill-rule="evenodd"
         id="path5383" />
      <path
         d="M 1700,804.747 1970,804 v 38.942 L 1700.08,843 c -0.03,-12.751 -0.05,-25.502 -0.08,-38.253 z"
         fill="#a0bce7"
         fill-rule="evenodd"
         id="path5385" />
      <path
         d="M 1574,941.747 2097,941 v 38.942 L 1574.15,980 c -0.05,-12.751 -0.1,-25.502 -0.15,-38.253 z"
         fill="#a0bce7"
         fill-rule="evenodd"
         id="path5387" />
      <path
         d="m 1574,1018.73 523,-0.73 v 37.94 l -522.85,0.06 c -0.05,-12.42 -0.1,-24.85 -0.15,-37.27 z"
         fill="#a0bce7"
         fill-rule="evenodd"
         id="path5389" />
      <path
         d="m 1574,1091.73 522,-0.73 v 37.94 l -521.85,0.06 c -0.05,-12.42 -0.1,-24.85 -0.15,-37.27 z"
         fill="#a0bce7"
         fill-rule="evenodd"
         id="path5391" />
      <path
         d="m 1574,1165.75 522,-0.75 v 38.94 l -521.85,0.06 c -0.05,-12.75 -0.1,-25.5 -0.15,-38.25 z"
         fill="#a0bce7"
         fill-rule="evenodd"
         id="path5393" />
      <path
         d="m 1574,1239.75 522,-0.75 v 38.94 l -521.85,0.06 c -0.05,-12.75 -0.1,-25.5 -0.15,-38.25 z"
         fill="#a0bce7"
         fill-rule="evenodd"
         id="path5395" />
      <path
         d="m 1970,1380 c 0,-34.24 27.31,-62 61,-62 33.69,0 61,27.76 61,62 0,34.24 -27.31,62 -61,62 -33.69,0 -61,-27.76 -61,-62 z m 6.01,0 c 0,30.92 24.62,55.99 54.99,55.99 30.37,0 54.99,-25.07 54.99,-55.99 0,-30.92 -24.62,-55.99 -54.99,-55.99 -30.37,0 -54.99,25.07 -54.99,55.99 z"
         fill="#e37e6e"
         fill-rule="evenodd"
         id="path5397" />
      <path
         d="m 1987,1380.5 c 0,-24.58 19.7,-44.5 44,-44.5 24.3,0 44,19.92 44,44.5 0,24.58 -19.7,44.5 -44,44.5 -24.3,0 -44,-19.92 -44,-44.5 z m 7.26,0 c 0,20.56 16.45,37.24 36.74,37.24 20.29,0 36.74,-16.68 36.74,-37.24 0,-20.56 -16.45,-37.24 -36.74,-37.24 -20.29,0 -36.74,16.68 -36.74,37.24 z"
         fill="#e37e6e"
         fill-rule="evenodd"
         id="path5399" />
      <rect
         x="2011"
         y="1374"
         width="42"
         height="11"
         fill="#e37e6e"
         id="rect5401" />
      <rect
         x="4586"
         y="2433"
         width="350"
         height="535"
         fill="#ffffff"
         id="rect5403" />
      <path
         d="m 4592,2432 c 0,-6.63 5.37,-12 12,-12 h 334 c 6.63,0 12,5.37 12,12 v 0 c 0,6.63 -5.37,12 -12,12 h -334 c -6.63,0 -12,-5.37 -12,-12 z"
         fill="#18a468"
         fill-rule="evenodd"
         id="path5405" />
      <path
         d="m 4938.5,2979 c -6.35,0 -11.5,-5.15 -11.5,-11.5 v -536 c 0,-6.35 5.15,-11.5 11.5,-11.5 v 0 c 6.35,0 11.5,5.15 11.5,11.5 v 536 c 0,6.35 -5.15,11.5 -11.5,11.5 z"
         fill="#18a468"
         fill-rule="evenodd"
         id="path5407" />
      <path
         d="m 4592,2967 c 0,-6.63 5.37,-12 12,-12 h 334 c 6.63,0 12,5.37 12,12 v 0 c 0,6.63 -5.37,12 -12,12 h -334 c -6.63,0 -12,-5.37 -12,-12 z"
         fill="#18a468"
         fill-rule="evenodd"
         id="path5409" />
      <path
         d="m 4623.95,2350 c 0.35,231.67 0.7,463.33 1.05,695 l -408,-63.85 c 0.23,-186.66 0.46,-373.32 0.7,-559.98 z"
         fill="#18a468"
         fill-rule="evenodd"
         id="path5411" />
      <path
         d="m 4350.48,2590.77 45.88,-4.18 25.73,77.49 38.94,-81.68 47.97,-1.4 -59.79,113.1 57.7,115.9 -50.06,-4.19 -31.28,-80.29 -32.68,76.1 -45.89,-2.79 52.15,-101.93 z"
         fill="#ffffff"
         fill-rule="evenodd"
         id="path5413" />
      <rect
         x="4756"
         y="2499"
         width="106"
         height="59"
         fill="#18a468"
         id="rect5415" />
      <rect
         x="4756"
         y="2584"
         width="106"
         height="58"
         fill="#18a468"
         id="rect5417" />
      <rect
         x="4756"
         y="2668"
         width="106"
         height="59"
         fill="#18a468"
         id="rect5419" />
      <rect
         x="4756"
         y="2753"
         width="106"
         height="59"
         fill="#18a468"
         id="rect5421" />
      <rect
         x="4756"
         y="2838"
         width="106"
         height="58"
         fill="#18a468"
         id="rect5423" />
      <rect
         x="4623"
         y="2499"
         width="106"
         height="59"
         fill="#18a468"
         id="rect5425" />
      <rect
         x="4623"
         y="2584"
         width="106"
         height="58"
         fill="#18a468"
         id="rect5427" />
      <rect
         x="4623"
         y="2668"
         width="106"
         height="59"
         fill="#18a468"
         id="rect5429" />
      <rect
         x="4623"
         y="2753"
         width="106"
         height="59"
         fill="#18a468"
         id="rect5431" />
      <rect
         x="4623"
         y="2838"
         width="106"
         height="58"
         fill="#18a468"
         id="rect5433" />
      <path
         d="m 2774,708 c 0,-249.633 203.93,-452 455.5,-452 251.57,0 455.5,202.367 455.5,452 0,249.633 -203.93,452 -455.5,452 C 2977.93,1160 2774,957.633 2774,708 Z"
         fill="#488eda"
         fill-rule="evenodd"
         id="path5435" />
      <path
         d="M 3209.73,768.798 3171.13,789 c -27.99,-25.654 -36.39,-35.855 -19.31,-75.998 14.58,-34.263 119.7,-40.201 153.45,-50.986 30.07,-9.609 13.84,-31.42 -1.93,-23.088 -24.27,12.824 -56.8,23.097 -49.22,-14.43 6,-29.717 76.01,-33.68 91.68,-4.81 15.1,27.811 -3.33,80.529 -47.28,87.542 -37.32,5.953 -93.14,2.066 -109.06,32.708 -6.03,11.619 3.86,19.24 20.27,28.86 z"
         fill="#ffffff"
         fill-rule="evenodd"
         id="path5437" />
      <path
         d="M 3263.87,725.671 3306.35,717 c 16.26,45.281 -11.57,76.517 -60.83,89.598 -36.73,9.755 -52.62,25.209 -32.83,49.134 l -28,19.268 c -26.39,-15.254 -35.59,-43.146 -20.28,-60.695 27.3,-31.286 112.49,-40.303 99.46,-88.634 z"
         fill="#ffffff"
         fill-rule="evenodd"
         id="path5439" />
      <path
         d="m 3248.21,815.78 c 11.92,-4.503 17.83,-6.276 29.75,-10.78 35.61,29.273 10.61,73.731 -30.94,84.923 -30.79,8.295 -41.24,21.07 -40.6,37.636 L 3187.08,943 c -30.29,-41.014 2.79,-55.712 29.01,-70.448 33.38,-18.761 54.75,-24.028 32.12,-56.772 z"
         fill="#ffffff"
         fill-rule="evenodd"
         id="path5441" />
      <path
         d="m 3246.56,903.564 c 10.62,-3.855 18.78,-7.709 29.4,-11.564 1.6,71.63 -40.22,59.424 -64.68,73.236 l 1.93,26.019 -8.68,6.745 c -31.54,-26.339 -17.04,-50.96 0.96,-58.782 27.35,-11.885 45.57,-16.061 41.07,-35.654 z"
         fill="#ffffff"
         fill-rule="evenodd"
         id="path5443" />
      <path
         d="m 3246.34,965.075 c 10.01,-4.477 15.91,-7.597 25.92,-12.075 8.4,44.775 -56.84,58.85 -85.26,71 33.91,-20.15 56.43,-38.776 59.34,-58.925 z"
         fill="#ffffff"
         fill-rule="evenodd"
         id="path5445" />
      <path
         d="m 3248.7,1002 c -0.23,5.35 -0.47,10.7 -0.7,16.05 l 37,10.95 z"
         fill="#ffffff"
         fill-rule="evenodd"
         id="path5447" />
      <path
         d="M 3192.46,677.652 3153.67,698 c -17.78,-5.975 -65.13,-19.863 -44.61,-73.639 5.77,-15.102 47.3,-40.489 80.49,-16.471 29.64,21.443 5.37,52.457 -25.21,32.943 -37.61,-24.003 -25.05,8.398 -20.37,14.534 4.69,6.137 19.72,11.304 48.49,22.285 z"
         fill="#ffffff"
         fill-rule="evenodd"
         id="path5449" />
      <path
         d="m 3240.94,1011 c 0.79,33.08 -5.89,70.53 -10.86,71 -6.04,-0.31 -13.78,-33.57 -13.03,-63.47 z"
         fill="#ffffff"
         fill-rule="evenodd"
         id="path5451" />
      <path
         d="m 3217,485 h 24 v 185.623 c -8.4,1.185 -15.6,2.234 -24,4.377 z"
         fill="#ffffff"
         fill-rule="evenodd"
         id="path5453" />
      <path
         d="m 3217,969.559 c 9.36,-2.174 16.54,-4.891 24,-8.559 0,3.215 0,5.208 0,8.423 -7.32,12.588 -16,22.324 -24,27.577 z"
         fill="#ffffff"
         fill-rule="evenodd"
         id="path5455" />
      <path
         d="m 3241,897 c -0.09,6.644 -0.04,12.475 -0.13,19.119 -6.71,5.378 -14.89,9.265 -23.87,12.881 0.09,-6.328 0.04,-12.249 0.13,-18.576 8.05,-5.695 15.69,-10.305 23.87,-13.424 z"
         fill="#ffffff"
         fill-rule="evenodd"
         id="path5457" />
      <path
         d="m 3217.13,823.347 c 8.09,-5.013 15.91,-9.205 23.87,-11.347 l -0.26,40.602 c -8.31,3.373 -15.56,8.112 -23.74,13.398"
         fill="#ffffff"
         fill-rule="evenodd"
         id="path5459" />
      <path
         d="m 3217,724.611 c 9.49,-4.068 21.19,-6.138 24.99,-6.611 -0.05,15.298 0.04,30.188 0,45.486 -7.78,4.288 -14.58,7.645 -24.85,13.514"
         fill="#ffffff"
         fill-rule="evenodd"
         id="path5461" />
      <path
         d="m 3198,459.5 c 0,-17.397 13.88,-31.5 31,-31.5 17.12,0 31,14.103 31,31.5 0,17.397 -13.88,31.5 -31,31.5 -17.12,0 -31,-14.103 -31,-31.5 z"
         fill="#ffffff"
         fill-rule="evenodd"
         id="path5463" />
      <path
         d="m 3256.54,497.554 -0.54,81.105 c 24.64,12.101 48.74,14.161 60.11,3.089 23.37,6.266 37,1.202 44.13,-18.28 31.23,15.448 55.15,14.418 64.44,-16.994 23.11,3.777 43.5,-2.746 44.95,-23.43 39.89,1.717 78.16,-7.381 86.37,-32.699 l -147.56,-0.515 c -63.14,-0.171 -82.92,-25.967 -107.76,-23.687 -17.58,1.612 -20.81,24.116 -28.16,29.352 -7.36,5.235 -9.98,2.102 -15.98,2.059 z"
         fill="#ffffff"
         fill-rule="evenodd"
         id="path5465" />
      <path
         d="M 0.543321,31.5545 0,112.659 c 24.7211,12.101 48.8989,14.161 60.3087,3.089 23.4533,6.266 37.127,1.202 44.2803,-18.2803 31.332,15.4483 55.328,14.4183 64.656,-16.9932 23.181,3.7762 43.646,-2.7464 45.095,-23.4302 40.025,1.7166 78.42,-7.3809 86.66,-32.6991 L 152.945,23.8303 C 89.6027,23.6587 69.7485,-2.13678 44.824,0.142672 27.1895,1.75542 23.9514,24.2594 16.5713,29.4947 9.19117,34.7299 6.56515,31.5974 0.543321,31.5545 Z"
         fill="#ffffff"
         fill-rule="evenodd"
         transform="matrix(-1,0,0,1,3203,466)"
         id="path5467" />
      <path
         d="m 1988,2870.29 292.98,121.36 96.26,-186.22 24.41,578.87 1185.16,0.7 4.19,-843.2 -152.77,-292.92 c -38.71,-67.31 -94.17,-109.5 -182.06,-136 -67.66,-29.3 -140.56,-31.39 -202.99,-87.88 h -387.15 c -68.01,55.79 -165.32,71.84 -253.21,110.89 -64.18,23.72 -114.75,70.44 -151.72,146.46 z"
         fill="#ffffff"
         fill-rule="evenodd"
         id="path5469" />
      <path
         d="M 2176,2948.69 2283.27,2994 2378,2805.08 2368.94,2559 Z"
         fill="#d9e4f5"
         fill-rule="evenodd"
         id="path5471" />
      <path
         d="m 2910,2244.57 265,354.43 424,-54.42 -146.45,-275.59 c -45.44,-85.94 -100.19,-127.22 -163.88,-147.92 -56.74,-18.43 -99.37,-26.74 -138.78,-43.25 -29.91,-10.73 -60.67,-25.35 -97.63,-55.82 z"
         fill="#d9e4f5"
         fill-rule="evenodd"
         id="path5473" />
      <path
         d="m 3001,2576 c 0,-41.42 33.58,-75 75,-75 41.42,0 75,33.58 75,75 0,41.42 -33.58,75 -75,75 -41.42,0 -75,-33.58 -75,-75 z"
         fill="#c6d7f1"
         fill-rule="evenodd"
         id="path5475" />
      <path
         d="m 3023,2576 c 0,-29.82 23.95,-54 53.5,-54 29.55,0 53.5,24.18 53.5,54 0,29.82 -23.95,54 -53.5,54 -29.55,0 -53.5,-24.18 -53.5,-54 z m 19.32,0 c 0,19.15 15.3,34.68 34.18,34.68 18.88,0 34.18,-15.53 34.18,-34.68 0,-19.15 -15.3,-34.68 -34.18,-34.68 -18.88,0 -34.18,15.53 -34.18,34.68 z"
         fill="#0c233c"
         fill-rule="evenodd"
         id="path5477" />
      <path
         d="m 2749.25,2525.14 c 14.59,-6.1 15.24,0.36 35.52,-18.25 27.72,-25.42 -41.19,-163.07 -80.53,-202.9 -40.91,-41.4 -88.45,-39.26 -150.61,-40.79 -43.96,20.08 -102.42,49.11 -119.98,99.11 -19.18,54.57 -39.3,209.38 12,220.14 36.56,7.67 29.89,3.58 45.23,4.98 l 3.14,25.1 c -10.05,-1.01 -6.66,6.44 -50.75,-4.94 -82.03,-21.18 -54.69,-189.28 -31.88,-255.49 18.83,-54.66 72.41,-79.38 106.68,-106.68 -5.41,-68.56 -12.74,-92.23 -1.04,-138.05 24.14,-94.55 81.97,-94.76 139.1,-109.82 77.76,-20.49 321.78,-17.95 401.61,-1.04 56.99,12.06 74.37,62.04 78.44,97.26 10.81,93.56 -29.63,382.1 -39.74,466.46 9.76,8.2 8.35,45.86 -25.63,39.75 -28.94,-5.21 -20.39,-42.01 -9.41,-45.5 14.23,-96.45 46.35,-371.99 42.36,-461.75 -1.83,-41.15 -13.29,-54.75 -49.16,-66.94 -70,-23.78 -327.23,-7.97 -389.85,3.35 -75.76,13.71 -105.01,45.51 -112.17,79.28 -8.17,38.57 -7.77,77.44 7.33,132.82 30.92,-4.15 123.32,-0.01 164.2,47.07 40.88,47.07 125.95,185.26 81.07,235.35 -12.12,13.54 -20.94,13.76 -41.33,19.84 -17.04,10.55 -20.58,-9.86 -14.6,-18.36 z"
         fill="#2d5467"
         fill-rule="evenodd"
         id="path5479" />
      <path
         d="m 2508.62,2213.34 50.66,-10.34 27.7,19.09 21.37,47.73 c 5.02,10.87 2.91,20.95 -6.33,23.07 l -88.65,19.89 c -10.55,1.85 -21.11,-8.22 -21.37,-17.5 l 1.58,-53.3 z"
         fill="#0c233c"
         fill-rule="evenodd"
         id="path5481" />
      <path
         d="m 2472.71,2584.59 c -1.85,10.45 -3.72,18.75 3.15,30.8 l 58.64,1.61 c 16.64,-5.89 26.15,-35.88 -4.75,-49 z"
         fill="#0c233c"
         fill-rule="evenodd"
         id="path5483" />
      <path
         d="m 2765.49,2548.65 c -0.41,-10.47 -0.35,-18.9 -9.64,-29.04 l -57.72,11.1 c -15.03,9.27 -17.95,40.27 15.08,46.27 z"
         fill="#0c233c"
         fill-rule="evenodd"
         id="path5485" />
      <rect
         x="2515"
         y="2404"
         width="211"
         height="39"
         fill="#d9e4f5"
         id="rect5487" />
      <path
         d="m 3047,2041.8 -1.05,-43.03 C 2913.1,1953.3 2785.48,1968.34 2661,1998.42 l 10.46,47.58 z"
         fill="#d9e4f5"
         fill-rule="evenodd"
         id="path5489" />
      <path
         d="m 2601.49,1584.59 78.57,-193.59 355.15,3.14 104.76,186.27 c 34.92,7.32 21.54,105.12 -5.24,164.29 -10.78,23.82 -27.24,37.32 -40.86,17.79 -21.3,100.11 -53.08,160.45 -98.47,190.45 l 30.38,86.86 -144.57,72.2 -199.05,-76.39 37.71,-98.37 c -25.14,-24.41 -58.66,-61.39 -69.14,-167.43 -17.11,8.37 -30.27,-10.32 -39.81,-40.81 -20.78,-66.45 -29.85,-117.55 -9.43,-144.41 z"
         fill="#e37e6e"
         fill-rule="evenodd"
         id="path5491" />
      <path
         d="m 2872.03,1994.87 c -1.05,-190.5 -2.1,-411.36 -3.14,-601.87 l 166.42,1.05 104.68,186.31 c 34.89,7.33 21.52,105.16 -5.24,164.34 -10.77,23.83 -27.21,37.34 -40.82,17.8 -21.28,100.13 -53.03,160.49 -98.39,190.5 -29.83,23.9 -66.99,67.69 -122.47,66.99 -43.09,-0.54 -128.57,-59.84 -136.07,-71.18 50.77,31.06 87.92,41.7 135.03,46.06 z"
         fill="#8d2b1b"
         fill-rule="evenodd"
         fill-opacity="0.25098"
         id="path5493" />
      <path
         d="m 2659.93,1661.91 c 14.3,-63.45 23.36,-124.8 24.06,-193.47 151.01,70.42 243.42,70.76 330.61,48.11 11.51,63.79 23.01,103.53 62.77,147.45 11.86,-70.76 20.58,-87.15 60.68,-83.66 37.49,-179.35 -10.98,-261.45 -86.84,-314.78 -75.85,-53.33 -295.19,-60.72 -368.26,-5.23 -143.68,109.11 -95.91,215.08 -82.66,321.05 54.41,-6.62 46.04,18.13 59.64,80.53 z"
         fill="#0c233c"
         fill-rule="evenodd"
         id="path5495" />
      <path
         d="m 2690.39,2005 c 154.14,81.58 210.98,63.8 327.46,0 L 3044,2042.65 2846.27,2400 2674,2034.63 Z"
         fill="#2c8e82"
         fill-rule="evenodd"
         id="path5497" />
      <path
         d="M 3043.41,1999 2881.44,2237.42 2848,2411 3057,2032.46 Z"
         fill="#ecf2fa"
         fill-rule="evenodd"
         id="path5499" />
      <path
         d="M 2662,2000 2828.31,2237.4 2844,2411 2664.09,2032.94 Z"
         fill="#ecf2fa"
         fill-rule="evenodd"
         id="path5501" />
      <path
         d="m 2358.69,2408.53 c -0.19,-5.28 3.95,-9.72 9.24,-9.9 v 0 c 5.28,-0.19 9.72,3.95 9.9,9.23 l 27.87,798.02 c 0.18,5.28 -3.95,9.72 -9.24,9.9 v 0 c -5.29,0.19 -9.72,-3.95 -9.91,-9.24 z"
         fill="#c6d7f1"
         fill-rule="evenodd"
         id="path5503" />
      <path
         d="m 3300.36,2368.96 c -0.55,-5.26 3.27,-9.97 8.53,-10.52 v 0 c 5.26,-0.56 9.97,3.26 10.52,8.52 l 10.4,98.93 c 0.56,5.26 -3.26,9.97 -8.52,10.53 v 0 c -5.26,0.55 -9.97,-3.27 -10.53,-8.53 z"
         fill="#c6d7f1"
         fill-rule="evenodd"
         id="path5505" />
      <path
         d="m 2244.98,2987.8 -67.02,162.01 c 134.74,15.33 262.15,57.84 429.35,64.81 56.9,-47.73 116.94,-68.29 192.69,-67.94 L 2789.53,3362 c -152.89,-8.01 -529.89,-2.44 -699.54,-6.27 -144.34,-3.26 -155.32,-64.49 -154.98,-135.88 0.37,-80.14 66.15,-240.76 94.25,-319.85 z"
         fill="#e37e6e"
         fill-rule="evenodd"
         id="path5507" />
      <path
         d="M 2176.38,3148 C 2125.69,3045.28 2078.14,2990.77 2018,2931.02 l 13.64,-44.02 222.36,94.34 z"
         fill="#8d2b1b"
         fill-rule="evenodd"
         fill-opacity="0.25098"
         id="path5509" />
      <path
         d="m 2344,3332 c 0,-17.67 14.33,-32 32,-32 h 444 c 17.67,0 32,14.33 32,32 v 0 c 0,17.67 -14.33,32 -32,32 h -444 c -17.67,0 -32,-14.33 -32,-32 z"
         fill="#488eda"
         fill-rule="evenodd"
         id="path5511" />
      <rect
         x="2635"
         y="3300"
         width="182"
         height="64"
         fill="#184678"
         fill-opacity="0.501961"
         id="rect5513" />
      <path
         d="m 2802.75,3364 c -58.82,-2.56 -88.35,-33.02 -84.4,-70.45 l 110.91,-805.68 c 5.58,-31.39 32.08,-64.17 72.54,-64.87 l 1046.98,2.09 c 36.27,0.7 50.22,19.53 50.22,43.95 z"
         fill="#c2d9f3"
         fill-rule="evenodd"
         id="path5515" />
      <path
         d="m 2792.72,3364 c -58.8,-2.56 -53.46,-42.81 -49.5,-80.26 l 106.68,-776.83 c 5.58,-31.41 32.07,-64.21 72.51,-64.91 l 1031.27,3.49 c 36.26,0.7 45.32,6.98 45.32,31.41 -15.96,132.75 -6.43,37.11 -20.48,159.98 -161.86,144.79 -736.1,601.89 -933.99,722.9 z"
         fill="#85b4e7"
         fill-rule="evenodd"
         id="path5517" />
      <path
         d="m 3990,2555 c -33.01,242.64 -62.35,485.29 -95.36,727.93 -7.29,49.5 -37.09,78.1 -84.68,77.97 L 2891,3361 Z"
         fill="#488eda"
         fill-rule="evenodd"
         id="path5519" />
      <g
         clip-path="url(#clip1-08)"
         id="g5535">
        <g
           clip-path="url(#clip2-57)"
           id="g5533">
          <g
             clip-path="url(#clip3-3)"
             id="g5531">
            <path
               d="m 227.464,188.95 c 0,-60.956 49.415,-110.3715 110.372,-110.3715 60.957,0 110.372,49.4155 110.372,110.3715 0,60.957 -49.415,110.372 -110.372,110.372 -60.957,0 -110.372,-49.415 -110.372,-110.372 z m 15.256,0 c 0,52.532 42.585,95.116 95.116,95.116 52.531,0 95.116,-42.584 95.116,-95.116 0,-52.531 -42.585,-95.1159 -95.116,-95.1159 -52.531,0 -95.116,42.5849 -95.116,95.1159 z"
               fill="#ffffff"
               fill-rule="evenodd"
               transform="matrix(0.994656,0.103247,-0.109033,1.0504,3119.99,2699.73)"
               id="path5521" />
            <g
               clip-path="url(#clip4-1)"
               id="g5525">
              <path
                 d="m 217.125,177.577 c 0,-60.957 49.415,-110.3717 110.372,-110.3717 60.956,0 110.371,49.4147 110.371,110.3717 0,60.957 -49.415,110.372 -110.371,110.372 -60.957,0 -110.372,-49.415 -110.372,-110.372 z m 2.273,0 c 0,59.701 48.398,108.098 108.099,108.098 59.701,0 108.098,-48.397 108.098,-108.098 0,-59.701 -48.397,-108.0981 -108.098,-108.0981 -59.701,0 -108.099,48.3971 -108.099,108.0981 z"
                 fill="#ffffff"
                 fill-rule="evenodd"
                 transform="matrix(0.994656,0.103247,-0.109033,1.0504,3119.99,2699.73)"
                 id="path5523" />
            </g>
            <g
               clip-path="url(#clip5-1)"
               id="g5529">
              <path
                 d="m 229.532,176.285 c 0,-53.962 43.629,-97.7065 97.448,-97.7065 53.819,0 97.447,43.7445 97.447,97.7065 0,53.961 -43.628,97.706 -97.447,97.706 -53.819,0 -97.448,-43.745 -97.448,-97.706 z m 2.007,0 c 0,52.852 42.73,95.698 95.441,95.698 52.71,0 95.44,-42.846 95.44,-95.698 0,-52.853 -42.73,-95.6991 -95.44,-95.6991 -52.711,0 -95.441,42.8461 -95.441,95.6991 z"
                 fill="#ffffff"
                 fill-rule="evenodd"
                 transform="matrix(0.994656,0.103247,-0.109033,1.0504,3119.99,2699.73)"
                 id="path5527" />
            </g>
          </g>
        </g>
      </g>
      <path
         d="M 1822.75,2938.67 C 1838.13,2421.84 1694.29,2520.15 1668,2885.05 L 1854,3104 Z"
         fill="#2c8e82"
         fill-rule="evenodd"
         id="path5537" />
      <path
         d="m 1769,3000.58 98.25,116.42 113.14,-23.82 c 171.7,-285.84 133.49,-342.41 -69.96,-80.39 51.41,-196.82 79.89,-415.07 -141.43,-12.21 z"
         fill="#1d5f57"
         fill-rule="evenodd"
         id="path5539" />
      <path
         d="m 1876,3103.81 -130.53,86.19 -65.26,-104.03 c -121.63,-150.09 -231.4,-487.43 195.79,17.84 z"
         fill="#2c8e82"
         fill-rule="evenodd"
         id="path5541" />
      <path
         d="m 1999,3069 -38.59,291 H 1686.59 L 1648,3069 Z"
         fill="#ffffff"
         fill-rule="evenodd"
         id="path5543" />
      <path
         d="m 528,3381.5 c 0,-11.32 9.178,-20.5 20.5,-20.5 h 4583 c 11.32,0 20.5,9.18 20.5,20.5 v 0 c 0,11.32 -9.18,20.5 -20.5,20.5 h -4583 c -11.322,0 -20.5,-9.18 -20.5,-20.5 z"
         fill="#0c233c"
         fill-rule="evenodd"
         id="path5545" />
      <path
         d="m 3837,1549.5 c 0,-249.36 203.93,-451.5 455.5,-451.5 251.57,0 455.5,202.14 455.5,451.5 0,249.36 -203.93,451.5 -455.5,451.5 -251.57,0 -455.5,-202.14 -455.5,-451.5 z"
         fill="#e37e6e"
         fill-rule="evenodd"
         id="path5547" />
      <path
         d="m 4293,1448.5 c 138.75,-341.83 679.88,0 0,439.5 -679.88,-439.5 -138.75,-781.33 0,-439.5 z"
         fill="#5285d3"
         fill-rule="evenodd"
         id="path5549" />
      <path
         d="m 3942,1594.5 251.66,1.39 49.5,-179.89 49.49,244.04 50.19,-170.83 36.25,132.48 11.86,-24.4 253.05,-0.7 v 27.2 h -233.54 l -33.46,85.76 -34.16,-119.23 -55.07,182.68 -46.71,-235.68 -23.7,86.47 -274.66,-0.7 c -0.24,-9.53 -0.47,-19.06 -0.7,-28.59 z"
         fill="#ffffff"
         fill-rule="evenodd"
         id="path5551" />
      <path
         d="m 935,1325 c 0,-89.47 93.12,-162 208,-162 114.88,0 208,72.53 208,162 0,89.47 -93.12,162 -208,162 -114.88,0 -208,-72.53 -208,-162 z"
         fill="#a0bce7"
         fill-rule="evenodd"
         id="path5553" />
      <path
         d="m 1096,1477.96 c 44.39,28.4 78.92,52.86 101.07,61.82 22.15,8.96 33.12,6.47 31.83,-8.09 l -6.7,-75.69 z"
         fill="#a0bce7"
         fill-rule="evenodd"
         id="path5555" />
      <path
         d="m 961,1325 c 0,-77.32 81.48,-140 182,-140 100.52,0 182,62.68 182,140 0,77.32 -81.48,140 -182,140 -100.52,0 -182,-62.68 -182,-140 z"
         fill="#d9e4f5"
         fill-rule="evenodd"
         id="path5557" />
      <path
         d="m 1091,1454.99 c 37.47,23.12 70.56,49.59 90.04,58.19 19.49,8.6 27.96,5.26 26.87,-6.58 l -5.66,-61.6 z"
         fill="#d9e4f5"
         fill-rule="evenodd"
         id="path5559" />
      <path
         d="m 1030,1331 c 0,-13.25 10.52,-24 23.5,-24 12.98,0 23.5,10.75 23.5,24 0,13.25 -10.52,24 -23.5,24 -12.98,0 -23.5,-10.75 -23.5,-24 z"
         fill="#a0bce7"
         fill-rule="evenodd"
         id="path5561" />
      <path
         d="m 1119,1332 c 0,-13.25 10.52,-24 23.5,-24 12.98,0 23.5,10.75 23.5,24 0,13.25 -10.52,24 -23.5,24 -12.98,0 -23.5,-10.75 -23.5,-24 z"
         fill="#a0bce7"
         fill-rule="evenodd"
         id="path5563" />
      <path
         d="m 1214,1332 c 0,-13.25 10.75,-24 24,-24 13.25,0 24,10.75 24,24 0,13.25 -10.75,24 -24,24 -13.25,0 -24,-10.75 -24,-24 z"
         fill="#a0bce7"
         fill-rule="evenodd"
         id="path5565" />
      <path
         d="M 3908,677.738 C 3908,665.18 3918.18,655 3930.74,655 h 392.52 c 12.56,0 22.74,10.18 22.74,22.738 V 973.262 C 4346,985.82 4335.82,996 4323.26,996 H 3930.74 C 3918.18,996 3908,985.82 3908,973.262 Z"
         fill="#a0bce7"
         fill-rule="evenodd"
         id="path5567" />
      <path
         d="m 3954,684.986 154.03,121.827 c 14.61,11.201 29.22,8 38.19,-0.662 L 4299,683 Z"
         fill="#d9e4f5"
         fill-rule="evenodd"
         id="path5569" />
      <path
         d="M 0,2.19786 154.029,137 c 12.479,-9.096 26.817,-7.818 38.194,-0.733 L 345,0 Z"
         fill="#d9e4f5"
         fill-rule="evenodd"
         transform="matrix(1,0,0,-1,3954,970)"
         id="path5571" />
      <path
         d="m 3942,703 144,119 -144,119 z"
         fill="#d9e4f5"
         fill-rule="evenodd"
         id="path5573" />
      <path
         d="M 4310,940 4166,821 4310,702 Z"
         fill="#d9e4f5"
         fill-rule="evenodd"
         id="path5575" />
      <path
         d="m 1438.26,2819.22 c 27.49,-1.42 35.36,3.87 43.46,23.02 4.93,11.63 18.55,73.83 20.34,90.53 1.57,14.62 4.47,23.95 -15.16,34.19 -10.28,5.37 -15.45,6.35 -28.42,12.04 -4.07,1.78 -10.31,10.15 -3.14,27.19 19.83,47.1 47.57,104.82 128.36,152.12 18.09,10.6 25.44,0.33 30.21,-7.3 6.87,-10.99 9.67,-14.64 15.07,-22.03 5.35,-7.34 10.56,-12.27 31.54,-6.08 20.98,6.18 76.62,31 94.32,43.19 9.56,6.58 13.49,13.99 9.77,32.93 -4.99,25.44 -25.91,65.66 -58.61,81.09 -33.37,15.76 -84.81,9.67 -126.46,-11.16 -124.47,-62.23 -254.69,-256.32 -243.91,-339.1 7.05,-54.23 15.42,-59.69 31.9,-79.15 20.57,-24.29 51.67,-30.51 70.73,-31.48 z"
         fill="#a0bce7"
         fill-rule="evenodd"
         id="path5577" />
      <path
         d="m 1432.72,2831.72 c 25.95,-1.73 33.21,-2.3 40.27,21.93 6.98,24.01 13,52.64 17.36,80.99 2.59,16.86 0.14,15.61 -14.36,22.47 -7.55,3.59 -12.5,4.54 -22.58,9.45 -5.99,2.92 -19.18,12.32 -10.14,38.23 21.65,62.07 63.87,120.02 129.14,159.25 31,18.63 39.23,5.56 45.2,-0.29 5.92,-5.81 13.62,-18.78 18.91,-26.65 4.26,-6.33 5.49,-9.19 20.56,-4.78 17.84,5.22 70.11,28.34 85.7,38.52 10.36,6.76 11.46,6.98 9.3,20.26 -4.2,25.87 -27.08,75.54 -74.45,80.68 -30.37,3.3 -47.7,0.89 -97.92,-19.52 -70.16,-28.51 -226.8,-217.26 -230.44,-301.41 -1.85,-43.02 5.85,-61.51 19.29,-81.66 16.34,-24.5 41.96,-35.99 64.16,-37.47 z"
         fill="#d9e4f5"
         fill-rule="evenodd"
         id="path5579" />
      <path
         d="m 876,2244 c 0,-231.96 188.26,-420 420.5,-420 232.24,0 420.5,188.04 420.5,420 0,231.96 -188.26,420 -420.5,420 C 1064.26,2664 876,2475.96 876,2244 Z"
         fill="#ffffff"
         fill-rule="evenodd"
         id="path5581" />
      <path
         d="m 843,2244.5 c 0,-250.46 203.04,-453.5 453.5,-453.5 250.46,0 453.5,203.04 453.5,453.5 0,250.46 -203.04,453.5 -453.5,453.5 C 1046.04,2698 843,2494.96 843,2244.5 Z m 92.723,0 c 0,199.25 161.527,360.78 360.777,360.78 199.25,0 360.78,-161.53 360.78,-360.78 0,-199.25 -161.53,-360.78 -360.78,-360.78 -199.25,0 -360.777,161.53 -360.777,360.78 z"
         fill="#e37e6e"
         fill-rule="evenodd"
         id="path5583" />
      <path
         d="m 1271,1960.5 c 0,-14.08 11.19,-25.5 25,-25.5 13.81,0 25,11.42 25,25.5 0,14.08 -11.19,25.5 -25,25.5 -13.81,0 -25,-11.42 -25,-25.5 z"
         fill="#a6c7d8"
         fill-rule="evenodd"
         id="path5585" />
      <path
         d="m 1271,2528 c 0,-13.81 11.19,-25 25,-25 13.81,0 25,11.19 25,25 0,13.81 -11.19,25 -25,25 -13.81,0 -25,-11.19 -25,-25 z"
         fill="#a6c7d8"
         fill-rule="evenodd"
         id="path5587" />
      <path
         d="m 1554,2244 c 0,-13.81 11.42,-25 25.5,-25 14.08,0 25.5,11.19 25.5,25 0,13.81 -11.42,25 -25.5,25 -14.08,0 -25.5,-11.19 -25.5,-25 z"
         fill="#a6c7d8"
         fill-rule="evenodd"
         id="path5589" />
      <path
         d="m 988,2244 c 0,-13.81 11.193,-25 25,-25 13.81,0 25,11.19 25,25 0,13.81 -11.19,25 -25,25 -13.807,0 -25,-11.19 -25,-25 z"
         fill="#a6c7d8"
         fill-rule="evenodd"
         id="path5591" />
      <path
         d="m 1434.03,1980.86 c 3.32,-5.75 10.68,-7.72 16.43,-4.4 v 0 c 5.76,3.32 7.73,10.68 4.41,16.44 l -13.15,22.76 c -3.32,5.75 -10.68,7.72 -16.43,4.4 v 0 c -5.76,-3.32 -7.73,-10.68 -4.4,-16.44 z"
         fill="#a6c7d8"
         fill-rule="evenodd"
         id="path5593" />
      <path
         d="m 1151.12,2472.5 c 3.32,-5.76 10.68,-7.73 16.44,-4.41 v 0 c 5.75,3.33 7.72,10.68 4.4,16.44 l -13.14,22.76 c -3.32,5.75 -10.68,7.72 -16.43,4.4 v 0 c -5.76,-3.32 -7.73,-10.68 -4.41,-16.43 z"
         fill="#a6c7d8"
         fill-rule="evenodd"
         id="path5595" />
      <path
         d="m 1548.24,2085.53 c 5.76,-3.32 13.11,-1.35 16.44,4.41 v 0 c 3.32,5.75 1.35,13.11 -4.41,16.43 l -22.76,13.14 c -5.75,3.32 -13.11,1.35 -16.43,-4.4 v 0 c -3.32,-5.76 -1.35,-13.11 4.4,-16.44 z"
         fill="#a6c7d8"
         fill-rule="evenodd"
         id="path5597" />
      <path
         d="m 1056.91,2367.93 c 5.75,-3.32 13.11,-1.35 16.43,4.4 v 0 c 3.33,5.76 1.36,13.12 -4.4,16.44 l -22.76,13.14 c -5.75,3.32 -13.11,1.35 -16.44,-4.4 v 0 c -3.32,-5.76 -1.35,-13.12 4.41,-16.44 z"
         fill="#a6c7d8"
         fill-rule="evenodd"
         id="path5599" />
      <path
         d="m 1137.07,1994.02 c -3.32,-5.76 -1.35,-13.11 4.4,-16.44 v 0 c 5.76,-3.32 13.11,-1.35 16.44,4.41 l 13.14,22.76 c 3.32,5.75 1.35,13.11 -4.41,16.43 v 0 c -5.75,3.33 -13.11,1.35 -16.43,-4.4 z"
         fill="#a6c7d8"
         fill-rule="evenodd"
         id="path5601" />
      <path
         d="m 1420.27,2485.05 c -3.32,-5.76 -1.35,-13.12 4.4,-16.44 v 0 c 5.76,-3.32 13.12,-1.35 16.44,4.41 l 13.14,22.76 c 3.32,5.75 1.35,13.11 -4.4,16.43 v 0 c -5.76,3.32 -13.12,1.35 -16.44,-4.4 z"
         fill="#a6c7d8"
         fill-rule="evenodd"
         id="path5603" />
      <path
         d="m 1524.78,2389.88 c -5.75,-3.32 -7.73,-10.68 -4.4,-16.44 v 0 c 3.32,-5.75 10.68,-7.72 16.43,-4.4 l 22.76,13.14 c 5.76,3.32 7.73,10.68 4.41,16.44 v 0 c -3.33,5.75 -10.68,7.72 -16.44,4.4 z"
         fill="#a6c7d8"
         fill-rule="evenodd"
         id="path5605" />
      <path
         d="m 1034.22,2106.37 c -5.75,-3.32 -7.72,-10.68 -4.4,-16.43 v 0 c 3.32,-5.76 10.68,-7.73 16.44,-4.41 l 22.76,13.14 c 5.75,3.32 7.72,10.68 4.4,16.44 v 0 c -3.32,5.75 -10.68,7.72 -16.44,4.4 z"
         fill="#a6c7d8"
         fill-rule="evenodd"
         id="path5607" />
      <path
         d="m 1277,2027 c 0,-10.49 8.51,-19 19,-19 v 0 c 10.49,0 19,8.51 19,19 v 223 c 0,10.49 -8.51,19 -19,19 v 0 c -10.49,0 -19,-8.51 -19,-19 z"
         fill="#a6c7d8"
         fill-rule="evenodd"
         id="path5609" />
      <path
         d="m 1246,2244 c 0,-27.61 22.61,-50 50.5,-50 27.89,0 50.5,22.39 50.5,50 0,27.61 -22.61,50 -50.5,50 -27.89,0 -50.5,-22.39 -50.5,-50 z"
         fill="#18a468"
         fill-rule="evenodd"
         id="path5611" />
      <path
         d="m 1437.36,2305.99 c 9.28,5.36 12.46,17.23 7.1,26.51 v 0 c -5.36,9.28 -17.22,12.46 -26.51,7.1 l -115.18,-66.5 c -9.28,-5.36 -12.46,-17.23 -7.1,-26.51 v 0 c 5.36,-9.28 17.23,-12.46 26.51,-7.1 z"
         fill="#18a468"
         fill-rule="evenodd"
         id="path5613" />
    </g>
  </g>
</svg>
